<svg xmlns="http://www.w3.org/2000/svg" width="148.164" height="43.645" viewBox="0 0 148.164 43.645"><g transform="translate(-171 -65)"><path d="M6.587,28.2H0L16.04,0h6.587Z" transform="translate(171 65)" fill="#fff"/><path d="M7.32,52.946H.732l16.04-28.2h6.587Z" transform="translate(170.723 55.637)" fill="#fff"/><path d="M45,40.6a3.37,3.37,0,0,0-.16-2.3q-.445-.73-1.975-.73a4.26,4.26,0,0,0-2.616.712,1.927,1.927,0,0,0-.8,1.887q.071.535,1.014.926a10.778,10.778,0,0,0,2.3.623,18.091,18.091,0,0,1,2.848.748,15.182,15.182,0,0,1,2.687,1.21,4.046,4.046,0,0,1,1.745,2.1,5.494,5.494,0,0,1,.089,3.329,7.711,7.711,0,0,1-.979,2.4,9.3,9.3,0,0,1-1.9,2.154A8.816,8.816,0,0,1,44.024,55.3a15.877,15.877,0,0,1-4.574.605q-5.375,0-7.583-2.118T30.408,47.33h6.906q-.819,3.382,2.314,3.382t3.738-2.35a.915.915,0,0,0-.445-1.015,5.083,5.083,0,0,0-1.638-.676q-1.05-.268-2.349-.552a16.15,16.15,0,0,1-2.545-.784,11.2,11.2,0,0,1-2.225-1.174,3.922,3.922,0,0,1-1.441-1.9,5.208,5.208,0,0,1-.142-2.866q1.388-6.978,10.786-6.978,4.984,0,7.013,2.172T51.8,40.6Z" transform="translate(159.564 52.735)" fill="#fff"/><path d="M70.217,55.771H63.168l5.3-22.783h7.013Z" transform="translate(147.096 52.518)" fill="#fff"/><path d="M95.962,55.771h-8.01L85.39,32.988h7.191l.64,16.055,8.224-16.055h7.867Z" transform="translate(138.688 52.518)" fill="#fff"/><path d="M140.226,48.755a15.165,15.165,0,0,1-2.278,3.542,9.453,9.453,0,0,1-3.881,2.67,15.648,15.648,0,0,1-5.7.943,13.583,13.583,0,0,1-4.788-.747,6.283,6.283,0,0,1-4.343-4.752,10.507,10.507,0,0,1-.3-3.24,20.37,20.37,0,0,1,.534-3.365,24.061,24.061,0,0,1,1.389-4.218,14.719,14.719,0,0,1,2.3-3.56,9.594,9.594,0,0,1,3.9-2.67,15.523,15.523,0,0,1,5.66-.944,13.567,13.567,0,0,1,4.788.748,6.954,6.954,0,0,1,2.954,1.922,6.786,6.786,0,0,1,1.371,2.831,10.853,10.853,0,0,1,.285,3.239,21.077,21.077,0,0,1-.535,3.4,21.87,21.87,0,0,1-1.353,4.2m-5.269-5.411a11.309,11.309,0,0,0,.249-1.175,6.316,6.316,0,0,0,.124-1.228,8.449,8.449,0,0,0-.124-1.033,1.812,1.812,0,0,0-.427-.961,2.936,2.936,0,0,0-.89-.605,3.662,3.662,0,0,0-1.389-.3,6.659,6.659,0,0,0-2.581.321,3.569,3.569,0,0,0-1.744,1.317,9.257,9.257,0,0,0-1.032,1.833,17.252,17.252,0,0,0-.73,2.332,13.155,13.155,0,0,0-.641,4.343,2.566,2.566,0,0,0,2.706,2.1,6.46,6.46,0,0,0,2.207-.214,4.594,4.594,0,0,0,1.566-.765,4.537,4.537,0,0,0,1.086-1.317,9.9,9.9,0,0,0,.748-1.584q.267-.748.551-1.887.214-.82.321-1.175" transform="translate(126.001 52.735)" fill="#fff"/><path d="M170.412,55.771H156.35l5.269-22.783h7.049l-4.094,17.444h7.084Z" transform="translate(111.835 52.518)" fill="#fff"/><path d="M199.679,38.47H194.3l-4.058,17.3H183.3l4.058-17.266h-5.412l1.282-5.517h17.693Z" transform="translate(102.147 52.517)" fill="#fff"/><path d="M216.773,55.771l-.285-3.738h-6.941l-2.1,3.738h-7.512l13.35-22.783H221.4l2.42,22.783ZM216.1,38.9l-4.129,8.116h4.485Z" transform="translate(95.342 52.517)" fill="#fff"/></g></svg>