<svg xmlns="http://www.w3.org/2000/svg" width="58.165" height="29.188" viewBox="0 0 58.165 29.188"><g transform="translate(3354 13110)"><path d="M29.083,0C13.021,0,0,6.534,0,14.594S13.021,29.188,29.083,29.188s29.082-6.534,29.082-14.594S45.144,0,29.083,0m0,27.35c-14.157,0-25.675-5.723-25.675-12.756S14.925,1.839,29.082,1.839,54.757,7.56,54.757,14.594,43.239,27.35,29.082,27.35" transform="translate(-3354 -13110)" fill="#515151"/><path d="M26.254,8.049h.469a.289.289,0,0,1,.293.292V21.683a.31.31,0,0,0,.313.313h3.494a.31.31,0,0,0,.314-.313V7.468a.315.315,0,0,0-.314-.314H26.254c-.045,0-.045.043-.045.077v.742c0,.032,0,.076.045.076" transform="translate(-3354 -13110)" fill="#515151" fill-rule="evenodd"/><path d="M34.132,22h3.429a.48.48,0,0,0,.412-.308l2.925-9.21s.034-.128.144-.128.139.127.139.128l2.958,9.21a.476.476,0,0,0,.413.308h3.429a.272.272,0,0,0,.227-.109.326.326,0,0,0,.051-.274L43.486,7.362a.4.4,0,0,0-.415-.207H37.6a.082.082,0,0,0-.078.077v.741a.083.083,0,0,0,.078.076H38a.262.262,0,0,1,.294.256.531.531,0,0,1-.035.168l-4.4,13.141a.315.315,0,0,0,.053.272.274.274,0,0,0,.226.11" transform="translate(-3354 -13110)" fill="#515151" fill-rule="evenodd"/><path d="M10.792,8.049a.29.29,0,0,1,.294.292V21.683A.308.308,0,0,0,11.4,22h3.4a.312.312,0,0,0,.31-.313V16.072c0-.122.056-.192.156-.192a.253.253,0,0,1,.214.142l.014.02,4,5.613a.749.749,0,0,0,.545.341h4.032a.3.3,0,0,0,.212-.487L19.17,14.285c-.015-.022-.021-.036-.031-.052a.233.233,0,0,1-.026-.064.208.208,0,0,1-.008-.048.446.446,0,0,1,.061-.187l0-.008,4.269-6.32a.3.3,0,0,0,0-.3.283.283,0,0,0-.246-.152H19.364a.759.759,0,0,0-.548.341L15.488,12.2c-.1.154-.206.162-.225.162h0a.147.147,0,0,1-.156-.157V7.468a.313.313,0,0,0-.31-.314H10.322a.08.08,0,0,0-.077.077v.742a.08.08,0,0,0,.077.076Z" transform="translate(-3354 -13110)" fill="#515151" fill-rule="evenodd"/></g></svg>