<svg xmlns="http://www.w3.org/2000/svg" width="39.471" height="29.445" viewBox="0 0 39.471 29.445"><g transform="translate(3205.95 12971.035)"><path d="M177.392,168.4c-2.8,0-5.6-.019-8.4.014-.67.008-.937-.125-.941-.873-.005-.919.057-1.473,1.2-1.711a4,4,0,0,0,3.117-3.245c.186-.85.55-1.025,1.284-.932a4.746,4.746,0,0,0,.808-.008c.146-.007.265-.084.26-.241a.219.219,0,0,0-.278-.212c-1.675.472-1.952-.705-2.437-1.878a4.042,4.042,0,0,0-3.153-2.433c-1.418-.26-.612-1.322-.745-2.011-.158-.818.564-.564.965-.565q8.294-.021,16.588-.008c1.5,0,1.852.351,1.854,1.835q.006,5.26,0,10.52c0,1.371-.372,1.743-1.729,1.746q-4.2.009-8.4,0" transform="translate(-3354 -13110)" fill="#515151"/><path d="M160.8,161.38c.908.5,1.879-.093,2.312.451.419.527.388,1.4.8,2.037a4.465,4.465,0,0,0,3.061,2.122c1.348.231.535,1.22.679,1.846.169.729-.476.554-.87.555q-8.342.01-16.684,0c-1.323,0-1.683-.364-1.684-1.67q0-5.409,0-10.82c0-1.182.378-1.6,1.559-1.605,5.662-.016,11.325,0,16.988-.02.6,0,.776.2.724.758a6.648,6.648,0,0,0,0,1.111c.03.414-.129.594-.543.675A4.56,4.56,0,0,0,163.3,160.6c-.1.456-.27.6-.729.587a3.523,3.523,0,0,0-1.765.193" transform="translate(-3354 -13110)" fill="#515151"/><path d="M155.329,147.247c.462-.993.931-1.982,1.383-2.979.681-1.5,1.359-3,2.02-4.507a1.045,1.045,0,0,1,1.126-.657c.808.03,1.618.089,2.423.054.715-.032.857.228.74.895-.551,3.15-1.067,6.306-1.749,9.431-.094.427-.185.854-.267,1.283-.343,1.777-.7,2-2.491,1.667-.747-.14-.458-.629-.377-1.008.426-1.974.885-3.941,1.322-5.912a2.071,2.071,0,0,0-.028-1.185q-.84,1.866-1.68,3.732a26.672,26.672,0,0,0-1.239,2.757,2.153,2.153,0,0,1-2.576,1.626c-.848-.055-1-.382-1.048-1.084-.176-2.514-.39-5.026-.8-7.551l-.828,5.288c-.073.466-.148.932-.215,1.4-.277,1.928-.329,1.953-2.288,1.853-.647-.033-.793-.251-.669-.881.574-2.9,1.111-5.817,1.645-8.729.176-.959.331-1.925.445-2.894.074-.623.366-.9.987-.878.909.033,1.818.066,2.727.069.688,0,.593.492.625.917q.273,3.621.545,7.242l.265.052" transform="translate(-3354 -13110)" fill="#515151"/><path d="M178.621,152.6c-.842,0-1.685.008-2.527,0-1.32-.013-1.391-.075-1.122-1.406.607-3,1.243-6,1.868-8.995.021-.1.058-.2.078-.293.529-2.652.529-2.671,3.255-2.626a25.462,25.462,0,0,1,4.037.183,3.236,3.236,0,0,1,1.542,5.776c-.288.223-.844.4-.2.859,2.113,1.5.9,5.506-1.8,6.141a21.78,21.78,0,0,1-5.13.361m1.816-2.389a7.544,7.544,0,0,0,1.946-.217,1.583,1.583,0,0,0,1.176-1.586c0-.812-.683-1.116-1.393-1.187s-1.417.019-2.115-.066c-.969-.12-1.369.235-1.506,1.215-.254,1.814-.311,1.807,1.892,1.841m1.229-8.273v-.036c-.2,0-.4,0-.6,0a1.879,1.879,0,0,0-1.585,2.435c.036.077.141.176.21.173,1.163-.049,2.365.3,3.478-.231a1.308,1.308,0,0,0,.791-1.484c-.133-.691-.648-.876-1.283-.859-.336.011-.671,0-1.007,0" transform="translate(-3354 -13110)" fill="#515151"/><path d="M168.459,152.673a6.009,6.009,0,0,1-3-.6,3.743,3.743,0,0,1-2.1-3.529c.016-.306.082-.545.433-.556.639-.019,1.28-.034,1.92-.027.476.005.477.385.512.722a1.6,1.6,0,0,0,1.56,1.456,2.759,2.759,0,0,0,2.65-.549,1.06,1.06,0,0,0-.377-1.741c-1.014-.527-2.053-1.006-3.057-1.55a3.761,3.761,0,0,1-2.09-4.365,3.852,3.852,0,0,1,3.81-2.885,7.468,7.468,0,0,1,3.18.4,3.965,3.965,0,0,1,2.549,3.248c.026.159.049.437-.024.476a5.82,5.82,0,0,1-2.157.3c-.37.043-.58-.224-.73-.573a2.344,2.344,0,0,0-2.878-1.3c-.455.158-.888.38-.962.926a1.1,1.1,0,0,0,.687,1.133c.853.47,1.721.914,2.591,1.353,2.35,1.184,3.1,2.445,2.654,4.5a4.512,4.512,0,0,1-4.531,3.165c-.169,0-.337,0-.644,0" transform="translate(-3354 -13110)" fill="#515151"/><path d="M170.107,161.4a2.184,2.184,0,0,1-2.268,2.28,2.316,2.316,0,0,1-2.183-2.222,2.2,2.2,0,0,1,2.27-2.3,2.132,2.132,0,0,1,2.181,2.244" transform="translate(-3354 -13110)" fill="#515151"/></g></svg>