<svg xmlns="http://www.w3.org/2000/svg" width="60.424" height="36.504" viewBox="0 0 60.424 36.504"><g transform="translate(3078.476 12974.564)"><path d="M304.911,149.171l1.414-.745-.019-.3c-2.517,1.354-4.975.377-7.453.188-.039-.108-.079-.215-.119-.323,1.487-.817,2.931-1.729,4.472-2.424,1.562-.705,3.22-1.2,4.836-1.781-.019-.073-.038-.146-.058-.219l-4.118,1.034c.9-3.133.25-6.026-.869-9.162,1.152.651,2.1,1.151,3.007,1.706,1.994,1.214,3.967,2.462,5.961,3.675a1.358,1.358,0,0,0,.811.2,43.26,43.26,0,0,1,11.424.179,25.917,25.917,0,0,1,8.282,2.45c.206.1.4.224.6.347.041.026.054.1.151.287-1,.914-2,1.9-3.086,2.773a1.875,1.875,0,0,1-1.239.1c-1.5-.2-2.992-.454-4.487-.688l-.083.275c.8.569,1.608,1.14,2.415,1.705.747.524.757.691-.005,1.116a19.411,19.411,0,0,1-8.884,2.654c-.808.027-1.616.211-2.419.179a7.738,7.738,0,0,1-2.01-.416c-2.771-.889-5.531-1.814-8.523-2.8" transform="translate(-3354 -13110)" fill="#515151"/><path d="M309.217,157.014a15.513,15.513,0,0,0-1.83-.772,1.761,1.761,0,0,0-1.957,1.313c-.11.587.284,1,.835.762a5.283,5.283,0,0,0,1.382-.995c.386-.355.7-.5,1.1-.009-.072.209-.144.425-.22.64-.213.6-.217,1.171.447,1.475a1.355,1.355,0,0,0,1.514-.849,4.8,4.8,0,0,1,1.494-2.77c.137-.105.246-.265.4-.331.649-.278,1.3-.738,1.983-.058a1.632,1.632,0,0,1,.078,2.079,4.885,4.885,0,0,1-2.175,1.906c-.252.132-.418.43-.623.652.294.244.563.655.886.7a2.747,2.747,0,0,0,2.714-1.353,2.142,2.142,0,0,1,2.9-.64.913.913,0,0,1,.524,1.2c-.1.31.151.726.242,1.094.321-.129.742-.17.947-.4a3.8,3.8,0,0,1,3.4-1.345,1.112,1.112,0,0,0,.779-.471c.356-.486.569-1.079.94-1.551a3.847,3.847,0,0,1,.974-.661l.3.251-3,5.662.258.186a3,3,0,0,0,2.268-1.679,3.027,3.027,0,0,1,3.58-1.631v1.782c.912.049,1.13-.593,1.441-1.121.3-.51.278-1.382,1.291-1.107.126.034.343-.273.519-.42a4.924,4.924,0,0,1,.869-.7,2,2,0,0,1,.8-.028,2.609,2.609,0,0,1-.017.725c-.153.495-.379.967-.554,1.455-.081.229-.114.475-.215.908,1.365-.632,1.534-2.028,2.454-2.839-.006,1.26-1.675,3.655-2.73,4-.678.224-.956.043-.819-.683a20.374,20.374,0,0,1,.718-2.311c-1.784.81-1.6,3.081-3.147,4.1-.144-.433-.232-.694-.381-1.141a5.038,5.038,0,0,0-.824.6,1.856,1.856,0,0,1-2.891.3.881.881,0,0,0-.828.065c-1.183.966-1.956.923-2.849-.257a6.645,6.645,0,0,1-.911.408,1.3,1.3,0,0,1-1.741-.683c-.383-.781-.8-.857-1.447-.346a1.724,1.724,0,0,1-2.733-.523c-.286-.428-.482-.5-.961-.288-1.777.772-2.836.4-3.816-1.317-1.424.678-2.66.518-3.457-1.16a1.8,1.8,0,0,1-2.843-.909c-1.146.464-2.261.884-3.349,1.366a2.741,2.741,0,0,1-2.76-.617c-.162-.254-.253-.824-.115-.94a1.657,1.657,0,0,1,1.091-.3c.355.022.686.31,1.047.389a1.2,1.2,0,0,0,.88-.228c-.89-.2-1.79-.246-2.113-1.321-.522.152-.978.323-1.449.416a2.381,2.381,0,0,1-2.942-2.94,1.8,1.8,0,0,1,2.736-1.239,1.282,1.282,0,0,1,.7,1.452c-.114.671-.638.786-1.16.822a7.62,7.62,0,0,1-1.27-.11c-.019.681.272,1.014,1.058,1.1a3.316,3.316,0,0,0,2.748-1.221,2.863,2.863,0,0,1,3.767-.47,3.825,3.825,0,0,1,.728.885l-.252.233c-.209-.157-.414-.317-.626-.469a2,2,0,0,0-2.824.479,2.733,2.733,0,0,0-.081,1.092,2.917,2.917,0,0,0,1.177-.044c.419-.213.708-.67,1.088-.979a1.714,1.714,0,0,1,.592-.185c.065.23.244.506.173.681-.253.632-.591,1.23-.953,1.954a3.861,3.861,0,0,0,2.481-1.262,2.9,2.9,0,0,1,3.693-.671,1.315,1.315,0,0,1,.867,1.2m14.2,3.375c-.075-.085-.149-.171-.223-.257a2.275,2.275,0,0,0-2.565,1.369c-.075.226-.107.634.011.718a.83.83,0,0,0,.774.061c.7-.59,1.341-1.253,2-1.891m-11.9-2.044.34.3a4.448,4.448,0,0,0,2.091-1.962c.092-.167-.057-.464-.1-.7-.243.042-.593,0-.709.142-.576.713-1.091,1.476-1.627,2.221m16.924,1.8-.226-.231c-.371.263-.87.45-1.082.807a3.419,3.419,0,0,0-.37,1.553c0,.1.615.315.947.316.139,0,.453-.535.391-.627a1.237,1.237,0,0,1,.34-1.818m-10.711-.827a1.2,1.2,0,0,0-1.542.683,1.875,1.875,0,0,0,.182,1.406c.131.222.724.174,1.11.247.035-.083.071-.166.107-.25-.569-.729-.735-1.419.143-2.086m-22.105-5.558c.568.473,1.066.49,1.495,0a.637.637,0,0,0-.131-.6c-.628-.355-.989.051-1.364.6" transform="translate(-3354 -13110)" fill="#515151"/><path d="M289.6,155.17c-3.912,1.789-4.148,1.795-5.013.05-.887.854-1.717,1.715-2.61,2.5-1.4,1.24-2.829,2.461-4.3,3.625-.465.369-1.067.877-1.721.425-.7-.485-.4-1.209-.172-1.82a11.867,11.867,0,0,1,4.384-5.768,2.419,2.419,0,0,1,.6-.216l.185.218a10.262,10.262,0,0,1-1.015,1.132,10.645,10.645,0,0,0-3.367,4.429,2.627,2.627,0,0,0,.033.962c.31-.079.708-.061.918-.251,1.816-1.642,3.625-3.294,5.381-5a13.325,13.325,0,0,0,2.434-2.785,20.521,20.521,0,0,1,3.665-5,4.042,4.042,0,0,1,1.718-.881c.593-.152.9.318.672.911a2.783,2.783,0,0,1-.5.9c-1.386,1.5-2.82,2.963-4.19,4.481a5.314,5.314,0,0,0-1.085,1.7.61.61,0,0,0,.869.8c1.675-.758,3.4-1.467,4.165-3.4a5.666,5.666,0,0,1,1.187-1.674.948.948,0,0,1,.908-.145,1.062,1.062,0,0,1,.272.9,2.174,2.174,0,0,1-.537.96c-.435.5-.936.947-1.389,1.434a2.856,2.856,0,0,0-.5.7c-.438.92-.448,2.068.057,2.368.866.513,1.533-.086,2.171-.576.327-.251.687-.509.932-.061.11.2-.076.7-.286.9a3.469,3.469,0,0,1-1.188.683c-1.633.6-2.764-.262-2.679-2.007.006-.137,0-.275,0-.5m-1.952-4.817-.07-.081,2.753-2.486-.179-.163-2.5,2.73" transform="translate(-3354 -13110)" fill="#515151"/><path d="M319.09,166.792c-1.125-.323-2.039-.649-2.981-.841-1.725-.352-3.459-.7-5.205-.911-1.864-.229-2.729.331-3.618,2a9.326,9.326,0,0,0-1.251,4.2,1.112,1.112,0,0,1-.31.7c-.348-.545-.736-1.07-1.036-1.641a11.643,11.643,0,0,1-1.312-5.339c-.017-1.274.256-2.646-1.263-3.45l.2-.2c1.044.323,2.1.623,3.13.976a53.1,53.1,0,0,0,11.372,2.678c1.19.133,1.568.4,2.272,1.826" transform="translate(-3354 -13110)" fill="#515151"/><path d="M318.8,152.993c1.862-.445,3.547-.849,5.343-1.28a11.558,11.558,0,0,1-.761,5.8,8.329,8.329,0,0,0-4.582-4.517" transform="translate(-3354 -13110)" fill="#515151"/><path d="M327.545,157.608a9.582,9.582,0,0,1,.744-.99,3.337,3.337,0,0,1,.941-.734c.21-.1.526.026.794.05-.046.253,0,.632-.153.738-.642.454-1.341.826-2.02,1.227l-.306-.291" transform="translate(-3354 -13110)" fill="#515151"/></g></svg>