<svg xmlns="http://www.w3.org/2000/svg" width="58.9" height="27.129" viewBox="0 0 58.9 27.129"><g transform="translate(2939.746 12969.877)"><path d="M473.154,154.527a4.441,4.441,0,0,0-.773.028,21.964,21.964,0,0,1-5.829-.641c-.368-.089-.731-.192-1.1-.294a.2.2,0,0,0-.176,0c-.014-.084-.094-.076-.146-.092-.459-.134-.908-.3-1.355-.463-.36-.134-.718-.274-1.076-.411-.043-.069-.121-.082-.187-.111a26.731,26.731,0,0,1-9-6.585c.073-.027.107.028.148.061A28.107,28.107,0,0,0,456,147.714a26.2,26.2,0,0,0,7.818,3.55,10.561,10.561,0,0,0,1.546.312,10.454,10.454,0,0,0,1.71.188,2.407,2.407,0,0,0,.718.048,13.307,13.307,0,0,0,2.98-.257.214.214,0,0,1,.243.111q1.023,1.352,2.051,2.7c.025.033.038.08.089.087Z" transform="translate(-3354 -13110)" fill="#515151"/><path d="M462.7,152.658c.359.137.717.277,1.076.411.448.167.9.328,1.355.463.053.016.132.008.147.092a4.736,4.736,0,0,1-2.5.685q-8.149,0-16.3,0a4.856,4.856,0,0,1-4.8-4.007,4.11,4.11,0,0,1-.07-.76q0-2.32,0-4.643a4.879,4.879,0,0,1,3.976-4.694,5.418,5.418,0,0,1,.908-.076q8.2,0,16.393,0a4.874,4.874,0,0,1,4.668,3.845,5.445,5.445,0,0,1,.105,1.073c0,1.5.005,3,0,4.494a4.588,4.588,0,0,1-.589,2.223,10.578,10.578,0,0,1-1.711-.188,3.288,3.288,0,0,0,.653-2.142c-.018-1.547,0-3.1-.007-4.643a3.119,3.119,0,0,0-.037-.538,2.921,2.921,0,0,0-2.97-2.477H446.552c-.2,0-.4.008-.6.026a2.89,2.89,0,0,0-2.563,2.711c-.03,1.721-.012,3.443-.013,5.165a2.923,2.923,0,0,0,2.986,2.978q4.961,0,9.921,0l6.415,0" transform="translate(-3354 -13110)" fill="#515151"/><path d="M427.012,154.309H419.16a4.862,4.862,0,0,1-4.689-3.417,4.469,4.469,0,0,1-.217-1.373q0-2.275,0-4.551a4.859,4.859,0,0,1,3.634-4.689,4.676,4.676,0,0,1,1.178-.152q8.085,0,16.17,0c.184,0,.221.044.213.223-.02.422-.017.845-.011,1.268,0,.131-.035.165-.165.164-.758-.006-1.516,0-2.275,0q-7,0-14.006,0a2.922,2.922,0,0,0-2.925,2.4,2.767,2.767,0,0,0-.051.537q-.006,2.5,0,5a2.93,2.93,0,0,0,2.946,2.947q8.123,0,16.244,0c.178,0,.245.028.237.227-.016.409-.007.82.008,1.23.006.157-.022.206-.2.206q-4.121-.01-8.243,0" transform="translate(-3354 -13110)" fill="#515151"/><path d="M437.649,147.272q0-3.479,0-6.956c0-.158.041-.195.194-.191.478.011.957.008,1.436,0,.12,0,.155.028.155.152q0,6.994,0,13.987c0,.125-.035.155-.155.153-.479-.007-.958-.01-1.436,0-.153,0-.194-.033-.194-.191q.009-3.479,0-6.956" transform="translate(-3354 -13110)" fill="#515151"/><path d="M435.165,167.209c-.293,0-.542-.008-.789,0-.136.007-.179-.1-.246-.17s-.109-.1-.212-.039a1.708,1.708,0,0,1-2.579-1.5,1.788,1.788,0,0,1,1.283-1.8,1.727,1.727,0,0,1,2.111,1.357,1.8,1.8,0,0,1-.2,1.295.157.157,0,0,0,.036.231c.193.191.375.392.591.619m-1.542-.8c-.2-.177-.391-.332-.569-.5-.1-.1-.265-.2-.273-.313-.009-.13.178-.217.275-.328.021-.023.041-.046.06-.07.043-.055.085-.065.135-.006a1.648,1.648,0,0,0,.141.148c.216.2.434.4.643.586a1.157,1.157,0,0,0-.392-1.44,1.044,1.044,0,0,0-1.37.158,1.193,1.193,0,0,0-.049,1.551,1.044,1.044,0,0,0,1.4.21" transform="translate(-3354 -13110)" fill="#515151"/><path d="M456.909,163.659a1.8,1.8,0,1,1-1.716,1.8,1.747,1.747,0,0,1,1.716-1.8m-.007.642a1.154,1.154,0,1,0,1.107,1.149A1.146,1.146,0,0,0,456.9,164.3" transform="translate(-3354 -13110)" fill="#515151"/><path d="M424.363,159.675c0-.522,0-1.043,0-1.564,0-.117.023-.16.151-.156a8.621,8.621,0,0,0,1,0,.872.872,0,0,1,.89,1.105.232.232,0,0,0,.1.273,1.125,1.125,0,0,1,.381,1.19,1.1,1.1,0,0,1-.849.847.7.7,0,0,1-.165.022c-.458,0-.918,0-1.376,0-.108,0-.134-.031-.134-.135.005-.527,0-1.055,0-1.582m.628.559h-.013v.41c0,.057-.005.114.082.112.267,0,.535.012.8-.014a.515.515,0,0,0,.44-.54.523.523,0,0,0-.5-.488,2.467,2.467,0,0,0-.3,0c-.17.01-.4-.076-.5.037-.082.1-.017.319-.017.485m.332-1.157c.073,0,.148,0,.223,0,.162-.007.281-.109.268-.244a.248.248,0,0,0-.262-.237c-.154-.008-.309,0-.462-.005-.1,0-.11.037-.113.12-.017.367-.019.367.346.367" transform="translate(-3354 -13110)" fill="#515151"/><path d="M439.048,160.132c.053-.062.03-.127.03-.185,0-.61.005-1.219,0-1.828,0-.132.036-.164.165-.163.453,0,.453,0,.453.447,0,.939,0,1.878,0,2.816,0,.135-.031.162-.17.179a.623.623,0,0,1-.677-.363c-.375-.62-.79-1.217-1.189-1.825-.067.038-.037.093-.037.135,0,.628-.005,1.256,0,1.884,0,.129-.032.166-.163.165-.455,0-.455,0-.455-.446,0-.939,0-1.877,0-2.816,0-.132.024-.165.167-.181a.624.624,0,0,1,.681.359c.349.586.743,1.146,1.118,1.716.023.035.049.068.076.106" transform="translate(-3354 -13110)" fill="#515151"/><path d="M429.169,157.958a4.954,4.954,0,0,1,.7.03,1.721,1.721,0,0,1,1.351,1.872,1.7,1.7,0,0,1-1.683,1.53c-.33,0-.659,0-.988,0-.1,0-.125-.026-.125-.124q0-1.593,0-3.187c0-.1.026-.129.124-.125.193.008.386,0,.618,0m-.125,1.715v.577c0,.538,0,.538.542.5a1.078,1.078,0,0,0,.167-2.129,3.565,3.565,0,0,0-.574-.031c-.1-.007-.139.026-.137.133.006.316,0,.633,0,.949" transform="translate(-3354 -13110)" fill="#515151"/><path d="M440.4,159.666c0-.522,0-1.044,0-1.566,0-.115.028-.15.144-.144a9.734,9.734,0,0,1,1.3.037,1.717,1.717,0,0,1-.331,3.4c-.323,0-.647-.005-.969,0-.115,0-.146-.027-.145-.143.007-.528,0-1.056,0-1.584m.615.01v.558c0,.573,0,.573.581.516a1.079,1.079,0,0,0,.144-2.125,3.466,3.466,0,0,0-.593-.034c-.108-.007-.136.033-.134.136.006.316,0,.633,0,.949" transform="translate(-3354 -13110)" fill="#515151"/><path d="M424.513,165.494c0-.522,0-1.044,0-1.566,0-.121.03-.159.153-.153a9.731,9.731,0,0,1,1.3.038,1.718,1.718,0,0,1-.331,3.4c-.323,0-.646-.005-.969,0-.121,0-.156-.029-.154-.152.007-.522,0-1.044,0-1.566m.615,0v.558c0,.573,0,.573.581.516a1.079,1.079,0,0,0,.143-2.125,3.454,3.454,0,0,0-.592-.034c-.109-.008-.136.033-.134.136.006.316,0,.633,0,.949" transform="translate(-3354 -13110)" fill="#515151"/><path d="M455.253,167.21c-.241,0-.451-.005-.66,0-.086,0-.118-.05-.157-.106q-.506-.726-1.011-1.452a.218.218,0,0,0-.188-.121c-.124,0-.156.035-.154.156.006.46,0,.92.005,1.379,0,.116-.028.145-.144.145-.456,0-.456.005-.456-.445,0-.944,0-1.889,0-2.834,0-.127.026-.17.161-.166.323.011.647,0,.97,0a.853.853,0,0,1,.841.584.888.888,0,0,1-.3,1.017c-.106.08-.093.122-.028.214.372.528.738,1.059,1.128,1.623m-1.82-2.8c-.359,0-.359,0-.348.36a.152.152,0,0,1,0,.037c-.009.073.025.1.1.1.16,0,.322,0,.482,0a.226.226,0,0,0,.236-.236.235.235,0,0,0-.243-.25c-.074-.006-.149,0-.223,0" transform="translate(-3354 -13110)" fill="#515151"/><path d="M444.019,167.2c-.041.005-.053.009-.065.009a1.823,1.823,0,0,1-.646-.019c-.187-.077-.265-.329-.391-.505-.244-.343-.485-.69-.723-1.038a.216.216,0,0,0-.193-.114c-.115,0-.148.029-.146.145.007.46,0,.92,0,1.38,0,.12-.028.155-.152.155-.447,0-.447,0-.447-.435,0-.944,0-1.889,0-2.834,0-.133.023-.182.169-.177.323.013.646,0,.969.005a.851.851,0,0,1,.836.592.893.893,0,0,1-.3,1c-.107.08-.1.124-.033.226.373.526.737,1.057,1.118,1.606m-1.838-2.3c.08,0,.161,0,.241,0a.23.23,0,0,0,.249-.243.234.234,0,0,0-.248-.245c-.136,0-.273.009-.408,0s-.163.037-.161.164c.007.329,0,.33.327.329" transform="translate(-3354 -13110)" fill="#515151"/><path d="M454.993,161.39c-.239,0-.443-.006-.647,0-.092,0-.13-.046-.174-.109-.336-.485-.675-.968-1.01-1.453a.212.212,0,0,0-.191-.116c-.109,0-.152.02-.15.141.008.46,0,.92.006,1.38,0,.114-.019.159-.149.159-.451,0-.451,0-.451-.45,0-.939,0-1.877,0-2.816,0-.151.044-.184.185-.179.317.01.634,0,.951,0a.852.852,0,0,1,.838.589.886.886,0,0,1-.295,1c-.127.093-.1.144-.026.242.368.522.73,1.048,1.116,1.6m-1.837-2.307c.074,0,.149,0,.223,0a.245.245,0,1,0,0-.489c-.136,0-.273.008-.408,0s-.153.034-.152.153c0,.34,0,.34.335.34" transform="translate(-3354 -13110)" fill="#515151"/><path d="M444.245,165.484c0-.516,0-1.031,0-1.547,0-.123.018-.171.158-.169.621.008,1.242.006,1.864,0,.108,0,.157.019.147.141-.014.159.05.369-.029.468s-.3.029-.461.032c-.3.006-.609.006-.914,0-.108,0-.15.019-.151.141,0,.347-.006.347.334.347.3,0,.6,0,.895,0,.109,0,.14.034.133.138-.011.16.048.367-.032.468s-.3.031-.46.035c-.242.007-.485.006-.727,0-.1,0-.144.024-.141.134.007.248.007.5,0,.745,0,.118.028.161.155.158.391-.009.783.006,1.174-.007.163-.006.2.047.187.2a1.4,1.4,0,0,0,0,.317c.013.122-.04.141-.148.14-.609-.005-1.218-.007-1.827,0-.139,0-.158-.047-.157-.169.007-.522,0-1.044,0-1.566" transform="translate(-3354 -13110)" fill="#515151"/><path d="M431.712,159.666c0-.516.006-1.031,0-1.547,0-.146.043-.171.177-.17.608.008,1.217.007,1.826,0,.124,0,.18.021.167.159s.05.36-.028.449c-.091.1-.3.03-.461.033-.3.006-.6.007-.9,0-.123,0-.174.02-.171.159.007.329,0,.329.333.329.3,0,.6,0,.895,0,.107,0,.133.033.135.137.009.506.013.506-.492.506-.243,0-.485,0-.727,0-.1,0-.145.022-.142.133.007.254.008.51,0,.764,0,.124.049.141.155.139.4-.005.795.006,1.193-.006.146,0,.184.043.168.177-.018.152.066.362-.033.444s-.3.029-.449.029c-.484,0-.969-.009-1.453.006-.176.005-.2-.055-.2-.208.009-.509,0-1.019,0-1.528" transform="translate(-3354 -13110)" fill="#515151"/><path d="M438.538,165.48c0-.522,0-1.044,0-1.566,0-.113.026-.146.143-.145q.942.009,1.883,0c.116,0,.152.03.143.145-.013.159.048.37-.032.466s-.3.028-.463.031c-.31,0-.621.005-.931,0-.1,0-.125.028-.128.126-.01.361-.014.361.337.361.292,0,.584,0,.876,0,.11,0,.148.022.149.142.005.5.01.5-.5.5-.243,0-.485.005-.727,0-.108,0-.139.034-.137.138q.009.382,0,.764c0,.109.038.136.14.134.41-.005.821,0,1.231,0,.112,0,.157.025.144.143-.019.164.068.379-.038.481-.082.079-.294.024-.449.024-.5,0-.994,0-1.491,0-.123,0-.154-.034-.153-.155.007-.528,0-1.056,0-1.584" transform="translate(-3354 -13110)" fill="#515151"/><path d="M427.8,165.494c0-.516,0-1.031,0-1.547,0-.128.016-.182.167-.18.615.011,1.23.007,1.845,0,.115,0,.171.02.156.15-.018.158.065.364-.032.465s-.294.025-.448.027c-.3,0-.608.006-.913,0-.114,0-.162.019-.161.149,0,.338,0,.338.343.338.292,0,.584.006.876,0,.117,0,.143.034.144.147,0,.5.007.5-.483.5-.236,0-.473.007-.708,0-.126-.005-.177.025-.171.161.011.236.01.473,0,.708-.005.129.031.171.165.168.4-.008.8,0,1.193-.005.112,0,.172.014.159.147-.015.16.048.369-.032.468s-.3.031-.46.032c-.479,0-.957-.005-1.436,0-.155,0-.211-.023-.206-.2.014-.509.005-1.019.005-1.528" transform="translate(-3354 -13110)" fill="#515151"/><path d="M462.933,159.659c0-.522,0-1.044,0-1.566,0-.115.03-.145.145-.144q.94.009,1.882,0c.119,0,.152.034.141.147-.015.159.066.368-.03.466s-.3.027-.465.029c-.3,0-.609.007-.913,0-.117,0-.145.033-.145.146,0,.341-.005.341.339.341.3,0,.6,0,.894,0,.095,0,.125.024.129.124.017.519.021.519-.5.519-.236,0-.472,0-.708,0-.106,0-.159.014-.155.139.009.254.008.509,0,.764,0,.11.041.134.142.133.41-.005.82,0,1.23-.005.115,0,.153.029.144.144-.013.16.05.368-.03.469s-.3.033-.459.035c-.5,0-.994,0-1.491,0-.126,0-.153-.038-.152-.156.006-.528,0-1.056,0-1.584" transform="translate(-3354 -13110)" fill="#515151"/><path d="M448.084,161.426a1.983,1.983,0,0,1-1.322-.56c-.06-.054-.065-.1-.006-.151a.231.231,0,0,0,.024-.029c.1-.118.181-.294.307-.338s.222.156.349.226a1.132,1.132,0,0,0,.812.188.586.586,0,0,0,.235-.107.322.322,0,0,0-.026-.545,1.868,1.868,0,0,0-.547-.174,1.571,1.571,0,0,1-.787-.349.959.959,0,0,1,.072-1.406,1.256,1.256,0,0,1,1.071-.242,1.559,1.559,0,0,1,.5.2c.457.268.466.422.054.77-.074.062-.1,0-.135-.031a1.28,1.28,0,0,0-.607-.306.577.577,0,0,0-.476.111.284.284,0,0,0,.038.492,2.013,2.013,0,0,0,.531.167c.114.029.231.05.342.087a.976.976,0,0,1,.726,1.109,1.093,1.093,0,0,1-.988.892,1.55,1.55,0,0,1-.167,0" transform="translate(-3354 -13110)" fill="#515151"/><path d="M466.821,157.913a1.7,1.7,0,0,1,1.124.469c.053.047.067.083.015.136a.648.648,0,0,0-.046.058c-.094.116-.167.287-.287.332s-.217-.143-.341-.207a.86.86,0,0,0-.7-.105.346.346,0,0,0-.273.315c-.007.165.107.243.239.3a4.953,4.953,0,0,0,.646.171,1.028,1.028,0,0,1-.126,2.047,1.963,1.963,0,0,1-1.472-.558c-.072-.062-.059-.1,0-.166a3.45,3.45,0,0,0,.263-.314c.063-.088.107-.069.173-.006a1.4,1.4,0,0,0,.785.394.677.677,0,0,0,.479-.108.324.324,0,0,0-.018-.566,1.757,1.757,0,0,0-.53-.165,2.917,2.917,0,0,1-.514-.159.956.956,0,0,1-.226-1.583,1.183,1.183,0,0,1,.808-.283" transform="translate(-3354 -13110)" fill="#515151"/><path d="M416.583,157.835a1.708,1.708,0,0,1,1.428.742c.046.062.056.105-.017.147a.346.346,0,0,0-.044.034c-.113.088-.215.223-.341.251-.15.033-.186-.173-.289-.259a1.053,1.053,0,0,0-1.165-.156,1.181,1.181,0,0,0,.348,2.216.993.993,0,0,0,.958-.421c.082-.108.137-.139.24-.035a.96.96,0,0,0,.205.16c.142.084.155.161.044.294a1.63,1.63,0,0,1-1.742.608,1.676,1.676,0,0,1-1.277-1.362,1.8,1.8,0,0,1,1.357-2.187,2.38,2.38,0,0,1,.3-.032" transform="translate(-3354 -13110)" fill="#515151"/><path d="M449.4,167.209c-.339,0-.338,0-.22-.316.365-.987.732-1.974,1.092-2.964a.193.193,0,0,1,.222-.155c.4.008.4,0,.545.383.358.963.713,1.928,1.075,2.89.048.127.044.177-.108.164-.167-.013-.375.051-.491-.028s-.134-.292-.19-.448c-.167-.458-.166-.461-.658-.457-.2,0-.441-.078-.579.032s-.147.344-.214.524c-.006.017-.012.035-.019.052-.119.323-.119.323-.455.323m1.218-2.385c-.11.3-.2.548-.3.806h.589l-.294-.806" transform="translate(-3354 -13110)" fill="#515151"/><path d="M459.669,161.39c-.21,0-.4,0-.582,0-.08,0-.106-.036-.128-.1-.081-.235-.172-.465-.247-.7a.169.169,0,0,0-.2-.136c-.26.008-.522.011-.782,0-.124-.006-.171.044-.207.152-.076.229-.169.452-.245.681a.128.128,0,0,1-.145.1c-.179-.006-.359,0-.535,0-.027-.077.016-.131.037-.187.378-1.029.761-2.056,1.135-3.086a.207.207,0,0,1,.237-.162c.392.008.393,0,.532.375q.543,1.464,1.083,2.928c.013.034.024.068.047.132m-1.844-1.579h.59c-.1-.259-.188-.508-.3-.8-.109.3-.2.545-.294.8" transform="translate(-3354 -13110)" fill="#515151"/><path d="M421.174,159.149c0-.348,0-.7,0-1.044,0-.11.021-.149.141-.15.477,0,.477-.009.477.462,0,.54,0,1.081,0,1.622a.726.726,0,0,0,.448.71.682.682,0,0,0,.893-.7c.005-.628.008-1.256,0-1.883,0-.17.041-.216.211-.211.409.013.409,0,.409.421,0,.572,0,1.144,0,1.716a1.289,1.289,0,1,1-2.575-.01c0-.31,0-.621,0-.932" transform="translate(-3354 -13110)" fill="#515151"/><path d="M437.811,164.963c0,.323,0,.647,0,.97a1.287,1.287,0,1,1-2.574,0c-.005-.665,0-1.33,0-1.995,0-.131.036-.165.165-.164.454,0,.454,0,.454.447,0,.547,0,1.094,0,1.641a.7.7,0,0,0,.4.682.67.67,0,0,0,.938-.663c.008-.633.01-1.268,0-1.9,0-.179.055-.209.216-.205.4.01.4,0,.4.406Z" transform="translate(-3354 -13110)" fill="#515151"/><path d="M443.666,159.129c0-.342,0-.684,0-1.025,0-.111.023-.148.142-.149.476,0,.476-.009.476.462,0,.541,0,1.082,0,1.622a.727.727,0,0,0,.448.71.678.678,0,0,0,.892-.684c.008-.634.009-1.267,0-1.9,0-.171.044-.213.212-.209.408.012.408,0,.408.422,0,.565,0,1.131,0,1.7a1.289,1.289,0,1,1-2.575.007c0-.317,0-.634,0-.951" transform="translate(-3354 -13110)" fill="#515151"/><path d="M460.118,159.678c0-.522,0-1.044,0-1.566,0-.12.028-.157.153-.157.465,0,.465,0,.465.455,0,.708.009,1.417-.006,2.125,0,.2.059.23.236.225.434-.013.87,0,1.3-.007.11,0,.159.021.145.142-.017.159.065.363-.031.466s-.293.027-.447.028c-.547,0-1.094-.005-1.641,0-.153,0-.181-.048-.179-.187.008-.509,0-1.019,0-1.529" transform="translate(-3354 -13110)" fill="#515151"/><path d="M418.6,159.682c0-.522,0-1.044,0-1.566,0-.113.017-.161.148-.161.469,0,.469-.005.469.47,0,.728,0,1.455,0,2.182,0,.124.034.154.154.152.454-.007.908,0,1.362-.005.121,0,.183.015.168.156s.046.355-.031.449-.291.029-.444.03c-.554,0-1.107,0-1.66,0-.13,0-.166-.034-.164-.164.008-.516,0-1.032,0-1.548" transform="translate(-3354 -13110)" fill="#515151"/><path d="M447.64,165.811c0-.416,0-.832,0-1.248,0-.11-.022-.154-.142-.148-.186.011-.373,0-.559.005-.088,0-.121-.027-.117-.117a4.011,4.011,0,0,0,0-.41c-.006-.1.038-.123.13-.123q1,0,1.993,0c.085,0,.115.02.12.112.029.536.032.536-.5.536-.315,0-.315,0-.315.309,0,.776,0,1.552,0,2.328,0,.117-.024.158-.151.158-.466,0-.466.005-.466-.452Z" transform="translate(-3354 -13110)" fill="#515151"/><path d="M450.363,159.994c0-.391-.014-.783.006-1.173.01-.2-.059-.243-.237-.225-.148.015-.3,0-.447.005-.1.005-.137-.025-.14-.134-.011-.515-.015-.515.5-.515s1.043,0,1.564,0c.129,0,.2.017.179.168s.044.353-.033.449-.29.029-.443.031c-.336.006-.336,0-.336.346,0,.757,0,1.515,0,2.272,0,.129-.018.182-.168.18-.45-.008-.45,0-.45-.451Z" transform="translate(-3354 -13110)" fill="#515151"/><path d="M436.094,159.672c0,.521,0,1.042,0,1.564,0,.116-.023.158-.15.158-.467,0-.467,0-.467-.452,0-.937,0-1.874,0-2.811,0-.131.019-.2.168-.175s.342-.063.427.035.022.273.023.415c0,.422,0,.844,0,1.266" transform="translate(-3354 -13110)" fill="#515151"/><path d="M456.051,159.7c0,.515-.005,1.03,0,1.545,0,.124-.036.153-.155.153-.463,0-.463,0-.463-.455,0-.937,0-1.874,0-2.811,0-.139.032-.175.172-.172.447.007.447,0,.447.456V159.7" transform="translate(-3354 -13110)" fill="#515151"/><path d="M446.027,162.77c-.173.239-.319.451-.476.654-.084.108-.211.018-.364.075l.311-.689c.023-.051.071-.039.113-.04.124,0,.248,0,.416,0" transform="translate(-3354 -13110)" fill="#515151"/></g></svg>