<svg xmlns="http://www.w3.org/2000/svg" width="49.459" height="25.281" viewBox="0 0 49.459 25.281"><g transform="translate(3348.485 12901.555)"><path d="M14.92,208.446V221.74a4.607,4.607,0,1,0,.847-2.656v-3.876a7.529,7.529,0,0,1,9.887,2.158v-8.92Z" transform="translate(-3354 -13110)" fill="#515151"/><path d="M11.985,221.739V208.446H5.515v20.139H16.373a7.534,7.534,0,0,1-4.388-6.846" transform="translate(-3354 -13110)" fill="#515151"/><path d="M22.666,228.585h2.987v-2.474a7.562,7.562,0,0,1-2.987,2.474" transform="translate(-3354 -13110)" fill="#515151"/><path d="M40.734,215.226a6.906,6.906,0,1,0-.094,12.941l-.124-1.909a5.1,5.1,0,1,1-.264-9.279Z" transform="translate(-3354 -13110)" fill="#515151"/><path d="M53.817,218.135a6.908,6.908,0,1,0,.977,3.543l-1.81.209a5.1,5.1,0,1,1-1.966-4.236l-7.6,5.479a4.689,4.689,0,0,0,.99,1.7Z" transform="translate(-3354 -13110)" fill="#515151"/><path d="M29.7,211.7a1.328,1.328,0,1,1-1.328-1.328A1.329,1.329,0,0,1,29.7,211.7" transform="translate(-3354 -13110)" fill="#515151"/><rect width="1.878" height="13.813" transform="translate(-3326.432 -12895.228)" fill="#515151"/><path d="M5.885,233.07v-1.9h.286a1.239,1.239,0,0,1,.3.03.451.451,0,0,1,.193.1.5.5,0,0,1,.127.181.55.55,0,0,1,.049.222.447.447,0,0,1-.157.346.463.463,0,0,1,.239.182.511.511,0,0,1,.089.3.5.5,0,0,1-.157.377.52.52,0,0,1-.215.132,1.223,1.223,0,0,1-.324.036Zm.288-1.086h.089a.333.333,0,0,0,.235-.071.271.271,0,0,0,.074-.209.264.264,0,0,0-.075-.2.319.319,0,0,0-.223-.07h-.1Zm0,.816h.178a.439.439,0,0,0,.285-.076.264.264,0,0,0,.1-.21.271.271,0,0,0-.093-.207.483.483,0,0,0-.322-.083H6.173Z" transform="translate(-3354 -13110)" fill="#515151"/><path d="M7.6,231.869v.689c0,.2.079.3.236.3s.235-.1.235-.3v-.689h.278v.7a.77.77,0,0,1-.036.249.426.426,0,0,1-.12.169.583.583,0,0,1-.714,0,.442.442,0,0,1-.122-.169.69.69,0,0,1-.034-.249v-.7Z" transform="translate(-3354 -13110)" fill="#515151"/><path d="M8.989,232.128v.942H8.71v-.942h-.1v-.259h.1V231.4a.5.5,0,0,1,.079-.32.389.389,0,0,1,.316-.131.538.538,0,0,1,.186.043v.284l-.028-.015a.359.359,0,0,0-.148-.046.1.1,0,0,0-.1.053.521.521,0,0,0-.026.2v.4h.3v.259Z" transform="translate(-3354 -13110)" fill="#515151"/><path d="M10.584,232.535H9.723a.368.368,0,0,0,.1.235.294.294,0,0,0,.219.087.282.282,0,0,0,.171-.05.692.692,0,0,0,.152-.182l.234.131a.907.907,0,0,1-.115.158.623.623,0,0,1-.129.109.528.528,0,0,1-.149.062.741.741,0,0,1-.174.02.566.566,0,0,1-.432-.173.651.651,0,0,1-.163-.461.665.665,0,0,1,.158-.461.545.545,0,0,1,.422-.174.538.538,0,0,1,.419.169.662.662,0,0,1,.153.465Zm-.285-.227a.266.266,0,0,0-.28-.222.3.3,0,0,0-.1.015.322.322,0,0,0-.081.045.262.262,0,0,0-.062.07.319.319,0,0,0-.039.092Z" transform="translate(-3354 -13110)" fill="#515151"/><path d="M11.2,232.128v.942h-.277v-.942H10.8v-.259h.119v-.44H11.2v.44h.216v.259Z" transform="translate(-3354 -13110)" fill="#515151"/><path d="M12.716,232.535h-.861a.368.368,0,0,0,.1.235.294.294,0,0,0,.219.087.282.282,0,0,0,.171-.05.692.692,0,0,0,.152-.182l.234.131a.907.907,0,0,1-.115.158.623.623,0,0,1-.129.109.528.528,0,0,1-.149.062.741.741,0,0,1-.174.02.566.566,0,0,1-.432-.173.651.651,0,0,1-.163-.461.665.665,0,0,1,.158-.461.545.545,0,0,1,.422-.174.538.538,0,0,1,.419.169.662.662,0,0,1,.153.465Zm-.285-.227a.266.266,0,0,0-.28-.222.3.3,0,0,0-.1.015.322.322,0,0,0-.081.045.262.262,0,0,0-.062.07.319.319,0,0,0-.039.092Z" transform="translate(-3354 -13110)" fill="#515151"/><path d="M14.684,230.986h.278v2.083h-.278v-.125a.534.534,0,0,1-.781-.02.671.671,0,0,1-.162-.459.647.647,0,0,1,.162-.449.519.519,0,0,1,.781-.008Zm-.659,1.479a.416.416,0,0,0,.093.281.3.3,0,0,0,.239.11.316.316,0,0,0,.249-.106.457.457,0,0,0,0-.558.316.316,0,0,0-.247-.107.3.3,0,0,0-.239.109.4.4,0,0,0-.1.271" transform="translate(-3354 -13110)" fill="#515151"/><path d="M16.407,232.535h-.861a.368.368,0,0,0,.1.235.294.294,0,0,0,.219.087.282.282,0,0,0,.171-.05.692.692,0,0,0,.152-.182l.234.131a.907.907,0,0,1-.115.158.623.623,0,0,1-.129.109.528.528,0,0,1-.149.062.741.741,0,0,1-.174.02.566.566,0,0,1-.432-.173.651.651,0,0,1-.163-.461.665.665,0,0,1,.158-.461.545.545,0,0,1,.422-.174.538.538,0,0,1,.419.169.662.662,0,0,1,.153.465Zm-.285-.227a.266.266,0,0,0-.28-.222.3.3,0,0,0-.1.015.322.322,0,0,0-.081.045.262.262,0,0,0-.062.07.319.319,0,0,0-.039.092Z" transform="translate(-3354 -13110)" fill="#515151"/><rect width="0.287" height="1.904" transform="translate(-3336.457 -12878.834)" fill="#515151"/><path d="M18.234,231.869h.279v.111a.455.455,0,0,1,.328-.144.417.417,0,0,1,.327.132.543.543,0,0,1,.1.366v.736H18.99V232.4a.447.447,0,0,0-.049-.245.2.2,0,0,0-.176-.069.214.214,0,0,0-.2.091.64.64,0,0,0-.056.315v.579h-.279Z" transform="translate(-3354 -13110)" fill="#515151"/><path d="M20.78,233.042c0,.056,0,.106-.005.15a1.01,1.01,0,0,1-.016.114.5.5,0,0,1-.116.233.559.559,0,0,1-.447.187.6.6,0,0,1-.4-.129.532.532,0,0,1-.185-.369h.279a.3.3,0,0,0,.053.137.3.3,0,0,0,.251.112c.2,0,.305-.124.305-.374v-.167a.52.52,0,0,1-.381.169.512.512,0,0,1-.4-.178.659.659,0,0,1-.158-.45.69.69,0,0,1,.147-.446.509.509,0,0,1,.417-.2.482.482,0,0,1,.377.169v-.136h.277Zm-.266-.57a.4.4,0,0,0-.094-.28.31.31,0,0,0-.243-.107.3.3,0,0,0-.249.117.486.486,0,0,0,0,.54.3.3,0,0,0,.249.115.307.307,0,0,0,.252-.116.413.413,0,0,0,.085-.269" transform="translate(-3354 -13110)" fill="#515151"/><path d="M22.225,232.535h-.861a.368.368,0,0,0,.095.235.3.3,0,0,0,.219.087.285.285,0,0,0,.172-.05.712.712,0,0,0,.151-.182l.235.131a1.025,1.025,0,0,1-.115.158.628.628,0,0,1-.13.109.522.522,0,0,1-.148.062.756.756,0,0,1-.175.02.568.568,0,0,1-.432-.173.651.651,0,0,1-.163-.461.661.661,0,0,1,.159-.461.6.6,0,0,1,.841,0,.666.666,0,0,1,.153.465Zm-.285-.227a.267.267,0,0,0-.28-.222.287.287,0,0,0-.095.015.311.311,0,0,0-.082.045.262.262,0,0,0-.062.07.349.349,0,0,0-.039.092Z" transform="translate(-3354 -13110)" fill="#515151"/><path d="M22.528,231.869h.279v.111a.455.455,0,0,1,.328-.144.417.417,0,0,1,.327.132.543.543,0,0,1,.1.366v.736h-.279V232.4a.447.447,0,0,0-.049-.245.2.2,0,0,0-.176-.069.214.214,0,0,0-.2.091.64.64,0,0,0-.056.315v.579h-.279Z" transform="translate(-3354 -13110)" fill="#515151"/><path d="M23.871,231.369a.181.181,0,0,1,.18-.179.175.175,0,0,1,.128.053.173.173,0,0,1,.053.127.177.177,0,0,1-.053.129.171.171,0,0,1-.127.053.181.181,0,0,1-.181-.183m.319,1.7h-.277v-1.2h.277Z" transform="translate(-3354 -13110)" fill="#515151"/><path d="M25.635,232.535h-.861a.368.368,0,0,0,.1.235.294.294,0,0,0,.219.087.282.282,0,0,0,.171-.05.692.692,0,0,0,.152-.182l.234.131a.907.907,0,0,1-.115.158.623.623,0,0,1-.129.109.528.528,0,0,1-.149.062.741.741,0,0,1-.174.02.566.566,0,0,1-.432-.173.651.651,0,0,1-.163-.461.665.665,0,0,1,.158-.461.545.545,0,0,1,.422-.174.538.538,0,0,1,.419.169.662.662,0,0,1,.153.465Zm-.284-.227a.268.268,0,0,0-.281-.222.285.285,0,0,0-.094.015.312.312,0,0,0-.082.045.262.262,0,0,0-.062.07.319.319,0,0,0-.039.092Z" transform="translate(-3354 -13110)" fill="#515151"/><path d="M25.939,231.869h.277v.107a.527.527,0,0,1,.136-.109.3.3,0,0,1,.143-.031.457.457,0,0,1,.23.071l-.127.254a.271.271,0,0,0-.155-.056c-.151,0-.227.114-.227.342v.623h-.277Z" transform="translate(-3354 -13110)" fill="#515151"/><path d="M26.8,232.46a.6.6,0,0,1,.187-.443.657.657,0,0,1,.91,0,.642.642,0,0,1,0,.9.639.639,0,0,1-.46.181.611.611,0,0,1-.452-.185.623.623,0,0,1-.183-.459m.284,0a.406.406,0,0,0,.1.285.374.374,0,0,0,.521,0,.453.453,0,0,0,0-.56.343.343,0,0,0-.261-.106.335.335,0,0,0-.257.106.386.386,0,0,0-.1.274" transform="translate(-3354 -13110)" fill="#515151"/><path d="M29.077,232.073l-.229.122c-.037-.074-.081-.111-.135-.111a.1.1,0,0,0-.065.025.086.086,0,0,0-.027.065c0,.046.053.092.16.137a.959.959,0,0,1,.3.175.3.3,0,0,1,.077.216.377.377,0,0,1-.129.291.459.459,0,0,1-.728-.184l.236-.11a.465.465,0,0,0,.076.11.172.172,0,0,0,.121.047c.093,0,.14-.043.14-.128q0-.075-.108-.138l-.084-.041-.085-.041a.522.522,0,0,1-.171-.118.292.292,0,0,1-.063-.194.343.343,0,0,1,.108-.259.377.377,0,0,1,.266-.1.363.363,0,0,1,.343.238" transform="translate(-3354 -13110)" fill="#515151"/><path d="M31.643,231.268v.34a.8.8,0,0,0-.515-.208.656.656,0,0,0-.5.211.711.711,0,0,0-.2.513.691.691,0,0,0,.2.505.666.666,0,0,0,.5.206.609.609,0,0,0,.258-.049.711.711,0,0,0,.122-.067,1.174,1.174,0,0,0,.134-.1v.347a1.035,1.035,0,0,1-.518.139.957.957,0,0,1-.7-.285.944.944,0,0,1-.287-.693.974.974,0,0,1,.241-.648.955.955,0,0,1,.765-.349.97.97,0,0,1,.5.139" transform="translate(-3354 -13110)" fill="#515151"/><path d="M31.911,231.369a.18.18,0,0,1,.308-.126.169.169,0,0,1,.053.127.174.174,0,0,1-.053.129.171.171,0,0,1-.127.053.175.175,0,0,1-.128-.053.18.18,0,0,1-.053-.13m.319,1.7h-.277v-1.2h.277Z" transform="translate(-3354 -13110)" fill="#515151"/><path d="M32.731,231.869l.311.675.309-.675h.312l-.624,1.284-.619-1.284Z" transform="translate(-3354 -13110)" fill="#515151"/><path d="M33.809,231.369a.176.176,0,0,1,.053-.126.173.173,0,0,1,.127-.053.175.175,0,0,1,.128.053.173.173,0,0,1,.053.127.177.177,0,0,1-.053.129.171.171,0,0,1-.127.053.175.175,0,0,1-.128-.053.18.18,0,0,1-.053-.13m.319,1.7h-.277v-1.2h.277Z" transform="translate(-3354 -13110)" fill="#515151"/><rect width="0.277" height="2.083" transform="translate(-3319.52 -12879.013)" fill="#515151"/><path d="M36.2,232.535h-.861a.368.368,0,0,0,.1.235.293.293,0,0,0,.218.087.283.283,0,0,0,.172-.05.692.692,0,0,0,.152-.182l.234.131a.962.962,0,0,1-.115.158.623.623,0,0,1-.129.109.528.528,0,0,1-.149.062.741.741,0,0,1-.174.02.566.566,0,0,1-.432-.173.651.651,0,0,1-.163-.461.665.665,0,0,1,.158-.461.545.545,0,0,1,.422-.174.538.538,0,0,1,.419.169.662.662,0,0,1,.153.465Zm-.285-.227a.266.266,0,0,0-.28-.222.3.3,0,0,0-.1.015.306.306,0,0,0-.081.045.262.262,0,0,0-.062.07.319.319,0,0,0-.039.092Z" transform="translate(-3354 -13110)" fill="#515151"/><path d="M37.2,232.073l-.229.122c-.037-.074-.081-.111-.135-.111a.1.1,0,0,0-.065.025.086.086,0,0,0-.027.065c0,.046.053.092.16.137a.959.959,0,0,1,.3.175.3.3,0,0,1,.077.216.377.377,0,0,1-.129.291.459.459,0,0,1-.728-.184l.236-.11a.465.465,0,0,0,.076.11.171.171,0,0,0,.12.047c.094,0,.141-.043.141-.128q0-.075-.108-.138l-.084-.041-.085-.041a.522.522,0,0,1-.171-.118.292.292,0,0,1-.062-.194.343.343,0,0,1,.107-.259.377.377,0,0,1,.266-.1.363.363,0,0,1,.343.238" transform="translate(-3354 -13110)" fill="#515151"/><path d="M39.413,231.436H38.65v.458h.741v.27H38.65v.636h.763v.27H38.362v-1.9h1.051Z" transform="translate(-3354 -13110)" fill="#515151"/><path d="M40.436,232.073l-.229.122c-.037-.074-.081-.111-.135-.111a.1.1,0,0,0-.065.025.086.086,0,0,0-.027.065c0,.046.053.092.16.137a.959.959,0,0,1,.3.175.3.3,0,0,1,.077.216.377.377,0,0,1-.129.291.459.459,0,0,1-.728-.184l.236-.11a.465.465,0,0,0,.076.11.171.171,0,0,0,.12.047c.094,0,.141-.043.141-.128q0-.075-.108-.138l-.084-.041-.085-.041a.522.522,0,0,1-.171-.118.292.292,0,0,1-.062-.194.343.343,0,0,1,.107-.259.377.377,0,0,1,.266-.1.363.363,0,0,1,.343.238" transform="translate(-3354 -13110)" fill="#515151"/><path d="M41.039,233.724h-.276v-1.855h.276V232a.513.513,0,0,1,.373-.164.52.52,0,0,1,.408.182.663.663,0,0,1,.163.458.643.643,0,0,1-.162.45.526.526,0,0,1-.782.01Zm.661-1.247a.412.412,0,0,0-.1-.281.3.3,0,0,0-.238-.11.316.316,0,0,0-.249.106.41.41,0,0,0-.1.279.421.421,0,0,0,.1.279.316.316,0,0,0,.247.107.3.3,0,0,0,.239-.109.4.4,0,0,0,.1-.271" transform="translate(-3354 -13110)" fill="#515151"/><path d="M43.371,232.535H42.51a.368.368,0,0,0,.1.235.293.293,0,0,0,.218.087.283.283,0,0,0,.172-.05.692.692,0,0,0,.152-.182l.234.131a.962.962,0,0,1-.115.158.623.623,0,0,1-.129.109.528.528,0,0,1-.149.062.741.741,0,0,1-.174.02.566.566,0,0,1-.432-.173.651.651,0,0,1-.163-.461.665.665,0,0,1,.158-.461.545.545,0,0,1,.422-.174.538.538,0,0,1,.419.169.662.662,0,0,1,.153.465Zm-.285-.227a.266.266,0,0,0-.28-.222.3.3,0,0,0-.1.015.306.306,0,0,0-.081.045.262.262,0,0,0-.062.07.319.319,0,0,0-.039.092Z" transform="translate(-3354 -13110)" fill="#515151"/><path d="M44.609,231.92v.369a.646.646,0,0,0-.17-.159.332.332,0,0,0-.174-.045.344.344,0,0,0-.26.11.385.385,0,0,0-.1.275.39.39,0,0,0,.1.277.334.334,0,0,0,.258.109.351.351,0,0,0,.176-.043.706.706,0,0,0,.174-.163v.366a.722.722,0,0,1-.338.088.646.646,0,0,1-.466-.18.6.6,0,0,1-.188-.45.612.612,0,0,1,.19-.454.645.645,0,0,1,.467-.185.692.692,0,0,1,.335.085" transform="translate(-3354 -13110)" fill="#515151"/><path d="M44.836,231.369a.181.181,0,0,1,.18-.179.177.177,0,0,1,.128.053.173.173,0,0,1,.053.127.177.177,0,0,1-.053.129.173.173,0,0,1-.127.053.181.181,0,0,1-.181-.183m.319,1.7h-.277v-1.2h.277Z" transform="translate(-3354 -13110)" fill="#515151"/><path d="M46.391,231.868h.279v1.2h-.279v-.125a.533.533,0,0,1-.78-.02.671.671,0,0,1-.162-.459.648.648,0,0,1,.162-.45.52.52,0,0,1,.4-.18.506.506,0,0,1,.376.173Zm-.658.6a.416.416,0,0,0,.093.281.3.3,0,0,0,.239.11.318.318,0,0,0,.249-.106.457.457,0,0,0,0-.558.316.316,0,0,0-.247-.107.3.3,0,0,0-.239.109.4.4,0,0,0-.095.271" transform="translate(-3354 -13110)" fill="#515151"/><rect width="0.277" height="2.083" transform="translate(-3306.979 -12879.013)" fill="#515151"/><path d="M47.608,231.369a.181.181,0,0,1,.18-.179.175.175,0,0,1,.128.053.173.173,0,0,1,.053.127.177.177,0,0,1-.053.129.173.173,0,0,1-.127.053.181.181,0,0,1-.181-.183m.319,1.7H47.65v-1.2h.277Z" transform="translate(-3354 -13110)" fill="#515151"/><path d="M48.677,232.808h.714v.261H48.127l.778-.942h-.613v-.259h1.162Z" transform="translate(-3354 -13110)" fill="#515151"/><path d="M50.536,231.868h.279v1.2h-.279v-.125a.533.533,0,0,1-.78-.02.671.671,0,0,1-.162-.459.648.648,0,0,1,.162-.45.52.52,0,0,1,.4-.18.506.506,0,0,1,.376.173Zm-.658.6a.421.421,0,0,0,.092.281.306.306,0,0,0,.24.11.318.318,0,0,0,.249-.106.457.457,0,0,0,0-.558.316.316,0,0,0-.247-.107.3.3,0,0,0-.239.109.4.4,0,0,0-.1.271" transform="translate(-3354 -13110)" fill="#515151"/><path d="M52.05,230.986h.279v2.083H52.05v-.125a.52.52,0,0,1-.371.16.528.528,0,0,1-.409-.18.671.671,0,0,1-.162-.459.647.647,0,0,1,.162-.449.514.514,0,0,1,.4-.181.506.506,0,0,1,.377.173Zm-.658,1.479a.421.421,0,0,0,.092.281.306.306,0,0,0,.24.11.318.318,0,0,0,.249-.106.457.457,0,0,0,0-.558.316.316,0,0,0-.247-.107.3.3,0,0,0-.239.109.4.4,0,0,0-.1.271" transform="translate(-3354 -13110)" fill="#515151"/><path d="M52.623,232.46a.6.6,0,0,1,.187-.443.657.657,0,0,1,.91,0,.642.642,0,0,1,0,.9.639.639,0,0,1-.46.181.609.609,0,0,1-.452-.185.623.623,0,0,1-.183-.459m.284,0a.406.406,0,0,0,.1.285.374.374,0,0,0,.521,0,.453.453,0,0,0,0-.56.343.343,0,0,0-.261-.106.335.335,0,0,0-.257.106.386.386,0,0,0-.1.274" transform="translate(-3354 -13110)" fill="#515151"/><path d="M54.9,232.073l-.229.122c-.037-.074-.081-.111-.135-.111a.1.1,0,0,0-.065.025.086.086,0,0,0-.027.065c0,.046.053.092.16.137a.959.959,0,0,1,.3.175.3.3,0,0,1,.077.216.377.377,0,0,1-.129.291.459.459,0,0,1-.728-.184l.236-.11a.465.465,0,0,0,.076.11.171.171,0,0,0,.12.047c.094,0,.141-.043.141-.128q0-.075-.108-.138l-.084-.041-.085-.041a.522.522,0,0,1-.171-.118.292.292,0,0,1-.062-.194.343.343,0,0,1,.107-.259.377.377,0,0,1,.266-.1.363.363,0,0,1,.343.238" transform="translate(-3354 -13110)" fill="#515151"/></g></svg>