<svg xmlns="http://www.w3.org/2000/svg" width="33.729" height="42.172" viewBox="0 0 33.729 42.172"><g transform="translate(3203.101 12910)"><path d="M181.63,211.351v-5.687h-2.8v1.542h-1.774v-1.542H155.392v.122h4.318v3.23h-4.319v-3.352H153.9v5.687h2.441v-2.212h2.42v2.212h17.616v2.432H158.761v4.9h-2.42v-4.9H153.9v5.477h2.441v-.454h2.42v.454h18.3v-2.317h1.774v2.317h2.8v-5.477h-2.143v-2.432Zm-2.8,5.47h-1.774v-.42a.888.888,0,0,1,1.774,0Zm0-9.064a.909.909,0,0,1-1.774,0v-.429h1.774Z" transform="translate(-3354 -13110)" fill="#515151"/><path d="M155.079,204.615h4.944v.927h17.036v-2.524h1.774v2.524h5.728v-4.609h-4.984V202.9h-3.26v-1.962H150.969v4.609h4.11Zm.312-3.362h4.319v3.24h-4.319Z" transform="translate(-3354 -13110)" fill="#515151"/><rect width="2.44" height="7.815" transform="translate(-3195.239 -12886.444)" fill="#515151"/><rect width="14.388" height="0.81" transform="translate(-3193.383 -12910)" fill="#515151"/><path d="M181.63,219.389v-.007h-2.8v2.61h-1.774v-2.61h-18.3v3.451h-2.42v-3.451H153.9v4.051h2.44v-.479h2.42v.479h17.976v-.341l.323-.97h0v-.008h1.774v.008l.324.97v.341h2.473Z" transform="translate(-3354 -13110)" fill="#515151"/><rect width="2.44" height="7.815" transform="translate(-3200.099 -12886.444)" fill="#515151"/><path d="M181.63,231.494v0h-2.473v.765h-2.42v-.765h-2.164v0H161.2v0h-2.441v2.093h-2.42v-2.093H153.9v0h-3v4.183h33.721v-4.183ZM158.2,234.468h-1.3v-.761h1.3Zm21.375,0h-3.26v-2.087h.42v0h2.42v0h.42Z" transform="translate(-3354 -13110)" fill="#515151"/><rect width="2.473" height="7.815" transform="translate(-3174.843 -12886.444)" fill="#515151"/><rect width="2.165" height="7.815" transform="translate(-3179.428 -12886.445)" fill="#515151"/><rect width="2.42" height="2.431" transform="translate(-3197.659 -12898.648)" fill="#515151"/><path d="M152.11,238.536l-1-1.7H150.9v3.129h.352v-2.219l.8,1.351h.13l.792-1.35v2.218h.352v-3.129h-.212Z" transform="translate(-3354 -13110)" fill="#515151"/><path d="M156.01,236.8c-.808,0-1.35.645-1.35,1.6s.542,1.6,1.35,1.6c.826,0,1.359-.63,1.359-1.6a1.416,1.416,0,0,0-1.359-1.6m1,1.6c0,.77-.383,1.249-1,1.249-.6,0-.99-.49-.99-1.249s.4-1.248.994-1.248c.614,0,.995.478.995,1.248" transform="translate(-3354 -13110)" fill="#515151"/><path d="M159.064,236.84h-.356v3.125h1.6v-.348h-1.249Z" transform="translate(-3354 -13110)" fill="#515151"/><path d="M162.34,236.84h-.953v3.125h.953c.778,0,1.3-.628,1.3-1.562s-.522-1.563-1.3-1.563m.944,1.567c0,.73-.374,1.2-.952,1.2h-.588v-2.417h.592c.585,0,.948.466.948,1.215" transform="translate(-3354 -13110)" fill="#515151"/><path d="M165.335,238.526h1.215v-.348h-1.215v-.99H166.6v-.347h-1.618v3.124h1.635v-.356h-1.283Z" transform="translate(-3354 -13110)" fill="#515151"/><path d="M168.919,238.187l-.036,0c-.384-.054-.657-.122-.657-.508,0-.49.486-.529.635-.529.236,0,.637.066.664.509l.005.076h.352l-.005-.085a1.017,1.017,0,0,0-2.011.034c0,.7.624.795,1,.85.442.078.732.159.725.558a.624.624,0,0,1-.69.573c-.214,0-.715-.055-.741-.555l0-.076H167.8l0,.084a.972.972,0,0,0,1.1.894.946.946,0,0,0,1.046-.913c.01-.735-.64-.842-1.03-.907" transform="translate(-3354 -13110)" fill="#515151"/><path d="M174.278,237.844a.992.992,0,0,0-1.008-1.084h-1.136v3.286h.522v-1.13h.5l.758,1.13h.319l.161-.012v-.212l-.688-1.008a1.012,1.012,0,0,0,.57-.97m-1.626-.575h.618c.316,0,.49.2.49.571,0,.352-.188.571-.49.571h-.618Z" transform="translate(-3354 -13110)" fill="#515151"/><path d="M177.156,238.864c0,.318-.1.7-.588.7-.39,0-.6-.241-.6-.7v-2.1h-.513v2.108a1.11,1.11,0,1,0,2.21,0V236.76h-.513Z" transform="translate(-3354 -13110)" fill="#515151"/><path d="M180.008,238.107l-.036,0c-.366-.051-.587-.106-.587-.428,0-.4.387-.448.553-.448.254,0,.562.075.584.433l.01.151h.512l-.009-.17a1.1,1.1,0,0,0-2.172.038c0,.774.693.876,1.064.931.462.081.664.15.659.476-.009.48-.548.494-.609.494-.238,0-.64-.062-.66-.478l-.008-.153h-.516l.006.168a1.047,1.047,0,0,0,1.182.972,1.023,1.023,0,0,0,1.126-.993c.011-.8-.709-.923-1.1-.988" transform="translate(-3354 -13110)" fill="#515151"/><path d="M183.4,236.752H183.1l-1.222,3.047-.011.029v.218h.483l.334-.855h1.13l.335.855h.479v-.218Zm-.53,1.93.374-.968.371.968Z" transform="translate(-3354 -13110)" fill="#515151"/><path d="M151.781,242.156h-.074v-.95l-.359.611h-.015l-.36-.611v.95H150.9V241h.033l.408.694.408-.694h.033Z" transform="translate(-3354 -13110)" fill="#515151"/><path d="M152.862,242.172c-.282,0-.495-.218-.495-.594s.216-.6.495-.6.5.218.5.6-.2.594-.5.594m0-.076c.243,0,.421-.182.421-.518s-.173-.519-.419-.519-.42.2-.42.519.177.518.418.518" transform="translate(-3354 -13110)" fill="#515151"/><path d="M154.509,242.156h-.563V241h.076v1.083h.487Z" transform="translate(-3354 -13110)" fill="#515151"/><path d="M155.332,241c.294,0,.476.236.476.578s-.182.578-.476.578h-.34V241Zm0,1.08c.244,0,.4-.195.4-.5s-.157-.506-.4-.506h-.263v1.006Z" transform="translate(-3354 -13110)" fill="#515151"/><path d="M156.469,241.521h.474v.073h-.474v.485h.5v.076H156.4V241h.568v.073h-.494Z" transform="translate(-3354 -13110)" fill="#515151"/><path d="M157.571,241.853c.01.2.188.246.32.246a.272.272,0,0,0,.3-.254c0-.2-.16-.223-.311-.25-.18-.026-.361-.069-.361-.3a.366.366,0,0,1,.722-.012h-.075c-.011-.183-.17-.228-.29-.228s-.28.06-.28.238c0,.2.171.213.3.231.19.032.378.081.375.322a.34.34,0,0,1-.377.326c-.18,0-.388-.075-.4-.319Z" transform="translate(-3354 -13110)" fill="#515151"/><path d="M159.291,241.521h.474v.073h-.474v.485h.5v.076h-.574V241h.568v.073h-.494Z" transform="translate(-3354 -13110)" fill="#515151"/><path d="M160.661,242.156v-.068h.183v-1.022h-.171V241h.421v.066h-.174v1.022h.184v.068Z" transform="translate(-3354 -13110)" fill="#515151"/><path d="M161.733,242.156h-.076V241h.03l.669.97-.007-.416V241h.076v1.158H162.4l-.672-.969.005.388Z" transform="translate(-3354 -13110)" fill="#515151"/><path d="M163.655,241h.083v.012l-.36.663v.481h-.08v-.481l-.361-.665V241h.084l.157.294.158.3h0l.16-.3Z" transform="translate(-3354 -13110)" fill="#515151"/><path d="M164.324,241.521h.474v.073h-.474v.485h.5v.076h-.574V241h.568v.073h-.494Z" transform="translate(-3354 -13110)" fill="#515151"/><path d="M165.852,240.983a.415.415,0,0,1,.431.335h-.074a.349.349,0,0,0-.359-.264c-.272,0-.416.223-.416.524,0,.317.144.52.418.52a.348.348,0,0,0,.363-.286h.075a.433.433,0,0,1-.438.36c-.309,0-.494-.228-.494-.594s.195-.6.494-.6" transform="translate(-3354 -13110)" fill="#515151"/><path d="M167.293,240.983a.415.415,0,0,1,.431.335h-.074a.349.349,0,0,0-.359-.264c-.272,0-.416.223-.416.524,0,.317.144.52.418.52a.348.348,0,0,0,.363-.286h.075a.433.433,0,0,1-.438.36c-.309,0-.494-.228-.494-.594s.2-.6.494-.6" transform="translate(-3354 -13110)" fill="#515151"/><path d="M168.207,242.156v-.068h.183v-1.022h-.171V241h.421v.066h-.174v1.022h.184v.068Z" transform="translate(-3354 -13110)" fill="#515151"/><path d="M169.637,242.172c-.282,0-.495-.218-.495-.6s.216-.594.495-.594.5.218.5.594-.205.6-.5.6m0-.076c.243,0,.421-.182.421-.519s-.173-.518-.419-.518-.42.2-.42.518.177.519.418.519m.086-1.417.063.033-.119.177H169.6v-.005Z" transform="translate(-3354 -13110)" fill="#515151"/><path d="M170.8,242.156h-.076V241h.03l.669.97-.007-.416V241h.076v1.158h-.025l-.672-.969.005.388Z" transform="translate(-3354 -13110)" fill="#515151"/><path d="M172.844,241c.3,0,.476.236.476.578s-.181.578-.476.578h-.339V241Zm0,1.08c.243,0,.4-.195.4-.5s-.158-.506-.4-.506h-.263v1.006Z" transform="translate(-3354 -13110)" fill="#515151"/><path d="M173.982,241.521h.474v.073h-.474v.485h.5v.076h-.574V241h.568v.073h-.494Z" transform="translate(-3354 -13110)" fill="#515151"/><path d="M175.825,241a.338.338,0,0,1,.345.384.343.343,0,0,1-.345.381h-.3v.391h-.076V241Zm0,.689c.147,0,.268-.094.268-.307s-.116-.309-.268-.309h-.3v.616Z" transform="translate(-3354 -13110)" fill="#515151"/><path d="M177.256,242.156h-.563V241h.076v1.083h.487Z" transform="translate(-3354 -13110)" fill="#515151"/><path d="M177.582,242.156v-.01l.461-1.15h.035l.456,1.15v.01h-.081l-.131-.334H177.8l-.131.334Zm.478-1.023-.238.616h.474Zm.074-.452.066.033v.008l-.117.18h-.066v0Z" transform="translate(-3354 -13110)" fill="#515151"/><path d="M179.034,241.853c.01.2.188.246.32.246a.272.272,0,0,0,.3-.254c0-.2-.16-.223-.311-.25-.18-.026-.361-.069-.361-.3a.365.365,0,0,1,.721-.012h-.074c-.011-.183-.17-.228-.29-.228s-.28.06-.28.238c0,.2.17.213.3.231.19.032.378.081.375.322a.34.34,0,0,1-.377.326c-.18,0-.388-.075-.4-.319Z" transform="translate(-3354 -13110)" fill="#515151"/><path d="M180.868,241v.071h-.319v1.085h-.077V241.07h-.319V241Z" transform="translate(-3354 -13110)" fill="#515151"/><path d="M181.259,242.156v-.068h.183v-1.022h-.171V241h.421v.066h-.174v1.022h.184v.068Z" transform="translate(-3354 -13110)" fill="#515151"/><path d="M182.688,240.983a.414.414,0,0,1,.43.335h-.074a.349.349,0,0,0-.359-.264c-.272,0-.416.223-.416.524,0,.317.144.52.419.52a.348.348,0,0,0,.362-.286h.075a.433.433,0,0,1-.437.36c-.31,0-.5-.228-.5-.594s.2-.6.5-.6" transform="translate(-3354 -13110)" fill="#515151"/><path d="M184.13,242.172c-.282,0-.5-.218-.5-.594s.216-.6.5-.6.5.218.5.6-.205.594-.5.594m0-.076c.243,0,.421-.182.421-.518s-.173-.519-.419-.519-.42.2-.42.519.177.518.418.518" transform="translate(-3354 -13110)" fill="#515151"/></g></svg>