<svg xmlns="http://www.w3.org/2000/svg" width="61.681" height="35.969" viewBox="0 0 61.681 35.969"><g transform="translate(3081.107 12906.898)"><path d="M303.734,238.387c-16.628,0-30.155-7.762-30.155-17.3s13.527-17.3,30.155-17.3,30.155,7.761,30.155,17.3-13.527,17.3-30.155,17.3" transform="translate(-3354 -13110)" fill="#fff"/><path d="M303.734,203.971c16.552,0,29.969,7.663,29.969,17.115S320.286,238.2,303.734,238.2s-29.97-7.662-29.97-17.114,13.418-17.115,29.97-17.115m0-.37c-16.729,0-30.34,7.844-30.34,17.485s13.611,17.485,30.34,17.485,30.34-7.844,30.34-17.485S320.463,203.6,303.734,203.6" transform="translate(-3354 -13110)" fill="none" stroke="#515151" stroke-width="1"/><path d="M332.408,221.086c0-8.7-12.855-15.748-28.713-15.748s-28.714,7.051-28.714,15.748,12.856,15.748,28.714,15.748,28.713-7.051,28.713-15.748" transform="translate(-3354 -13110)" fill="#fff"/><path d="M332.408,221.086c0-8.7-12.855-15.748-28.713-15.748s-28.714,7.051-28.714,15.748,12.856,15.748,28.714,15.748S332.408,229.783,332.408,221.086Z" transform="translate(-3354 -13110)" fill="none" stroke="#a8a8a8" stroke-miterlimit="10" stroke-width="0.216"/><path d="M289.669,220.86a3.974,3.974,0,0,1-.114-6.967l.726,1.121a3.082,3.082,0,0,0-.612.529,6.439,6.439,0,0,0,5.583,2.057c.084-.015.012-.171.012-.258a2.892,2.892,0,0,0-2.028-2.682l1.283-.864a3.976,3.976,0,0,1,.183,6.983l-.645-1.177c.187-.134.727-.511.508-.456-2.573.64-5.592-1.8-5.592-1.8a2.837,2.837,0,0,0,1.61,2.5Z" transform="translate(-3354 -13110)" fill="#515151"/><path d="M317.194,219.6a2.783,2.783,0,0,0,1.208-2.26,2.828,2.828,0,0,0-1.517-2.455l.309-1.319a4.162,4.162,0,0,1,2.631,3.774,4.588,4.588,0,0,1-9.137,0,4.15,4.15,0,0,1,2.543-3.736l.206,1.4a2.8,2.8,0,0,0-1.326,2.34,3.016,3.016,0,0,0,3.145,2.869,3.325,3.325,0,0,0,1.938-.609" transform="translate(-3354 -13110)" fill="#515151"/><path d="M326.868,219.481a3.325,3.325,0,0,1-1.938.609,3.212,3.212,0,0,1-2.706-1.406l-1.2.7a4.672,4.672,0,0,0,3.9,2,4.382,4.382,0,0,0,4.569-4.167,10.559,10.559,0,0,0-7.579-.834,3.125,3.125,0,0,1,3.01-2.035,3.174,3.174,0,0,1,2.872,1.7l.916-1.157a4.694,4.694,0,0,0-3.788-1.837,4.381,4.381,0,0,0-4.568,4.166,3.839,3.839,0,0,0,.234,1.322c2.561-1.95,7.394-.655,7.394-.655a2.859,2.859,0,0,1-1.122,1.593" transform="translate(-3354 -13110)" fill="#515151"/><path d="M282.394,213.176a4.382,4.382,0,0,0-4.568,4.167,4.06,4.06,0,0,0,1.864,3.359l.726-1.128a2.915,2.915,0,0,1-.957-1.2,5.773,5.773,0,0,1,5.873-.005,2.916,2.916,0,0,1-1,1.232l.8,1.079a4.052,4.052,0,0,0,1.836-3.339,4.382,4.382,0,0,0-4.569-4.167m-3.145,4.167a3.159,3.159,0,0,1,6.291,0,5.822,5.822,0,0,0-6.291,0" transform="translate(-3354 -13110)" fill="#515151"/><path d="M299.974,214.132a2.449,2.449,0,0,1-1.27-.609c.1-.118.2-.234.3-.346a7,7,0,0,1,5.1-2.153,7.164,7.164,0,0,1,2.842.581l-.671,1.15a5.707,5.707,0,0,0-2.171-.424,5.584,5.584,0,0,0-3.747,1.413,5.265,5.265,0,0,0-.388.388" transform="translate(-3354 -13110)" fill="#515151"/><path d="M309.4,220.73v3.5h-1.245l-.012-1.738a7.094,7.094,0,0,1-4.032,1.237,6.586,6.586,0,0,1-6.8-6.351,6,6,0,0,1,.854-3.084c.094-.156.193-.308.3-.456a.175.175,0,0,0,.035.06,2.154,2.154,0,0,0,1.144.644,4.89,4.89,0,0,0-.389.624,4.76,4.76,0,0,0-.256,3.845,5.038,5.038,0,0,0,1.56,2.167,5.67,5.67,0,0,0,7.581-.445Z" transform="translate(-3354 -13110)" fill="#515151"/><path d="M304.09,219.471a3.63,3.63,0,0,0,1.334-.07.608.608,0,0,1,.724.418l.031.1,1.315-1.223a1.657,1.657,0,0,1,.859-.422l.343-.058a.269.269,0,0,0,.226-.267v-.773h.475v.741a.748.748,0,0,1-.345.63L307,219.865a.893.893,0,0,0-.41.751v.1a.33.33,0,0,1-.385.327c-.656-.109-1.938-.462-2.117-1.568" transform="translate(-3354 -13110)" fill="#515151"/><path d="M310.933,216.5l-.914.806a.444.444,0,0,0-.15.332v.328a.826.826,0,0,1-.381.7l-2.379,1.526a.577.577,0,0,0-.264.484v.642a1.139,1.139,0,0,0,.808-.508l-.009-.256a.255.255,0,0,1,.111-.219l2.128-1.454a1.3,1.3,0,0,0,.567-1.075.253.253,0,0,1,.173-.24l.392-.132Z" transform="translate(-3354 -13110)" fill="#515151"/><path d="M309.89,219.256a2.031,2.031,0,0,0,1-1.263l.291.74s-.407.8-.987.857-.3-.334-.3-.334" transform="translate(-3354 -13110)" fill="#515151"/><path d="M307.081,218.181l.023-.084a.266.266,0,0,1,.256-.2h.429a.168.168,0,0,1,.168.168v.123l-.3.013a.269.269,0,0,0-.255.241l-.165-.027a.191.191,0,0,1-.154-.239" transform="translate(-3354 -13110)" fill="#515151"/><path d="M308.986,213.267a.566.566,0,0,0-.484.562c0,.292-.062.561-.358.265a2.159,2.159,0,0,0-1.621-.525c-.527-.039-1.459-1.542-2.675-.671a5.174,5.174,0,0,1-2.623.9,2.378,2.378,0,0,1-.863-.053,5.15,5.15,0,0,1-1.354-.567c-.217-.123-.441-.264-.672-.421-.707-.48-.931-.242-1,0a.621.621,0,0,0,.054.455,5,5,0,0,0,.774,1.075,5.093,5.093,0,0,0,1.09.872,4.437,4.437,0,0,0,1.16.5l-.068,1.664a4.511,4.511,0,0,1,1.115-.15,2.844,2.844,0,0,1,1.073.193,2.1,2.1,0,0,1,.942.749c.379.537.256.917-.224.917h0c-.375-.043-.462-.455-.808-.627a3.069,3.069,0,0,0-1.372-.365,1.875,1.875,0,0,0-.761.152l-.016.407a1.983,1.983,0,0,0-1.3.4.955.955,0,0,0-.2,1.03,1.926,1.926,0,0,0,1.758,1.137,4.01,4.01,0,0,0,2.157-.889v.416c1.332.075,1.018-1.515,1.018-1.515a4.188,4.188,0,0,0,2.491-.488.58.58,0,0,0,.3-.493l.006-.281a.322.322,0,0,1,.307-.314l1.019-.047a.586.586,0,0,0,.558-.564l0-.059.331-.065a.608.608,0,0,0,.49-.539l.017-.179a3.318,3.318,0,0,0,3.152-2.734,8.061,8.061,0,0,0-3.419-.157m-9.342,1.271a2.145,2.145,0,0,1-1.144-.644.184.184,0,0,1-.027-.2l.08-.164a.083.083,0,0,1,.132-.024l.019.018a2.456,2.456,0,0,0,1.27.609,2.7,2.7,0,0,0,.669.023.147.147,0,0,1,.159.146v.079a.261.261,0,0,1-.26.261,3.878,3.878,0,0,1-.9-.1m.9,1.081a.888.888,0,0,1,.748.536s-.684.276-.748-.536m1.792,4.116-.179.031a.929.929,0,0,0-.543.307l-.026.03a.253.253,0,0,1-.371.014l-.043-.042a.574.574,0,0,1-.156-.538.734.734,0,0,1,.862-.625c.489.048.658.251.706.438a.312.312,0,0,1-.25.385m1.987-3.295s-.015-.9,1.076-.821c0,0,.015,1.284-1.076.821m4.99-2.613-.387,1.269a.313.313,0,0,0-.313.313v.462a.207.207,0,1,1-.413,0v-.908a.312.312,0,0,1,.313-.312h.1l.258-.894a.26.26,0,0,1,.251-.188.2.2,0,0,1,.2.2.206.206,0,0,1-.009.059m1.829-.152-.024.073a.165.165,0,0,1-.15.113l-.322.013a.515.515,0,0,0-.47.36l-.308.97a.22.22,0,0,1-.21.154h-.092a.125.125,0,0,1-.118-.165l.424-1.272a.514.514,0,0,1,.489-.352h.7a.081.081,0,0,1,.077.106" transform="translate(-3354 -13110)" fill="#515151"/><path d="M303.58,222.4c-.337-.643.27-1.276.545-1.518a.306.306,0,0,0,.1-.275.278.278,0,0,0-.335-.227l-.007,0a.272.272,0,0,0-.19.16c-.149.367-.807,1.368-3.424.639-3.163-.882.483,1.037.483,1.037l2.6.908Z" transform="translate(-3354 -13110)" fill="#515151"/><path d="M300.336,217.62l-.011.275a2.212,2.212,0,0,1,.748-.127,3.377,3.377,0,0,1,1.5.394,1.367,1.367,0,0,1,.438.38c.118.141.179.2.264.218.092,0,.137-.026.145-.042s.019-.176-.165-.437a2.048,2.048,0,0,0-1.787-.824v0a4.281,4.281,0,0,0-1.127.163" transform="translate(-3354 -13110)" fill="#515151"/><path d="M282.151,230.977v-3.962h.6a2.6,2.6,0,0,1,.634.062.944.944,0,0,1,.4.208,1.066,1.066,0,0,1,.264.377,1.135,1.135,0,0,1,.1.462.936.936,0,0,1-.325.721.949.949,0,0,1,.5.377,1.116,1.116,0,0,1-.143,1.406,1.087,1.087,0,0,1-.444.275,2.615,2.615,0,0,1-.675.074Zm.6-2.261h.187a.691.691,0,0,0,.489-.147.572.572,0,0,0,.155-.435.546.546,0,0,0-.159-.425.666.666,0,0,0-.462-.145h-.21Zm0,1.7h.369a.919.919,0,0,0,.6-.159.576.576,0,0,0,.007-.867.993.993,0,0,0-.669-.172h-.3Z" transform="translate(-3354 -13110)" fill="#515151"/><path d="M285.856,227.015V229.4a1.314,1.314,0,0,0,.167.747.892.892,0,0,0,1.4,0,1.284,1.284,0,0,0,.167-.747v-2.386h.6v2.551a1.426,1.426,0,0,1-.39,1.031,1.508,1.508,0,0,1-2.153,0,1.426,1.426,0,0,1-.39-1.031v-2.551Z" transform="translate(-3354 -13110)" fill="#515151"/><path d="M290.233,227.577v3.4h-.6v-3.4h-.911v-.562h2.417v.562Z" transform="translate(-3354 -13110)" fill="#515151"/><path d="M294.462,227.228v.708a1.658,1.658,0,0,0-1.073-.433,1.368,1.368,0,0,0-1.029.438,1.482,1.482,0,0,0-.42,1.068,1.447,1.447,0,0,0,.42,1.052,1.394,1.394,0,0,0,1.032.428,1.272,1.272,0,0,0,.536-.1,1.675,1.675,0,0,0,.256-.139,2.944,2.944,0,0,0,.278-.21v.721a2.162,2.162,0,0,1-1.078.29,1.987,1.987,0,0,1-1.449-.593,1.964,1.964,0,0,1-.6-1.442,2.037,2.037,0,0,1,.5-1.35,1.993,1.993,0,0,1,1.593-.726,2.027,2.027,0,0,1,1.032.29" transform="translate(-3354 -13110)" fill="#515151"/><path d="M295.925,228.565h1.709v-1.55h.6v3.962h-.6v-1.85h-1.709v1.85h-.6v-3.962h.6Z" transform="translate(-3354 -13110)" fill="#515151"/><path d="M301.367,227.577h-1.588v.952h1.542v.562h-1.542v1.324h1.588v.562h-2.186v-3.962h2.186Z" transform="translate(-3354 -13110)" fill="#515151"/><path d="M303.494,229.288l1.227,1.689h-.732l-1.131-1.622h-.108v1.622h-.6v-3.962h.7a1.749,1.749,0,0,1,1.134.295,1.086,1.086,0,0,1,.385.867,1.126,1.126,0,0,1-.242.724,1.067,1.067,0,0,1-.636.387m-.744-.454h.19q.849,0,.849-.649,0-.609-.826-.608h-.213Z" transform="translate(-3354 -13110)" fill="#515151"/><path d="M308.661,228.664h1.673v-1.518h.586v3.88h-.586v-1.812h-1.673v1.812h-.586v-3.88h.586Z" transform="translate(-3354 -13110)" fill="#515151"/><path d="M311.657,229.068a1.9,1.9,0,0,1,.6-1.407,1.977,1.977,0,0,1,1.437-.588,2.028,2.028,0,0,1,2.018,2.018,1.908,1.908,0,0,1-.6,1.42,2.051,2.051,0,0,1-2.8.065,1.9,1.9,0,0,1-.658-1.508m.59.008a1.4,1.4,0,0,0,.432,1.058,1.433,1.433,0,0,0,2.023-.008,1.5,1.5,0,0,0,.005-2.08,1.447,1.447,0,0,0-2.043,0,1.4,1.4,0,0,0-.417,1.03" transform="translate(-3354 -13110)" fill="#515151"/><path d="M317.034,227.146v2.337a1.286,1.286,0,0,0,.163.731.875.875,0,0,0,1.375,0,1.264,1.264,0,0,0,.163-.731v-2.337h.586v2.5a1.437,1.437,0,1,1-2.873,0v-2.5Z" transform="translate(-3354 -13110)" fill="#515151"/><path d="M322.444,227.724l-.475.281a.812.812,0,0,0-.254-.3.589.589,0,0,0-.324-.081.6.6,0,0,0-.4.139.425.425,0,0,0-.161.341c0,.19.14.342.422.458l.387.158a1.654,1.654,0,0,1,.691.466,1.051,1.051,0,0,1,.218.675,1.182,1.182,0,0,1-.356.884,1.224,1.224,0,0,1-.892.352,1.193,1.193,0,0,1-.835-.3,1.373,1.373,0,0,1-.4-.842l.593-.13a1.008,1.008,0,0,0,.141.472.606.606,0,0,0,.527.251.614.614,0,0,0,.455-.183.632.632,0,0,0,.181-.465.651.651,0,0,0-.031-.207.538.538,0,0,0-.1-.174.808.808,0,0,0-.173-.148,1.663,1.663,0,0,0-.251-.132l-.374-.156a1.077,1.077,0,0,1-.8-.985.937.937,0,0,1,.334-.731,1.211,1.211,0,0,1,.832-.3,1.16,1.16,0,0,1,1.048.653" transform="translate(-3354 -13110)" fill="#515151"/><path d="M325.391,227.7h-1.555v.932h1.51v.551h-1.51v1.3h1.555v.55H323.25v-3.879h2.141Z" transform="translate(-3354 -13110)" fill="#515151"/></g></svg>