<svg xmlns="http://www.w3.org/2000/svg" width="70.992" height="36.955" viewBox="0 0 70.992 36.955"><g transform="translate(2945.792 12907.391)"><path d="M443.7,233.921a15.189,15.189,0,0,1-12.867-6.8,3.463,3.463,0,0,1-4.3-.3,2.392,2.392,0,0,1-2.428,1.756,2.456,2.456,0,0,1-2.069-.7,4.251,4.251,0,0,1-.7-3.126l.015-.1,1.151.024,0,.107a1.273,1.273,0,0,0,.588,1.227.89.89,0,0,0,.873-.08c.348-.278.543-.893-.055-1.71-.558-.763-2.514-1.15-4.114-.486a3.451,3.451,0,0,0-1.853,2.137,3.1,3.1,0,0,0,.4,2.7c1.272,1.926,3.855.82,3.88.809l.082-.036.453.618-.031.061c-.012.024-1.267,2.392-4.84,1.133a4.044,4.044,0,0,1-2.749-2.894,5.3,5.3,0,0,1,1.463-4.738c2.216-2.282,6.143-1.45,8.286-.751a2.837,2.837,0,0,0,2.15.069,1.106,1.106,0,0,0,.408-1.618,1.286,1.286,0,0,0-.957-.566c-.648-.091-.95.3-1.3.741a3.693,3.693,0,0,1-.526.581.687.687,0,0,1-.637.205.678.678,0,0,1-.389-.429,3.217,3.217,0,0,1,2.2-2.989,11.649,11.649,0,0,1-1.229-2.268l-8.343,2.289a14.34,14.34,0,0,1-4.932.208c-1.773-.308-2.753-1.018-2.835-2.052a1.72,1.72,0,0,1,.5-1.516,2.941,2.941,0,0,1,2.257-.384l.111.024-.025.111a1.649,1.649,0,0,0,.37,1.707c1.459,1.311,6.037.122,7.863-.425a13.4,13.4,0,0,1-8.941-3.423,6.927,6.927,0,0,1-2.434-4.915,3.23,3.23,0,0,1,1.133-2.8,4.27,4.27,0,0,1,3.426-.276l.13.044-.069.118c-.02.034-1.916,3.352-.324,6.1,1.45,2.5,5.244,3.768,11.277,3.768h.194c-.165-.378-.332-.765-.5-1.151a46.859,46.859,0,0,0-2.03-4.346,2,2,0,0,0-2.253-1.132,1.438,1.438,0,0,0-.981,1.538,2.852,2.852,0,0,0,1.981,2.312l.272.083-.256.125a2.891,2.891,0,0,1-2.736.034,2.356,2.356,0,0,1-1.219-1.737,2.949,2.949,0,0,1,.863-2.288c.612-.618,1.832-1.307,4.152-1.11,3.958.342,5.853,6.9,6.079,7.743l2.062.144a15.4,15.4,0,0,1,28.587,0l2.065-.145c.226-.839,2.121-7.4,6.078-7.743,2.327-.2,3.542.493,4.154,1.112a2.944,2.944,0,0,1,.862,2.286,2.356,2.356,0,0,1-1.219,1.737,2.888,2.888,0,0,1-2.736-.034l-.255-.125.271-.082a2.863,2.863,0,0,0,1.981-2.313,1.44,1.44,0,0,0-.982-1.538,1.994,1.994,0,0,0-2.253,1.132,47.413,47.413,0,0,0-2.04,4.369c-.164.379-.328.758-.489,1.128h.194c6.035,0,9.828-1.268,11.278-3.769,1.592-2.745-.3-6.06-.326-6.093l-.068-.119.13-.044a4.27,4.27,0,0,1,3.426.276,3.23,3.23,0,0,1,1.133,2.8,6.927,6.927,0,0,1-2.434,4.915,13.4,13.4,0,0,1-8.941,3.423c1.826.547,6.4,1.738,7.863.425a1.65,1.65,0,0,0,.37-1.707l-.025-.111.111-.024a2.942,2.942,0,0,1,2.257.384,1.723,1.723,0,0,1,.5,1.516c-.081,1.033-1.061,1.744-2.833,2.052a14.423,14.423,0,0,1-4.93-.207l-8.346-2.29a11.659,11.659,0,0,1-1.229,2.268c.555.227,2.309,1.093,2.207,2.963a.671.671,0,0,1-.394.455.691.691,0,0,1-.637-.205,3.661,3.661,0,0,1-.524-.579c-.347-.445-.641-.832-1.3-.743a1.286,1.286,0,0,0-.958.567,1.105,1.105,0,0,0,.408,1.616,2.842,2.842,0,0,0,2.152-.068c2.144-.7,6.072-1.529,8.284.751a5.291,5.291,0,0,1,1.464,4.738,4.04,4.04,0,0,1-2.749,2.894,4.382,4.382,0,0,1-3.768-.083,2.838,2.838,0,0,1-1.072-1.05l-.031-.061.452-.618.082.036c.108.046,2.611,1.114,3.881-.809a3.1,3.1,0,0,0,.4-2.7,3.45,3.45,0,0,0-1.854-2.137c-1.6-.666-3.556-.278-4.114.486-.6.817-.4,1.432-.055,1.71a.883.883,0,0,0,.875.079,1.27,1.27,0,0,0,.586-1.226l0-.107,1.152-.024.015.1a4.248,4.248,0,0,1-.7,3.126,2.453,2.453,0,0,1-2.069.7,2.389,2.389,0,0,1-2.427-1.756,3.466,3.466,0,0,1-4.308.3,15.185,15.185,0,0,1-12.865,6.8m-12.793-7.1.058.089a15.342,15.342,0,0,0,25.469,0l.058-.089.092.052c2.7,1.541,4.2-.276,4.264-.354l.151-.19.046.239a2.17,2.17,0,0,0,2.271,1.779,2.227,2.227,0,0,0,1.888-.625,3.944,3.944,0,0,0,.656-2.844l-.741.015a1.388,1.388,0,0,1-.711,1.318,1.1,1.1,0,0,1-1.108-.108c-.425-.34-.677-1.072.014-2.017s2.816-1.211,4.38-.559a3.634,3.634,0,0,1,1.982,2.277,3.372,3.372,0,0,1-.428,2.886c-1.24,1.872-3.6,1.1-4.073.922l-.266.363c.21.354,1.421,2.063,4.535.965a3.826,3.826,0,0,0,2.605-2.734,5.067,5.067,0,0,0-1.407-4.531c-2.128-2.2-5.961-1.377-8.054-.694a3.03,3.03,0,0,1-2.326.052,1.328,1.328,0,0,1-.491-1.936,1.505,1.505,0,0,1,1.115-.666c.775-.1,1.147.369,1.5.827a3.555,3.555,0,0,0,.491.546c.118.1.287.209.43.162.166-.049.239-.277.239-.28.106-2.007-2.2-2.766-2.221-2.773l-.193-.061.155-.131a10.475,10.475,0,0,0,1.337-2.406l.039-.087.092.026,8.434,2.314a14.146,14.146,0,0,0,4.835.2c1.159-.2,2.558-.687,2.649-1.851a1.508,1.508,0,0,0-.426-1.329,2.624,2.624,0,0,0-1.953-.354,1.807,1.807,0,0,1-.463,1.809c-1.924,1.733-8.566-.525-8.849-.621l-.777-.267.821.05a13.2,13.2,0,0,0,9.58-3.339,6.708,6.708,0,0,0,2.364-4.752,3.024,3.024,0,0,0-1.041-2.62,3.932,3.932,0,0,0-3.1-.283c.335.642,1.737,3.645.259,6.194-1.523,2.625-5.507,3.944-11.836,3.878l-.17,0,.068-.154c.184-.419.37-.851.557-1.283a47.517,47.517,0,0,1,2.053-4.4,2.207,2.207,0,0,1,2.511-1.23,1.656,1.656,0,0,1,1.139,1.765,2.949,2.949,0,0,1-1.882,2.412,2.6,2.6,0,0,0,2.289-.067,2.135,2.135,0,0,0,1.107-1.562,2.72,2.72,0,0,0-.8-2.109,4.852,4.852,0,0,0-3.976-1.046c-3.981.344-5.884,7.58-5.9,7.654l-.02.077-2.395.169-.028-.081a15.174,15.174,0,0,0-28.222,0l-.028.081-2.391-.169-.02-.077c-.018-.074-1.923-7.31-5.9-7.654a4.861,4.861,0,0,0-3.975,1.044,2.728,2.728,0,0,0-.8,2.111,2.135,2.135,0,0,0,1.107,1.562,2.605,2.605,0,0,0,2.289.067,2.946,2.946,0,0,1-1.882-2.412,1.656,1.656,0,0,1,1.138-1.765,2.206,2.206,0,0,1,2.511,1.23,46.958,46.958,0,0,1,2.043,4.372c.191.44.381.879.568,1.306l.068.154-.17,0-.363,0c-6.121,0-9.981-1.3-11.474-3.88-1.478-2.548-.075-5.552.259-6.194a3.945,3.945,0,0,0-3.1.283,3.028,3.028,0,0,0-1.04,2.62,6.708,6.708,0,0,0,2.364,4.752,13.2,13.2,0,0,0,9.58,3.339l.821-.05-.778.267c-.281.1-6.923,2.353-8.848.621a1.807,1.807,0,0,1-.463-1.809,2.625,2.625,0,0,0-1.953.354,1.509,1.509,0,0,0-.427,1.329c.092,1.164,1.492,1.649,2.651,1.851a14.133,14.133,0,0,0,4.836-.205l8.524-2.339.039.087a10.527,10.527,0,0,0,1.337,2.406l.155.13-.193.062c-.023.007-2.327.765-2.217,2.8,0,0,.077.208.236.255s.311-.065.428-.162a3.421,3.421,0,0,0,.492-.547,1.553,1.553,0,0,1,1.5-.826,1.5,1.5,0,0,1,1.115.666,1.327,1.327,0,0,1-.491,1.937,3.036,3.036,0,0,1-2.324-.053c-2.094-.684-5.925-1.5-8.055.694a5.063,5.063,0,0,0-1.406,4.531,3.823,3.823,0,0,0,2.6,2.734c3.085,1.087,4.324-.624,4.534-.966l-.265-.362c-.473.18-2.831.951-4.073-.922a3.372,3.372,0,0,1-.428-2.886,3.634,3.634,0,0,1,1.982-2.277c1.567-.652,3.693-.379,4.379.56s.44,1.677.014,2.016a1.108,1.108,0,0,1-1.107.109,1.392,1.392,0,0,1-.712-1.319l-.74-.015a3.942,3.942,0,0,0,.656,2.844,2.212,2.212,0,0,0,1.888.625,2.172,2.172,0,0,0,2.271-1.779l.046-.238.151.189c.062.078,1.563,1.891,4.262.355Zm-2.012-.314a3.246,3.246,0,0,1-2.989-1.965l-.085-.163h1.713l.027.014,3.014,1.73-.2.091a3.938,3.938,0,0,1-1.484.293m-2.7-1.9a3.074,3.074,0,0,0,3.883,1.493l-2.6-1.493Zm32.313,1.9a3.938,3.938,0,0,1-1.484-.293l-.2-.091,3.041-1.744h1.714l-.085.163a3.248,3.248,0,0,1-2.99,1.965m-1.18-.412a3.073,3.073,0,0,0,3.883-1.493H459.93Zm1.2-7.644-.369-2.21H459.9Zm-.1-1.987.227,1.366.85-1.366Zm-29.538,1.987-1.373-2.21h1.742Zm-.972-1.987.85,1.366.227-1.366Z" transform="translate(-3354 -13110)" fill="#515151"/><path d="M457.132,219.77c0,6.958-6.013,12.6-13.43,12.6s-13.43-5.641-13.43-12.6,6.013-12.6,13.43-12.6,13.43,5.641,13.43,12.6" transform="translate(-3354 -13110)" fill="#515151"/><path d="M445.261,239.564a.918.918,0,0,1-.461-.123l-1.011-.582-.026-.387c-.011.108-.019.221-.026.327l-.005.06-1.011.582a.966.966,0,0,1-1.019-.05c-3.448-2.3-9.3-1.827-12.477-1.34a13.718,13.718,0,0,0-2.673.707c-1.253.46-3.481.941-4.323-1.017-.445-1.033-.109-2.091,1-3.147l.11-.1.067.136c.262.457,1.751,2.668,5.121.982,3.606-1.805,11.08-2.464,15.234,1.023,4.155-3.488,11.629-2.828,15.234-1.023a4.09,4.09,0,0,0,3.778.276,3.353,3.353,0,0,0,1.346-1.263l.071-.123.1.1c1.108,1.057,1.444,2.115,1,3.147-.841,1.958-3.07,1.478-4.322,1.017a13.782,13.782,0,0,0-2.674-.707c-3.18-.488-9.029-.959-12.478,1.34a1.011,1.011,0,0,1-.557.173m-1.257-.84.908.523a.743.743,0,0,0,.782-.042c3.51-2.34,9.423-1.866,12.635-1.376a14.029,14.029,0,0,1,2.717.719c1.176.432,3.271.893,4.041-.9a2.457,2.457,0,0,0-.849-2.8c-.391.593-2.028,2.613-5.343.954-3.575-1.786-10.995-2.44-15.062,1.056l-.073.062-.072-.062c-4.068-3.5-11.488-2.844-15.063-1.056-3.316,1.662-4.959-.371-5.342-.954a2.452,2.452,0,0,0-.848,2.8c.768,1.789,2.861,1.328,4.04.9a14,14,0,0,1,2.716-.719c3.212-.49,9.125-.964,12.635,1.375a.739.739,0,0,0,.783.043l.909-.523c.069-1,.15-1,.251-1h0c.123,0,.164.089.212.7Zm-16.734-.847.58-.458a9.554,9.554,0,0,1,3.362-1.529,11.843,11.843,0,0,1,8.529,1.176l.736.384-.811-.176c-.069-.017-7.008-1.485-11.707.336Zm6.632-2.1a10.736,10.736,0,0,0-2.635.326,10.389,10.389,0,0,0-2.522,1c3.7-1.088,8.323-.506,10.161-.2a12.057,12.057,0,0,0-5-1.127m26.349,2.1-.689-.267c-4.7-1.82-11.638-.352-11.707-.336l-.811.176.736-.384a11.826,11.826,0,0,1,8.528-1.176,9.554,9.554,0,0,1,3.363,1.529Zm-6.547-1.4a18.309,18.309,0,0,1,5.071.632,10.446,10.446,0,0,0-2.531-1,11.44,11.44,0,0,0-7.63.8,32.265,32.265,0,0,1,5.09-.43" transform="translate(-3354 -13110)" fill="#515151"/><path d="M435.613,219.338l-.675.65a2.476,2.476,0,0,1-.176-.891,2.014,2.014,0,0,1,.924-1.72,4.751,4.751,0,0,1,2.65-.551c.212,0,.4,0,.559.013q.668.043.684.043h.3a4.458,4.458,0,0,0-.335,2.124l0,.223.017.494a7.975,7.975,0,0,0,.22,1.823,1.348,1.348,0,0,0,.168.463.341.341,0,0,0,.283.1,1.131,1.131,0,0,0,.5-.142.321.321,0,0,1,.031.12c0,.072-.056.134-.168.185l-.2.1-1.059.46a9.153,9.153,0,0,1-.425-2.279l-.327.228H437.14a2.835,2.835,0,0,1-1.084,1.436l.891.043-.465.491-1.716-.061.572-.516.43.026a1.743,1.743,0,0,0,.5-.6,14.007,14.007,0,0,0,.615-1.506l.129-.357a6.83,6.83,0,0,1,.753-1.571,2.713,2.713,0,0,1,.972-.81,7.845,7.845,0,0,0-1.424-.125q-1.905,0-1.9,1.287a1.71,1.71,0,0,0,.206.821m3.291.981q-.06-.747-.06-1.211c0-.158,0-.287.008-.387l.035-.5a5.632,5.632,0,0,1,.094-.782,3.809,3.809,0,0,0-1.385,2.105c-.1.306-.163.483-.18.528l-.1.245Z" transform="translate(-3354 -13110)" fill="#fff"/><path d="M445.6,221.162a.149.149,0,0,1,.1.138q0,.283-.521.748a2.924,2.924,0,0,1-2,.787,1.778,1.778,0,0,1-1.448-.656,2.69,2.69,0,0,1-.539-1.761,3.7,3.7,0,0,1,1.011-2.646,3.312,3.312,0,0,1,2.507-1.066,4.741,4.741,0,0,1,1.579.288l-.288.632-.082.185c-.069.146-.153.219-.254.219a.506.506,0,0,1-.09-.012.566.566,0,0,0,.06-.218c0-.192-.128-.359-.386-.5a1.812,1.812,0,0,0-.9-.215,2.078,2.078,0,0,0-1.708.83,3.37,3.37,0,0,0-.657,2.158,2.655,2.655,0,0,0,.461,1.637,1.465,1.465,0,0,0,1.232.61,2.136,2.136,0,0,0,1.109-.333,2.16,2.16,0,0,0,.816-.824" transform="translate(-3354 -13110)" fill="#fff"/><path d="M447.39,219.351l-.7.671a2.266,2.266,0,0,1-.1-.654,2.315,2.315,0,0,1,1-1.948,3.445,3.445,0,0,1,2.082-.542h1.42q.8,0,1.634-.061l-.348.885-.069.16c-.072.17-.164.254-.275.254a.465.465,0,0,1-.061,0,1.665,1.665,0,0,0,.048-.344.34.34,0,0,0-.3-.355,9.036,9.036,0,0,0-1.493-.071h-.418l-.231,2.086h.842a11.017,11.017,0,0,0,1.294-.068,1.351,1.351,0,0,1-.993.589c-.186,0-.451-.014-.793-.043-.141-.009-.24-.013-.3-.013h-.1l-.041.373a3.246,3.246,0,0,1-.286,1.157,2.156,2.156,0,0,1-.768.69l.942.073.383.034q.406.03.97.03a2.19,2.19,0,0,0,1.586-.611.241.241,0,0,1,.073.155c0,.081-.153.245-.46.495a2.273,2.273,0,0,1-1.467.546q-.735,0-2.116-.126l-1.605-.148-.58-.035.786-.594q.426.073,1.023.129a.988.988,0,0,0,.568-.464,4.313,4.313,0,0,0,.245-1.209l.337-3.046h-.15a2.184,2.184,0,0,0-1.3.342,1.1,1.1,0,0,0-.473.944,1.541,1.541,0,0,0,.2.723" transform="translate(-3354 -13110)" fill="#fff"/><path d="M431.554,208.22a.147.147,0,0,1,.04.029.029.029,0,0,1,.01.027.09.09,0,0,1-.026.037c-.013.014-.033.031-.058.053l-.061.049a.235.235,0,0,1-.038.022.05.05,0,0,1-.025.006l-.023-.007c-.162-.083-.245-.124-.409-.205-.265.23-.395.348-.65.592.065.169.1.253.165.42a.106.106,0,0,1,0,.024.061.061,0,0,1-.006.027.118.118,0,0,1-.024.036c-.012.014-.029.032-.05.053a.6.6,0,0,1-.058.052.086.086,0,0,1-.038.021.037.037,0,0,1-.027-.012.134.134,0,0,1-.025-.043c-.255-.654-.373-.987-.589-1.665a.079.079,0,0,1,0-.03.1.1,0,0,1,.015-.034.3.3,0,0,1,.037-.044c.016-.016.035-.035.062-.059s.05-.044.069-.06a.414.414,0,0,1,.048-.034.086.086,0,0,1,.038-.013.114.114,0,0,1,.03.007c.654.28.972.431,1.593.751m-1.624-.469,0,0c.119.358.181.536.311.888.216-.2.326-.3.548-.5-.338-.162-.51-.24-.857-.391" transform="translate(-3354 -13110)" fill="#515151"/><path d="M431.821,206.649c.011.015.021.031.027.041a.1.1,0,0,1,.013.029.041.041,0,0,1,0,.022.031.031,0,0,1-.014.017.127.127,0,0,1-.029.015l-.042.015-.049.022a.456.456,0,0,0-.055.034.254.254,0,0,0-.057.061.327.327,0,0,0-.04.086.515.515,0,0,0-.022.12,1.54,1.54,0,0,0-.007.163l.485.626a.024.024,0,0,1,.005.018.043.043,0,0,1-.008.022.163.163,0,0,1-.027.032c-.012.011-.027.025-.048.041a.6.6,0,0,1-.052.037.21.21,0,0,1-.035.019.042.042,0,0,1-.024,0,.023.023,0,0,1-.016-.01c-.3-.376-.45-.565-.751-.941a.031.031,0,0,1-.008-.018.045.045,0,0,1,.009-.023.088.088,0,0,1,.024-.03.485.485,0,0,1,.048-.041.5.5,0,0,1,.05-.036.107.107,0,0,1,.034-.017.074.074,0,0,1,.024,0,.05.05,0,0,1,.014.012l.108.139a1,1,0,0,1,.021-.165.585.585,0,0,1,.037-.12.4.4,0,0,1,.055-.087.484.484,0,0,1,.071-.065l.041-.029.05-.027a.431.431,0,0,1,.051-.023.228.228,0,0,1,.036-.01.082.082,0,0,1,.018,0l.014.008a.179.179,0,0,1,.018.022c.007.009.019.021.031.038" transform="translate(-3354 -13110)" fill="#515151"/><path d="M433.276,206.9a.229.229,0,0,1,.027.056.086.086,0,0,1,0,.038.124.124,0,0,1-.02.037.376.376,0,0,1-.039.044c-.016.016-.033.03-.05.045a.633.633,0,0,1-.058.044.658.658,0,0,1-.168.084.328.328,0,0,1-.148.01.3.3,0,0,1-.131-.064.582.582,0,0,1-.122-.135l-.4-.578-.17.121a.046.046,0,0,1-.045.007.134.134,0,0,1-.051-.049.224.224,0,0,1-.024-.036.149.149,0,0,1-.008-.03.048.048,0,0,1,.007-.024.053.053,0,0,1,.016-.018l.17-.121c-.065-.094-.1-.141-.164-.234a.025.025,0,0,1-.006-.017.04.04,0,0,1,.01-.024.182.182,0,0,1,.031-.033c.013-.011.031-.024.053-.039a.5.5,0,0,1,.059-.038.157.157,0,0,1,.04-.017.045.045,0,0,1,.026,0,.023.023,0,0,1,.015.01l.161.237c.127-.086.19-.129.318-.212a.055.055,0,0,1,.023-.009.039.039,0,0,1,.023,0,.084.084,0,0,1,.024.019.159.159,0,0,1,.027.033.133.133,0,0,1,.026.067.05.05,0,0,1-.023.04c-.127.082-.19.124-.315.21l.377.556a.356.356,0,0,0,.141.132.178.178,0,0,0,.165-.034.421.421,0,0,0,.049-.04l.035-.039.025-.03a.058.058,0,0,1,.02-.021l.014,0a.023.023,0,0,1,.017,0,.122.122,0,0,1,.019.017.328.328,0,0,1,.025.032" transform="translate(-3354 -13110)" fill="#515151"/><path d="M434.292,205.646a.087.087,0,0,1,.008.08.119.119,0,0,1-.051.053c-.33.18-.493.274-.815.472a.616.616,0,0,0,.116.141.334.334,0,0,0,.137.077.365.365,0,0,0,.168,0,.66.66,0,0,0,.2-.082,1.073,1.073,0,0,0,.147-.1.975.975,0,0,0,.1-.094.931.931,0,0,0,.066-.072.193.193,0,0,1,.042-.039.037.037,0,0,1,.02-.005.05.05,0,0,1,.017.007.069.069,0,0,1,.02.019.23.23,0,0,1,.021.034.212.212,0,0,1,.013.028l.007.022a.062.062,0,0,1,0,.019.067.067,0,0,1-.005.019.332.332,0,0,1-.032.046.95.95,0,0,1-.079.081c-.033.031-.072.064-.118.1a1.622,1.622,0,0,1-.156.1,1.037,1.037,0,0,1-.278.117.575.575,0,0,1-.25.008.521.521,0,0,1-.222-.1.835.835,0,0,1-.192-.219.788.788,0,0,1-.107-.261.566.566,0,0,1,.008-.253.6.6,0,0,1,.122-.23.856.856,0,0,1,.23-.19.843.843,0,0,1,.28-.109.554.554,0,0,1,.235.011.468.468,0,0,1,.187.1.673.673,0,0,1,.136.177.406.406,0,0,0,.019.036m-.263.069a.35.35,0,0,0-.216-.192.385.385,0,0,0-.3.06.468.468,0,0,0-.137.116.374.374,0,0,0-.065.135.352.352,0,0,0-.006.141.391.391,0,0,0,.047.137c.269-.165.4-.244.679-.4" transform="translate(-3354 -13110)" fill="#515151"/><path d="M435.172,205.752c.012.024.022.049.03.07a.339.339,0,0,1,.014.066.3.3,0,0,1,0,.067c0,.023-.007.049-.011.076-.025.136-.037.2-.06.34l-.009.022a.21.21,0,0,1-.015.021.138.138,0,0,1-.026.022.3.3,0,0,1-.041.023l-.039.019a.076.076,0,0,1-.025.005.014.014,0,0,1-.013-.008.022.022,0,0,1,0-.019c0-.167.005-.251.01-.419l-.077-.153a.157.157,0,0,1-.019-.055.053.053,0,0,1,.009-.04.123.123,0,0,1,.034-.035.567.567,0,0,1,.06-.035.4.4,0,0,1,.062-.025.124.124,0,0,1,.048-.008.064.064,0,0,1,.037.018.187.187,0,0,1,.033.048" transform="translate(-3354 -13110)" fill="#515151"/><path d="M437.476,204.751a.3.3,0,0,1,.01.036.149.149,0,0,1,0,.029l0,.023a.1.1,0,0,1-.012.028.414.414,0,0,1-.049.06.851.851,0,0,1-.1.089,1.432,1.432,0,0,1-.141.1,1.079,1.079,0,0,1-.184.086,1.055,1.055,0,0,1-.343.07.734.734,0,0,1-.3-.057.784.784,0,0,1-.262-.186,1.1,1.1,0,0,1-.2-.319,1.055,1.055,0,0,1-.089-.381.771.771,0,0,1,.277-.611,1.095,1.095,0,0,1,.51-.24,1.133,1.133,0,0,1,.164-.021.787.787,0,0,1,.14,0,.328.328,0,0,1,.09.018.324.324,0,0,1,.037.016.073.073,0,0,1,.017.018l.016.026a.225.225,0,0,1,.015.04.177.177,0,0,1,.011.044c0,.011,0,.023,0,.032a.058.058,0,0,1-.009.022.037.037,0,0,1-.02.014.141.141,0,0,1-.068-.005,1.043,1.043,0,0,0-.119-.02,1.009,1.009,0,0,0-.168,0,.845.845,0,0,0-.217.052.672.672,0,0,0-.226.133.522.522,0,0,0-.135.2.629.629,0,0,0-.037.25.874.874,0,0,0,.07.29.968.968,0,0,0,.148.255.616.616,0,0,0,.187.153.511.511,0,0,0,.223.052.708.708,0,0,0,.25-.048.734.734,0,0,0,.184-.093.938.938,0,0,0,.124-.1q.05-.051.078-.087a.134.134,0,0,1,.053-.044.042.042,0,0,1,.018,0,.032.032,0,0,1,.017.011.114.114,0,0,1,.017.028.433.433,0,0,1,.018.047" transform="translate(-3354 -13110)" fill="#515151"/><path d="M438.96,204.543a.022.022,0,0,1,0,.018.034.034,0,0,1-.015.017.1.1,0,0,1-.033.016.427.427,0,0,1-.05.016.419.419,0,0,1-.056.011.134.134,0,0,1-.034,0,.031.031,0,0,1-.02-.008.038.038,0,0,1-.011-.016l-.04-.154a.886.886,0,0,1-.178.219.582.582,0,0,1-.207.112.6.6,0,0,1-.23.025.419.419,0,0,1-.174-.061.437.437,0,0,1-.128-.129.832.832,0,0,1-.091-.2l-.22-.7a.025.025,0,0,1,0-.019.058.058,0,0,1,.016-.019.14.14,0,0,1,.037-.02c.016-.006.038-.014.062-.021a.553.553,0,0,1,.063-.017.12.12,0,0,1,.04,0,.076.076,0,0,1,.026.006.025.025,0,0,1,.011.016c.081.269.122.4.2.672a.7.7,0,0,0,.064.157.284.284,0,0,0,.083.089.24.24,0,0,0,.107.041.3.3,0,0,0,.128-.011.36.36,0,0,0,.166-.107,1.029,1.029,0,0,0,.148-.218l-.213-.815a.031.031,0,0,1,0-.019.067.067,0,0,1,.017-.018.129.129,0,0,1,.039-.018.609.609,0,0,1,.062-.019.537.537,0,0,1,.061-.012.138.138,0,0,1,.043,0,.087.087,0,0,1,.023.008.026.026,0,0,1,.011.016c.116.468.174.7.289,1.17" transform="translate(-3354 -13110)" fill="#515151"/><path d="M439.65,204.387a.033.033,0,0,1,0,.018.04.04,0,0,1-.017.018.249.249,0,0,1-.034.015c-.015,0-.036.01-.061.015s-.042.008-.058.01a.125.125,0,0,1-.039,0,.044.044,0,0,1-.023-.008.024.024,0,0,1-.007-.017c-.154-.7-.231-1.048-.387-1.746,0-.007,0-.012,0-.018a.046.046,0,0,1,.018-.019.142.142,0,0,1,.042-.016.288.288,0,0,1,.061-.017.516.516,0,0,1,.068-.011.167.167,0,0,1,.043,0,.054.054,0,0,1,.023.01.034.034,0,0,1,.01.016c.146.7.218,1.052.364,1.752" transform="translate(-3354 -13110)" fill="#515151"/><path d="M440.779,204.1a.233.233,0,0,1,0,.062.063.063,0,0,1-.013.035.091.091,0,0,1-.034.026.306.306,0,0,1-.051.023c-.019.007-.04.013-.062.019a.456.456,0,0,1-.067.015.558.558,0,0,1-.181,0,.293.293,0,0,1-.134-.053.29.29,0,0,1-.092-.114.662.662,0,0,1-.053-.174c-.049-.278-.074-.416-.123-.694l-.2.036a.046.046,0,0,1-.04-.013.127.127,0,0,1-.028-.066.386.386,0,0,1,0-.043.116.116,0,0,1,.005-.03.035.035,0,0,1,.014-.019.045.045,0,0,1,.021-.009l.2-.036-.05-.282a.036.036,0,0,1,0-.018.043.043,0,0,1,.018-.018.137.137,0,0,1,.038-.015.549.549,0,0,1,.065-.014c.027,0,.048-.007.065-.008a.145.145,0,0,1,.043,0,.066.066,0,0,1,.024.011.023.023,0,0,1,.008.016c.019.113.029.169.047.282.146-.023.219-.035.365-.056a.069.069,0,0,1,.021,0,.039.039,0,0,1,.021.013.076.076,0,0,1,.014.027.208.208,0,0,1,.008.042.129.129,0,0,1,0,.071.043.043,0,0,1-.034.026c-.144.021-.217.033-.361.056.044.265.066.4.109.663a.352.352,0,0,0,.072.179.165.165,0,0,0,.156.04.259.259,0,0,0,.061-.015c.016-.006.032-.014.045-.02l.035-.018a.069.069,0,0,1,.025-.009.026.026,0,0,1,.015,0,.018.018,0,0,1,.012.011.091.091,0,0,1,.011.024.19.19,0,0,1,.008.039" transform="translate(-3354 -13110)" fill="#515151"/><path d="M442.262,204.039c0,.007,0,.013,0,.018a.039.039,0,0,1-.018.014.137.137,0,0,1-.035.01.311.311,0,0,1-.052.006.361.361,0,0,1-.056,0,.1.1,0,0,1-.034-.005.036.036,0,0,1-.019-.012.054.054,0,0,1-.007-.017c0-.064-.007-.1-.011-.159a.871.871,0,0,1-.214.183.525.525,0,0,1-.222.073.569.569,0,0,1-.228-.016.423.423,0,0,1-.161-.091.446.446,0,0,1-.1-.15.86.86,0,0,1-.053-.217c-.036-.29-.054-.436-.091-.726a.026.026,0,0,1,0-.019.044.044,0,0,1,.019-.015.124.124,0,0,1,.04-.013.581.581,0,0,1,.064-.01.56.56,0,0,1,.064,0,.127.127,0,0,1,.041,0,.077.077,0,0,1,.024.011.023.023,0,0,1,.008.017c.031.279.047.418.078.7a.685.685,0,0,0,.035.167.284.284,0,0,0,.065.1.225.225,0,0,0,.1.06.3.3,0,0,0,.128.012.349.349,0,0,0,.18-.075,1,1,0,0,0,.184-.188c-.025-.336-.038-.5-.064-.84a.027.027,0,0,1,0-.018.058.058,0,0,1,.02-.015.127.127,0,0,1,.041-.011.625.625,0,0,1,.064-.007.456.456,0,0,1,.063,0,.114.114,0,0,1,.041.005.089.089,0,0,1,.022.011.024.024,0,0,1,.007.018c.031.481.045.722.075,1.2" transform="translate(-3354 -13110)" fill="#515151"/><path d="M443.511,202.878c0,.019,0,.037,0,.049a.132.132,0,0,1-.007.031.038.038,0,0,1-.012.018l-.01.006a.11.11,0,0,1-.039-.006l-.042-.013-.051-.011a.294.294,0,0,0-.062,0,.214.214,0,0,0-.076.015.3.3,0,0,0-.08.044.608.608,0,0,0-.086.084,1.479,1.479,0,0,0-.1.127c.007.317.011.475.018.792a.02.02,0,0,1-.005.017.041.041,0,0,1-.019.014.124.124,0,0,1-.037.009.481.481,0,0,1-.062,0,.551.551,0,0,1-.058,0,.271.271,0,0,1-.04-.007.039.039,0,0,1-.019-.012c-.005,0-.005-.011-.005-.018l-.045-1.2a.027.027,0,0,1,0-.018c0-.005.01-.009.018-.014a.1.1,0,0,1,.037-.009.569.569,0,0,1,.058,0h.058a.1.1,0,0,1,.036.007.057.057,0,0,1,.019.013.036.036,0,0,1,.007.018c0,.07,0,.105,0,.175a.962.962,0,0,1,.107-.12.609.609,0,0,1,.1-.073.316.316,0,0,1,.091-.038.415.415,0,0,1,.093-.01.364.364,0,0,1,.046,0c.019,0,.036,0,.056.008a.414.414,0,0,1,.053.012.138.138,0,0,1,.031.013l.012.012.006.016a.152.152,0,0,1,0,.028c0,.011,0,.028,0,.049" transform="translate(-3354 -13110)" fill="#515151"/><path d="M444.735,204.05a.029.029,0,0,1-.013.024.1.1,0,0,1-.034.01.319.319,0,0,1-.061,0,.368.368,0,0,1-.061-.007.106.106,0,0,1-.033-.014.032.032,0,0,1-.01-.025c0-.048,0-.072.007-.121a.656.656,0,0,1-.2.121.6.6,0,0,1-.23.037.688.688,0,0,1-.191-.031.461.461,0,0,1-.145-.074.346.346,0,0,1-.092-.117.354.354,0,0,1-.033-.156.319.319,0,0,1,.05-.176.386.386,0,0,1,.139-.122.719.719,0,0,1,.221-.068,1.387,1.387,0,0,1,.294-.013c.077,0,.116.005.192.01,0-.038,0-.056.006-.094a.4.4,0,0,0-.009-.123.212.212,0,0,0-.051-.092.242.242,0,0,0-.1-.059.516.516,0,0,0-.151-.025.733.733,0,0,0-.174.013,1.106,1.106,0,0,0-.135.039c-.04.015-.071.028-.1.041a.139.139,0,0,1-.057.018.035.035,0,0,1-.021-.006.041.041,0,0,1-.016-.016.071.071,0,0,1-.01-.028.147.147,0,0,1,0-.037.154.154,0,0,1,.007-.053.077.077,0,0,1,.027-.036.376.376,0,0,1,.073-.04,1.066,1.066,0,0,1,.124-.04,1.225,1.225,0,0,1,.15-.026.909.909,0,0,1,.165-.007.953.953,0,0,1,.26.042.454.454,0,0,1,.171.1.33.33,0,0,1,.088.147.59.59,0,0,1,.014.2c-.023.324-.035.486-.058.81m-.213-.564-.216-.011a.922.922,0,0,0-.181.007.415.415,0,0,0-.13.041.2.2,0,0,0-.076.071.205.205,0,0,0,.037.248.3.3,0,0,0,.186.061.405.405,0,0,0,.183-.036.834.834,0,0,0,.182-.126l.015-.255" transform="translate(-3354 -13110)" fill="#515151"/><path d="M446.478,204.288c-.1.163-.149.246-.246.409a.059.059,0,0,1-.048.025.354.354,0,0,1-.109-.005.472.472,0,0,1-.062-.01.178.178,0,0,1-.034-.017.034.034,0,0,1-.01-.023.085.085,0,0,1,.012-.032c.1-.156.144-.232.243-.386a.158.158,0,0,1-.023-.022.056.056,0,0,1-.011-.027c-.122-.485-.189-.726-.336-1.207a.129.129,0,0,1-.006-.047.027.027,0,0,1,.015-.022.069.069,0,0,1,.043-.008.47.47,0,0,1,.077.006c.033,0,.058.009.074.011a.37.37,0,0,1,.042.013.044.044,0,0,1,.021.019.182.182,0,0,1,.011.029c.11.4.16.609.254,1.014h0c.212-.36.32-.538.545-.893.009-.016.02-.026.029-.027a.087.087,0,0,1,.043-.005.763.763,0,0,1,.076.011.537.537,0,0,1,.073.017.107.107,0,0,1,.039.02.031.031,0,0,1,.007.028.094.094,0,0,1-.016.037c-.294.433-.435.65-.705,1.091" transform="translate(-3354 -13110)" fill="#515151"/><path d="M449.012,204.795a.239.239,0,0,1-.014.039.1.1,0,0,1-.019.027.069.069,0,0,1-.022.012.041.041,0,0,1-.022,0c-.358-.111-.538-.162-.9-.254a.114.114,0,0,1-.057-.036.081.081,0,0,1-.013-.079c.151-.6.227-.9.377-1.5a.079.079,0,0,1,.051-.061.143.143,0,0,1,.074,0c.39.1.585.155.971.276a.047.047,0,0,1,.021.011.036.036,0,0,1,.011.023.106.106,0,0,1,0,.031.187.187,0,0,1-.009.045.128.128,0,0,1-.017.037.143.143,0,0,1-.019.027.027.027,0,0,1-.021.009.049.049,0,0,1-.024,0c-.315-.1-.473-.144-.791-.228l-.14.526c.265.07.4.107.661.188a.035.035,0,0,1,.02.013.058.058,0,0,1,.013.021.059.059,0,0,1,0,.03.26.26,0,0,1-.011.045.169.169,0,0,1-.014.037.085.085,0,0,1-.018.025.071.071,0,0,1-.022.01.063.063,0,0,1-.023,0c-.261-.08-.392-.116-.655-.186-.064.239-.1.36-.16.6.3.081.451.124.75.216a.071.071,0,0,1,.019.013.068.068,0,0,1,.012.021.1.1,0,0,1,0,.03.42.42,0,0,1-.012.043" transform="translate(-3354 -13110)" fill="#515151"/><path d="M450.291,204.963a.347.347,0,0,1-.243.213.533.533,0,0,1-.185.011.938.938,0,0,1-.212-.05,1.127,1.127,0,0,1-.127-.055,1.163,1.163,0,0,1-.1-.063.88.88,0,0,1-.074-.058.287.287,0,0,1-.04-.046.08.08,0,0,1-.011-.043.222.222,0,0,1,.013-.065.3.3,0,0,1,.017-.039.139.139,0,0,1,.017-.024.026.026,0,0,1,.016-.011.034.034,0,0,1,.02,0,.131.131,0,0,1,.042.032.775.775,0,0,0,.159.138.557.557,0,0,0,.136.068.492.492,0,0,0,.112.027.312.312,0,0,0,.1,0,.17.17,0,0,0,.077-.035.186.186,0,0,0,.048-.073.125.125,0,0,0,0-.091.262.262,0,0,0-.054-.086.592.592,0,0,0-.089-.082c-.033-.026-.068-.056-.105-.084s-.072-.06-.106-.092a.536.536,0,0,1-.083-.1.326.326,0,0,1-.046-.12.289.289,0,0,1,.015-.14.307.307,0,0,1,.074-.119.328.328,0,0,1,.13-.077.542.542,0,0,1,.182-.019.788.788,0,0,1,.228.049.908.908,0,0,1,.106.048,1.062,1.062,0,0,1,.092.055.564.564,0,0,1,.065.053.32.32,0,0,1,.038.041.066.066,0,0,1,.013.025.065.065,0,0,1,0,.02.109.109,0,0,1,0,.025c0,.009-.006.021-.011.035s-.012.027-.017.036a.091.091,0,0,1-.017.023.037.037,0,0,1-.02.009.036.036,0,0,1-.017,0,.1.1,0,0,1-.033-.029.716.716,0,0,0-.055-.054.853.853,0,0,0-.085-.065.525.525,0,0,0-.121-.06.455.455,0,0,0-.114-.027.233.233,0,0,0-.093,0,.173.173,0,0,0-.065.036.16.16,0,0,0-.039.061.129.129,0,0,0,0,.093.285.285,0,0,0,.056.087.858.858,0,0,0,.092.083l.108.086c.035.029.072.061.1.094a.436.436,0,0,1,.084.1.318.318,0,0,1,.04.118.281.281,0,0,1-.021.136" transform="translate(-3354 -13110)" fill="#515151"/><path d="M451.928,205.364a.927.927,0,0,1-.16.237.612.612,0,0,1-.2.141.524.524,0,0,1-.227.041.66.66,0,0,1-.251-.064.543.543,0,0,1-.1-.056.477.477,0,0,1-.079-.071.6.6,0,0,1-.066-.092,1.235,1.235,0,0,1-.063-.116l-.236.553a.042.042,0,0,1-.013.016.056.056,0,0,1-.023,0,.107.107,0,0,1-.038-.008c-.015,0-.033-.011-.057-.02a.556.556,0,0,1-.054-.026.129.129,0,0,1-.03-.021.038.038,0,0,1-.013-.02.025.025,0,0,1,0-.019c.255-.623.384-.934.641-1.556a.042.042,0,0,1,.012-.016.04.04,0,0,1,.024,0,.112.112,0,0,1,.036.007c.014,0,.032.011.052.019a.408.408,0,0,1,.051.025.12.12,0,0,1,.03.02.042.042,0,0,1,.015.02.058.058,0,0,1,0,.02l-.064.149a1.236,1.236,0,0,1,.157-.039.757.757,0,0,1,.141-.014.6.6,0,0,1,.133.014.586.586,0,0,1,.134.045.632.632,0,0,1,.224.16.458.458,0,0,1,.1.205.535.535,0,0,1,0,.229.9.9,0,0,1-.082.237m-.253-.1a.933.933,0,0,0,.062-.169.457.457,0,0,0,.013-.163.3.3,0,0,0-.055-.144.316.316,0,0,0-.14-.108.4.4,0,0,0-.1-.031.441.441,0,0,0-.11-.005.66.66,0,0,0-.127.023,1.152,1.152,0,0,0-.153.055l-.189.44a1.154,1.154,0,0,0,.115.236.379.379,0,0,0,.157.134.328.328,0,0,0,.166.032.317.317,0,0,0,.147-.049.537.537,0,0,0,.121-.108.7.7,0,0,0,.091-.143" transform="translate(-3354 -13110)" fill="#515151"/><path d="M453.04,204.617a.121.121,0,0,1,.03-.011.114.114,0,0,1,.036,0,.314.314,0,0,1,.047.015c.018.008.038.018.063.032a.582.582,0,0,1,.065.041.093.093,0,0,1,.028.031.023.023,0,0,1,0,.023.037.037,0,0,1-.025.013c-.167.05-.25.076-.414.129a.119.119,0,0,1-.031.008.061.061,0,0,1-.027,0,.16.16,0,0,1-.036-.011c-.014-.006-.031-.015-.05-.025a.3.3,0,0,1-.05-.03.055.055,0,0,1-.021-.024.012.012,0,0,1,0-.017.122.122,0,0,1,.023-.018c.143-.065.215-.1.36-.159m-.825,1.594a.025.025,0,0,1-.014.013.078.078,0,0,1-.023,0,.166.166,0,0,1-.039-.012c-.015-.006-.033-.015-.056-.027a.543.543,0,0,1-.053-.031.172.172,0,0,1-.03-.024.046.046,0,0,1-.012-.021.027.027,0,0,1,0-.019l.556-1.069a.025.025,0,0,1,.014-.013.061.061,0,0,1,.025,0,.126.126,0,0,1,.04.012.581.581,0,0,1,.059.028.659.659,0,0,1,.057.034.129.129,0,0,1,.034.027.071.071,0,0,1,.013.021.031.031,0,0,1,0,.019l-.571,1.062" transform="translate(-3354 -13110)" fill="#515151"/><path d="M453.92,205.9c-.01.016-.021.031-.028.04a.1.1,0,0,1-.022.023.042.042,0,0,1-.02.008.044.044,0,0,1-.02-.005.077.077,0,0,1-.023-.022c-.009-.009-.02-.021-.03-.033l-.039-.037a.369.369,0,0,0-.052-.038.236.236,0,0,0-.074-.03.318.318,0,0,0-.094-.005.5.5,0,0,0-.12.024,1.6,1.6,0,0,0-.152.054c-.161.274-.242.41-.4.683a.026.026,0,0,1-.014.012.038.038,0,0,1-.024,0,.17.17,0,0,1-.037-.012l-.057-.03a.5.5,0,0,1-.05-.032.18.18,0,0,1-.031-.027.041.041,0,0,1-.011-.022.02.02,0,0,1,.005-.017l.6-1.047c0-.006.007-.011.013-.013a.04.04,0,0,1,.023,0,.109.109,0,0,1,.038.012.48.48,0,0,1,.053.028l.05.032a.1.1,0,0,1,.028.025l.01.021a.028.028,0,0,1,0,.02l-.089.151a1.041,1.041,0,0,1,.157-.044.563.563,0,0,1,.123-.01.343.343,0,0,1,.1.018.444.444,0,0,1,.088.042l.039.026a.5.5,0,0,1,.045.038.285.285,0,0,1,.039.039.1.1,0,0,1,.021.028.044.044,0,0,1,0,.017l0,.017a.152.152,0,0,1-.011.026c-.005.009-.015.023-.026.041" transform="translate(-3354 -13110)" fill="#515151"/><path d="M454.706,205.835a.129.129,0,0,1-.09.067.241.241,0,0,1-.129-.052.231.231,0,0,1-.1-.1.164.164,0,0,1,.114-.175.23.23,0,0,1,.131.051.226.226,0,0,1,.1.1.123.123,0,0,1-.026.107m-.927,1.32a.023.023,0,0,1-.015.011.048.048,0,0,1-.024,0,.214.214,0,0,1-.036-.015c-.014-.008-.033-.019-.055-.034a.579.579,0,0,1-.05-.035.389.389,0,0,1-.029-.029.058.058,0,0,1-.01-.022c0-.006,0-.011.007-.017.263-.4.394-.606.658-1.01a.025.025,0,0,1,.013-.012.043.043,0,0,1,.025,0,.241.241,0,0,1,.041.017.415.415,0,0,1,.056.033.435.435,0,0,1,.055.041.169.169,0,0,1,.03.029.052.052,0,0,1,.011.023.027.027,0,0,1-.005.018l-.672,1" transform="translate(-3354 -13110)" fill="#515151"/><path d="M454.813,207.791a.208.208,0,0,1-.043.045.056.056,0,0,1-.035.015.1.1,0,0,1-.043-.007c-.016-.006-.034-.013-.055-.023a.523.523,0,0,1-.059-.033.69.69,0,0,1-.06-.039.661.661,0,0,1-.136-.132.313.313,0,0,1-.059-.136.3.3,0,0,1,.014-.146.642.642,0,0,1,.087-.161l.41-.573-.17-.121a.047.047,0,0,1-.02-.039.121.121,0,0,1,.027-.066.2.2,0,0,1,.029-.033.092.092,0,0,1,.025-.017.032.032,0,0,1,.023,0,.038.038,0,0,1,.022.009l.171.12c.066-.093.1-.138.166-.233a.044.044,0,0,1,.016-.01.041.041,0,0,1,.026,0,.169.169,0,0,1,.039.017c.015.009.035.023.057.038s.04.031.054.043a.141.141,0,0,1,.03.033.094.094,0,0,1,.01.024.029.029,0,0,1,0,.018l-.17.231c.124.091.186.138.308.232a.059.059,0,0,1,.015.017.049.049,0,0,1,.005.025.06.06,0,0,1-.009.029.2.2,0,0,1-.024.035.124.124,0,0,1-.054.046.048.048,0,0,1-.044-.007c-.122-.093-.183-.139-.306-.23l-.4.542a.337.337,0,0,0-.077.177.178.178,0,0,0,.086.144.362.362,0,0,0,.056.035.33.33,0,0,0,.047.019l.039.014a.073.073,0,0,1,.025.012.035.035,0,0,1,.011.013.021.021,0,0,1,0,.016l-.009.025c-.006.01-.014.021-.023.033" transform="translate(-3354 -13110)" fill="#515151"/><path d="M455.956,208.869c-.005,0-.009.01-.015.01a.046.046,0,0,1-.024,0,.143.143,0,0,1-.033-.02.445.445,0,0,1-.043-.035.43.43,0,0,1-.043-.043.136.136,0,0,1-.021-.029.04.04,0,0,1-.006-.022.041.041,0,0,1,.007-.017l.107-.12a.887.887,0,0,1-.291-.035.615.615,0,0,1-.217-.117.645.645,0,0,1-.158-.184.453.453,0,0,1-.053-.184.443.443,0,0,1,.033-.18.827.827,0,0,1,.118-.191l.457-.571a.027.027,0,0,1,.017-.01.062.062,0,0,1,.025,0,.144.144,0,0,1,.039.022c.015.009.034.024.055.04s.036.032.051.046a.124.124,0,0,1,.027.032.072.072,0,0,1,.01.026.026.026,0,0,1-.006.018l-.446.542a.681.681,0,0,0-.1.141.287.287,0,0,0-.025.12.248.248,0,0,0,.029.115.327.327,0,0,0,.086.1.379.379,0,0,0,.188.085,1.115,1.115,0,0,0,.272.01l.559-.63a.031.031,0,0,1,.018-.009.072.072,0,0,1,.025.005.129.129,0,0,1,.038.024.6.6,0,0,1,.053.044.524.524,0,0,1,.047.046.13.13,0,0,1,.028.036.1.1,0,0,1,.008.025.03.03,0,0,1-.008.018l-.813.889" transform="translate(-3354 -13110)" fill="#515151"/><path d="M456.638,209.366a.165.165,0,0,1-.116.063.227.227,0,0,1-.121-.075.217.217,0,0,1-.073-.114.161.161,0,0,1,.059-.116.158.158,0,0,1,.115-.064.229.229,0,0,1,.122.075.223.223,0,0,1,.074.117.157.157,0,0,1-.06.114" transform="translate(-3354 -13110)" fill="#515151"/></g></svg>