<svg xmlns="http://www.w3.org/2000/svg" xmlns:xlink="http://www.w3.org/1999/xlink" width="148.164" height="51.422" viewBox="0 0 148.164 51.422"><defs><clipPath id="a"><rect width="148.164" height="51.421" fill="none"/></clipPath></defs><g clip-path="url(#a)"><path d="M66.924,80.505a2.275,2.275,0,0,1-1.553.431q-2.2,0-2.2-1.81h.593q.03,1.279,1.6,1.279,1.433,0,1.448-.878a.587.587,0,0,0-.247-.508,1.512,1.512,0,0,0-.643-.266q-.389-.073-.84-.166t-.84-.192a1.376,1.376,0,0,1-.647-.359.891.891,0,0,1-.258-.659,1.284,1.284,0,0,1,.5-1.082,2.368,2.368,0,0,1,1.46-.381,2.271,2.271,0,0,1,1.5.447,1.608,1.608,0,0,1,.54,1.287h-.586q-.054-1.225-1.479-1.225a1.789,1.789,0,0,0-1,.235.764.764,0,0,0-.35.674.56.56,0,0,0,.358.513,3.025,3.025,0,0,0,.871.265q.512.085,1.025.2a2.09,2.09,0,0,1,.871.4.933.933,0,0,1,.359.771,1.349,1.349,0,0,1-.474,1.032" transform="translate(-25.906 -31.133)" fill="#fdda28"/><path d="M74.5,81.268a2,2,0,0,1-1.307.355,2.646,2.646,0,0,1-.982-.162,1.305,1.305,0,0,1-.613-.466,2,2,0,0,1-.293-.644,3.181,3.181,0,0,1-.085-.77,1.75,1.75,0,0,1,1.965-2q1.788,0,1.788,1.965c0,.123,0,.221-.008.293H71.827a1.221,1.221,0,0,0,1.348,1.325q1.056,0,1.195-.825h.6a1.324,1.324,0,0,1-.474.924m-.424-2.859a1.141,1.141,0,0,0-.936-.362q-1.264,0-1.31,1.333H74.37a1.484,1.484,0,0,0-.3-.971" transform="translate(-29.208 -31.819)" fill="#fdda28"/><path d="M79.422,78.367a1.551,1.551,0,0,0-.282,1.032v2.165h-.577V77.619h.262L79,78.3q.293-.763,1.5-.74v.524a1.316,1.316,0,0,0-1.082.285" transform="translate(-32.22 -31.807)" fill="#fdda28"/><path d="M84.412,81.608H83.8l-1.711-3.945h.647l1.371,3.429,1.441-3.429h.663Z" transform="translate(-33.667 -31.851)" fill="#fdda28"/><path d="M89.941,76.339q-.439,0-.439-.355a.306.306,0,0,1,.108-.277.626.626,0,0,1,.331-.07.586.586,0,0,1,.32.07.311.311,0,0,1,.1.277q0,.355-.424.355m-.293.493h.57v3.945h-.57Z" transform="translate(-36.706 -31.02)" fill="#fdda28"/><path d="M94.93,81.21a1.823,1.823,0,0,1-1.307.412q-1.926,0-1.926-2.019t1.9-2.019a1.827,1.827,0,0,1,1.321.424,1.567,1.567,0,0,1,.436,1.179h-.586a1.231,1.231,0,0,0-.309-.832,1.5,1.5,0,0,0-1.892.127,1.852,1.852,0,0,0-.3,1.114,1.9,1.9,0,0,0,.3,1.129,1.491,1.491,0,0,0,1.9.131,1.2,1.2,0,0,0,.3-.821h.586a1.558,1.558,0,0,1-.428,1.176" transform="translate(-37.606 -31.819)" fill="#fdda28"/><path d="M99.245,76.339q-.44,0-.439-.355a.306.306,0,0,1,.108-.277.626.626,0,0,1,.332-.07.587.587,0,0,1,.32.07.312.312,0,0,1,.1.277q0,.355-.424.355m-.293.493h.57v3.945h-.57Z" transform="translate(-40.522 -31.02)" fill="#fdda28"/><path d="M102.882,81.622q-1.88,0-1.88-2.019a2.99,2.99,0,0,1,.088-.755,2.019,2.019,0,0,1,.293-.636,1.34,1.34,0,0,1,.586-.462,2.649,2.649,0,0,1,1.842,0,1.333,1.333,0,0,1,.586.462,2.008,2.008,0,0,1,.293.636,2.991,2.991,0,0,1,.088.755q0,2.019-1.9,2.019M103.9,78.49a1.453,1.453,0,0,0-2.027,0,1.912,1.912,0,0,0-.288,1.114,2.723,2.723,0,0,0,.058.6,1.543,1.543,0,0,0,.2.482.892.892,0,0,0,.4.343,1.535,1.535,0,0,0,.639.12,1.162,1.162,0,0,0,1.021-.412,1.937,1.937,0,0,0,.289-1.129,1.907,1.907,0,0,0-.289-1.114" transform="translate(-41.423 -31.819)" fill="#fdda28"/><path d="M111.2,81.295a2.044,2.044,0,0,1-1.268.327,2.2,2.2,0,0,1-1.426-.381,1.361,1.361,0,0,1-.439-1.137h.562a.946.946,0,0,0,.309.782,1.515,1.515,0,0,0,.986.266,1.555,1.555,0,0,0,.848-.181.547.547,0,0,0,.277-.444.449.449,0,0,0-.2-.393,1.322,1.322,0,0,0-.531-.219q-.324-.065-.7-.15t-.7-.181a1.261,1.261,0,0,1-.547-.316.738.738,0,0,1-.219-.543.942.942,0,0,1,.4-.836,2.173,2.173,0,0,1,1.279-.3q1.7,0,1.7,1.456h-.539a1.018,1.018,0,0,0-.286-.74,1.269,1.269,0,0,0-.886-.254,1.533,1.533,0,0,0-.844.178.51.51,0,0,0-.243.47.46.46,0,0,0,.3.393,2.834,2.834,0,0,0,.724.227q.427.081.851.185a1.761,1.761,0,0,1,.721.35.8.8,0,0,1,.3.647.98.98,0,0,1-.42.8" transform="translate(-44.322 -31.819)" fill="#fdda28"/><path d="M120.956,81.268a2,2,0,0,1-1.307.355,2.646,2.646,0,0,1-.982-.162,1.3,1.3,0,0,1-.613-.466,2,2,0,0,1-.293-.644,3.181,3.181,0,0,1-.085-.77,1.75,1.75,0,0,1,1.965-2q1.788,0,1.788,1.965c0,.123,0,.221-.008.293h-3.136a1.221,1.221,0,0,0,1.348,1.325q1.056,0,1.195-.825h.6a1.324,1.324,0,0,1-.474.924m-.424-2.859a1.141,1.141,0,0,0-.936-.362q-1.264,0-1.31,1.333h2.543a1.484,1.484,0,0,0-.3-.971" transform="translate(-48.261 -31.819)" fill="#fdda28"/><path d="M128,81.576v-2.15a1.79,1.79,0,0,0-.231-1.025,1.1,1.1,0,0,0-.94-.323,1.2,1.2,0,0,0-.974.323,1.641,1.641,0,0,0-.258,1.025v2.15h-.578V77.631h.27l.169.717q.285-.763,1.525-.763a2.216,2.216,0,0,1,.813.127,1,1,0,0,1,.49.393,1.657,1.657,0,0,1,.231.586,4.189,4.189,0,0,1,.062.782v2.1Z" transform="translate(-51.273 -31.819)" fill="#fdda28"/><rect width="0.601" height="4.931" transform="translate(79.861 44.826)" fill="#fdda28"/><path d="M140.85,81.576v-2.15a1.79,1.79,0,0,0-.231-1.025,1.1,1.1,0,0,0-.94-.323,1.2,1.2,0,0,0-.975.323,1.641,1.641,0,0,0-.258,1.025v2.15h-.578V77.631h.27l.169.717q.285-.763,1.525-.763a2.216,2.216,0,0,1,.813.127,1,1,0,0,1,.49.393,1.658,1.658,0,0,1,.231.586,4.19,4.19,0,0,1,.062.782v2.1Z" transform="translate(-56.542 -31.819)" fill="#fdda28"/><path d="M148.108,82.945a2.508,2.508,0,0,1-1.461.327,2.365,2.365,0,0,1-1.525-.373,1.373,1.373,0,0,1-.432-1.1h.586a.933.933,0,0,0,.293.751,1.71,1.71,0,0,0,1.079.251q1.3,0,1.3-.648,0-.262-.327-.408a2.982,2.982,0,0,0-.8-.212q-.471-.065-.944-.135a2.47,2.47,0,0,1-.8-.242.526.526,0,0,1-.327-.474q0-.4.632-.547a1.131,1.131,0,0,1-.555-1.071,1.33,1.33,0,0,1,.4-1.04,2.188,2.188,0,0,1,1.448-.362H148.4v.293l-.655.108a.95.95,0,0,1,.578,1.009,1.409,1.409,0,0,1-.378,1.06,1.975,1.975,0,0,1-1.371.366,2.483,2.483,0,0,1-.8-.093q-.432.047-.431.247,0,.162.331.247a5.756,5.756,0,0,0,.8.135q.47.05.944.139a1.975,1.975,0,0,1,.805.327.742.742,0,0,1,.332.632.978.978,0,0,1-.443.813m-.628-4.577a1.313,1.313,0,0,0-.909-.235,1.329,1.329,0,0,0-.9.231.907.907,0,0,0-.247.693,1.044,1.044,0,0,0,.243.744,1.242,1.242,0,0,0,.913.258,1.218,1.218,0,0,0,.894-.258,1.035,1.035,0,0,0,.247-.744.927.927,0,0,0-.239-.69" transform="translate(-59.34 -31.851)" fill="#fdda28"/><path d="M154.765,81.268a2,2,0,0,1-1.307.355,2.646,2.646,0,0,1-.982-.162,1.305,1.305,0,0,1-.613-.466,2,2,0,0,1-.293-.644,3.181,3.181,0,0,1-.085-.77,1.75,1.75,0,0,1,1.965-2q1.788,0,1.788,1.965c0,.123,0,.221-.008.293h-3.136a1.221,1.221,0,0,0,1.348,1.325q1.056,0,1.195-.825h.6a1.324,1.324,0,0,1-.474.924m-.424-2.859a1.141,1.141,0,0,0-.936-.362q-1.264,0-1.31,1.333h2.543a1.484,1.484,0,0,0-.3-.971" transform="translate(-62.127 -31.819)" fill="#fdda28"/><path d="M161.813,81.576v-2.15a1.79,1.79,0,0,0-.231-1.025,1.1,1.1,0,0,0-.94-.323,1.2,1.2,0,0,0-.974.323,1.641,1.641,0,0,0-.258,1.025v2.15h-.578V77.631h.27l.169.717q.285-.763,1.525-.763a2.216,2.216,0,0,1,.813.127,1,1,0,0,1,.49.393,1.657,1.657,0,0,1,.231.586,4.189,4.189,0,0,1,.062.782v2.1Z" transform="translate(-65.139 -31.819)" fill="#fdda28"/><path d="M166.3,76.339q-.44,0-.439-.355a.306.306,0,0,1,.108-.277.627.627,0,0,1,.332-.07.587.587,0,0,1,.32.07.312.312,0,0,1,.1.277q0,.355-.424.355m-.293.493h.57v3.945h-.57Z" transform="translate(-68.023 -31.02)" fill="#fdda28"/><path d="M171.336,81.268a2,2,0,0,1-1.307.355,2.646,2.646,0,0,1-.982-.162,1.3,1.3,0,0,1-.613-.466,2,2,0,0,1-.293-.644,3.181,3.181,0,0,1-.085-.77,1.75,1.75,0,0,1,1.965-2q1.788,0,1.788,1.965c0,.123,0,.221-.008.293h-3.136a1.221,1.221,0,0,0,1.348,1.325q1.056,0,1.195-.825h.6a1.324,1.324,0,0,1-.474.924m-.424-2.859a1.141,1.141,0,0,0-.936-.362q-1.264,0-1.31,1.333h2.543a1.484,1.484,0,0,0-.3-.971" transform="translate(-68.923 -31.819)" fill="#fdda28"/><path d="M176.261,78.367a1.555,1.555,0,0,0-.281,1.032v2.165H175.4V77.619h.262l.178.678q.293-.763,1.5-.74v.524a1.316,1.316,0,0,0-1.082.285" transform="translate(-71.935 -31.807)" fill="#fdda28"/><path d="M180.083,75.948l-1.348.485v-.485l1.348-.493Zm-.956.809h.578V80.7h-.578Z" transform="translate(-73.302 -30.945)" fill="#fdda28"/><path d="M184.733,81.576l-.123-.8a1.308,1.308,0,0,1-.616.613,2.219,2.219,0,0,1-1.048.235,1.865,1.865,0,0,1-1.094-.3,1,1,0,0,1-.424-.874.889.889,0,0,1,.382-.786,2.832,2.832,0,0,1,1.236-.362l1.433-.17a1.159,1.159,0,0,0-.266-.828,1.371,1.371,0,0,0-.967-.258,1.287,1.287,0,0,0-.89.239A.946.946,0,0,0,182.1,79h-.57a1.4,1.4,0,0,1,.378-1.048,1.875,1.875,0,0,1,1.325-.37,3.276,3.276,0,0,1,.951.116,1.041,1.041,0,0,1,.555.362,1.434,1.434,0,0,1,.247.532,3.275,3.275,0,0,1,.065.717v2.265Zm-.254-2-1.348.185a2.4,2.4,0,0,0-.855.235.492.492,0,0,0-.247.451.6.6,0,0,0,.274.531,1.357,1.357,0,0,0,.766.185,1.494,1.494,0,0,0,1.013-.343,1.219,1.219,0,0,0,.4-.974Z" transform="translate(-74.406 -31.819)" fill="#fdda28"/><path d="M191.908,80.922V75.991h3.367v.493h-2.766v1.672h2.535v.493h-2.535v1.78h2.766v.493Z" transform="translate(-78.705 -31.165)" fill="#fdda28"/><rect width="0.57" height="5.448" transform="translate(117.219 44.31)" fill="#fdda28"/><path d="M203.931,80.266a2,2,0,0,1-1.306.355,2.647,2.647,0,0,1-.983-.162,1.3,1.3,0,0,1-.612-.466,1.984,1.984,0,0,1-.293-.644,3.182,3.182,0,0,1-.084-.77,1.75,1.75,0,0,1,1.964-2q1.788,0,1.788,1.965c0,.123,0,.221-.008.293h-3.136a1.22,1.22,0,0,0,1.348,1.325q1.056,0,1.195-.825h.6a1.326,1.326,0,0,1-.474.924m.312-4.638-3.429.755v-.493l3.429-.747Zm-.736,1.78a1.141,1.141,0,0,0-.936-.362q-1.264,0-1.31,1.333H203.8a1.487,1.487,0,0,0-.3-.971" transform="translate(-82.291 -30.817)" fill="#fdda28"/><path d="M210.9,81.21a1.821,1.821,0,0,1-1.306.412q-1.926,0-1.926-2.019t1.9-2.019a1.828,1.828,0,0,1,1.321.424,1.569,1.569,0,0,1,.435,1.179h-.585a1.234,1.234,0,0,0-.309-.832,1.5,1.5,0,0,0-1.892.127,1.852,1.852,0,0,0-.3,1.114,1.9,1.9,0,0,0,.3,1.129,1.491,1.491,0,0,0,1.9.131,1.2,1.2,0,0,0,.3-.821h.585a1.556,1.556,0,0,1-.428,1.176" transform="translate(-85.169 -31.819)" fill="#fdda28"/><path d="M215.42,77.455v2.312a.663.663,0,0,0,.2.543,1.243,1.243,0,0,0,.751.165c.113,0,.2,0,.27-.008v.478c-.164.011-.28.015-.347.015a1.792,1.792,0,0,1-1.117-.277,1.108,1.108,0,0,1-.346-.917V77.455h-.54v-.362l.54-.131v-.971h.562v.986h1.248v.478Z" transform="translate(-87.886 -31.165)" fill="#fdda28"/><path d="M220.028,78.367a1.555,1.555,0,0,0-.281,1.032v2.165h-.578V77.619h.262l.178.678q.293-.763,1.5-.74v.524a1.316,1.316,0,0,0-1.082.285" transform="translate(-89.885 -31.807)" fill="#fdda28"/><path d="M223.359,76.339q-.44,0-.439-.355a.306.306,0,0,1,.108-.277.626.626,0,0,1,.332-.07.588.588,0,0,1,.32.07.312.312,0,0,1,.1.277q0,.355-.424.355m-.293.493h.57v3.945h-.57Z" transform="translate(-91.423 -31.02)" fill="#fdda28"/><path d="M228.348,81.21a1.821,1.821,0,0,1-1.306.412q-1.926,0-1.926-2.019t1.9-2.019a1.828,1.828,0,0,1,1.321.424,1.569,1.569,0,0,1,.435,1.179h-.585a1.234,1.234,0,0,0-.309-.832,1.5,1.5,0,0,0-1.892.127,1.852,1.852,0,0,0-.3,1.114,1.9,1.9,0,0,0,.3,1.129,1.491,1.491,0,0,0,1.9.131,1.2,1.2,0,0,0,.3-.821h.585a1.555,1.555,0,0,1-.428,1.176" transform="translate(-92.324 -31.819)" fill="#fdda28"/><path d="M235.518,81.576l-.123-.8a1.308,1.308,0,0,1-.616.613,2.219,2.219,0,0,1-1.048.235,1.865,1.865,0,0,1-1.094-.3,1,1,0,0,1-.424-.874.889.889,0,0,1,.382-.786,2.832,2.832,0,0,1,1.236-.362l1.433-.17a1.159,1.159,0,0,0-.266-.828,1.371,1.371,0,0,0-.967-.258,1.287,1.287,0,0,0-.89.239.946.946,0,0,0-.251.717h-.57a1.4,1.4,0,0,1,.378-1.048,1.875,1.875,0,0,1,1.325-.37,3.276,3.276,0,0,1,.951.116,1.041,1.041,0,0,1,.554.362,1.434,1.434,0,0,1,.247.532,3.276,3.276,0,0,1,.065.717v2.265Zm-.254-2-1.348.185a2.4,2.4,0,0,0-.855.235.492.492,0,0,0-.247.451.6.6,0,0,0,.274.531,1.357,1.357,0,0,0,.766.185,1.494,1.494,0,0,0,1.013-.343,1.219,1.219,0,0,0,.4-.974Z" transform="translate(-95.234 -31.819)" fill="#fdda28"/><path d="M6.251,26.762H0L15.222,0h6.251Z" transform="translate(0 0)" fill="#fff"/><path d="M6.984,51.508H.732L15.954,24.746h6.251Z" transform="translate(-0.3 -10.149)" fill="#fdda28"/><path d="M44.249,40.185a3.2,3.2,0,0,0-.152-2.179q-.422-.693-1.875-.693a4.042,4.042,0,0,0-2.483.675,1.829,1.829,0,0,0-.76,1.79q.067.508.963.879a10.229,10.229,0,0,0,2.179.591,17.169,17.169,0,0,1,2.7.71,14.409,14.409,0,0,1,2.55,1.149A3.84,3.84,0,0,1,49.03,45.1a5.214,5.214,0,0,1,.084,3.159,7.317,7.317,0,0,1-.929,2.28,8.823,8.823,0,0,1-1.807,2.044,8.366,8.366,0,0,1-3.057,1.554,15.068,15.068,0,0,1-4.341.575q-5.1,0-7.2-2.01T30.4,46.569h6.554q-.777,3.209,2.2,3.21t3.548-2.23a.868.868,0,0,0-.422-.963,4.824,4.824,0,0,0-1.554-.641q-1-.254-2.229-.524a15.327,15.327,0,0,1-2.416-.744,10.631,10.631,0,0,1-2.112-1.114,3.722,3.722,0,0,1-1.368-1.807,4.943,4.943,0,0,1-.135-2.719q1.318-6.622,10.236-6.622,4.729,0,6.655,2.061T50.7,40.185Z" transform="translate(-12.393 -13.293)" fill="#fff"/><path d="M69.857,54.609H63.168L68.2,32.988h6.655Z" transform="translate(-25.906 -13.529)" fill="#fff"/><path d="M95.423,54.609h-7.6L85.39,32.988h6.824l.608,15.236,7.8-15.236h7.466Z" transform="translate(-35.02 -13.529)" fill="#fff"/><path d="M139.139,47.921a14.39,14.39,0,0,1-2.162,3.362,8.971,8.971,0,0,1-3.683,2.534,14.85,14.85,0,0,1-5.405.895A12.889,12.889,0,0,1,123.345,54a5.962,5.962,0,0,1-4.122-4.51,9.971,9.971,0,0,1-.287-3.074,19.332,19.332,0,0,1,.507-3.193,22.834,22.834,0,0,1,1.318-4,13.97,13.97,0,0,1,2.179-3.378,9.1,9.1,0,0,1,3.7-2.534,14.731,14.731,0,0,1,5.371-.9,12.875,12.875,0,0,1,4.544.71,6.6,6.6,0,0,1,2.8,1.824,6.439,6.439,0,0,1,1.3,2.686,10.3,10.3,0,0,1,.271,3.074,20,20,0,0,1-.507,3.226,20.75,20.75,0,0,1-1.284,3.986m-5-5.135a10.728,10.728,0,0,0,.237-1.115,5.99,5.99,0,0,0,.118-1.165,8.011,8.011,0,0,0-.118-.98,1.72,1.72,0,0,0-.405-.912,2.787,2.787,0,0,0-.845-.575,3.476,3.476,0,0,0-1.318-.287,6.319,6.319,0,0,0-2.449.3,3.387,3.387,0,0,0-1.655,1.25,8.784,8.784,0,0,0-.98,1.74,16.376,16.376,0,0,0-.693,2.213,12.485,12.485,0,0,0-.608,4.122,2.436,2.436,0,0,0,2.568,1.993,6.131,6.131,0,0,0,2.094-.2,4.36,4.36,0,0,0,1.486-.726A4.306,4.306,0,0,0,132.6,47.2a9.4,9.4,0,0,0,.71-1.5q.253-.71.523-1.791.2-.778.3-1.115" transform="translate(-48.769 -13.294)" fill="#fff"/><path d="M169.695,54.609H156.35l5-21.621h6.689l-3.885,16.554h6.722Z" transform="translate(-64.122 -13.529)" fill="#fff"/><path d="M198.775,38.191h-5.1l-3.851,16.418h-6.588l3.851-16.385h-5.136l1.216-5.236h16.79Z" transform="translate(-74.621 -13.529)" fill="#fff"/><path d="M215.914,54.609l-.27-3.548h-6.587l-1.993,3.548h-7.129L212.6,32.988h7.7l2.3,21.621ZM215.273,38.6l-3.919,7.7h4.257Z" transform="translate(-81.996 -13.529)" fill="#fff"/><path d="M247.819,65.188a2.2,2.2,0,0,1-.231.647,1.719,1.719,0,0,1-.427.52,1.945,1.945,0,0,1-.678.335,3.828,3.828,0,0,1-1.932,0,1.977,1.977,0,0,1-.678-.335,1.662,1.662,0,0,1-.428-.52,2.33,2.33,0,0,1-.231-.65,3.931,3.931,0,0,1-.067-.75,3.855,3.855,0,0,1,.067-.742,2.345,2.345,0,0,1,.231-.647,1.66,1.66,0,0,1,.428-.519,1.966,1.966,0,0,1,.681-.335,3.394,3.394,0,0,1,.962-.124,3.223,3.223,0,0,1,1.158.185,1.641,1.641,0,0,1,.733.523,2.147,2.147,0,0,1,.367.742,3.541,3.541,0,0,1,.11.924,4.051,4.051,0,0,1-.064.748m-.592-1.5a1.692,1.692,0,0,0-.28-.589,1.214,1.214,0,0,0-.557-.4,2.455,2.455,0,0,0-.875-.138,2.369,2.369,0,0,0-.869.142,1.238,1.238,0,0,0-.557.4,1.706,1.706,0,0,0-.283.589,2.946,2.946,0,0,0-.087.748,3.027,3.027,0,0,0,.084.75,1.673,1.673,0,0,0,.283.589,1.228,1.228,0,0,0,.557.4,2.416,2.416,0,0,0,.872.139,2.441,2.441,0,0,0,.875-.139,1.21,1.21,0,0,0,.557-.4,1.687,1.687,0,0,0,.28-.589,3.382,3.382,0,0,0,0-1.5M245.9,65.67l-.832-.884v.884h-.525V63.233h.953a2.008,2.008,0,0,1,.586.072.677.677,0,0,1,.338.2.791.791,0,0,1,.142.249.894.894,0,0,1,.037.268q0,.693-.814.693h-.214l1.068.953Zm-.381-2.016h-.451v.728h.457a1.168,1.168,0,0,0,.3-.032.32.32,0,0,0,.168-.092.329.329,0,0,0,.063-.113.446.446,0,0,0,.015-.122q0-.37-.549-.37" transform="translate(-99.718 -25.454)" fill="#fff"/></g></svg>