<svg xmlns="http://www.w3.org/2000/svg" width="64.368" height="26.379" viewBox="0 0 64.368 26.379"><g transform="translate(3218.12 13108.596)"><path d="M197.8,12.449a4.578,4.578,0,0,0-4.485-4.672h-2.662a4.586,4.586,0,0,0-4.494,4.672l0,4.653a4.573,4.573,0,0,0,4.483,4.671H193.3a4.593,4.593,0,0,0,4.5-4.671Zm-3.643,4.36a1.53,1.53,0,0,1-1.5,1.556h-1.374a1.525,1.525,0,0,1-1.493-1.556l0-4.068a1.527,1.527,0,0,1,1.5-1.557h1.372a1.527,1.527,0,0,1,1.5,1.557Z" transform="translate(-3354 -13110)" fill="#515151" fill-rule="evenodd"/><path d="M149.743,14.223c.055-.065.105-.135.156-.2.02-.028.043-.054.062-.082.038-.058.071-.119.1-.178s.055-.088.078-.134.053-.118.079-.177.049-.1.069-.156c.025-.069.044-.141.065-.212.014-.047.031-.092.043-.14a3.223,3.223,0,0,0,.059-.326c0-.014.006-.028.008-.043a3.241,3.241,0,0,0,.023-.383l0-.936a3.353,3.353,0,0,0-.02-.348c0-.034-.01-.067-.015-.1-.011-.08-.025-.161-.042-.239-.008-.036-.018-.071-.027-.107-.019-.077-.042-.153-.067-.227l-.033-.092c-.031-.082-.065-.161-.1-.239-.009-.021-.019-.042-.029-.063a3.043,3.043,0,0,0-2.716-1.7l-8.458.007-.007,6.617-.007,6.928,8.458.007a3.087,3.087,0,0,0,3.057-3.114l0-1.331a3.279,3.279,0,0,0-.022-.373c-.011-.1-.03-.188-.049-.281-.006-.026-.008-.052-.014-.077a3.289,3.289,0,0,0-.1-.333l0-.008a3.1,3.1,0,0,0-1.01-1.4c-.019-.026-.038-.054-.058-.078l-.012.006.01-.007h0a3.079,3.079,0,0,0,.491-.457c.007-.009.015-.015.022-.024m-6.683,2.113H145.7l.011-.135c.569.006,1.031.774,1.031,1.359a1.207,1.207,0,0,1-1.041,1.224h-3l.091-2.132.089-1.153v-.2l-.087-1.158-.041-2.684h2.982a.975.975,0,0,1,.394.085l-.007-.026a1.025,1.025,0,0,1,.629.954,1.011,1.011,0,0,1-1.041,1.012h-1.2l-1.445,2.67,0,.186Z" transform="translate(-3354 -13110)" fill="#515151" fill-rule="evenodd"/><path d="M172.076,21.639l.014-13.463h-4.455c-1.062,0-1.633.87-1.951,2.14l-1.1,5.186-1.1-5.2c-.035-.139-.074-.276-.115-.4-.012-.04-.025-.079-.038-.116-.035-.1-.072-.2-.111-.3-.011-.026-.022-.056-.033-.082a3.253,3.253,0,0,0-.159-.312c-.018-.032-.037-.061-.056-.093-.045-.071-.093-.14-.143-.2-.02-.025-.039-.052-.06-.077a1.821,1.821,0,0,0-.214-.216c-.022-.019-.046-.034-.069-.051s-.069-.056-.106-.08c0,0,.006.034.009.04a1.5,1.5,0,0,0-.851-.232h-4.458l-.013,13.537,3.714-.013.009-9.535,1.968,9.474h3.63l2.085-8.938.007-.541.1.035v.033l-.11.473-.109,8.938Z" transform="translate(-3354 -13110)" fill="#515151" fill-rule="evenodd"/><rect width="3.712" height="13.463" transform="translate(-3202.253 -13101.823)" fill="#515151"/><path d="M197.49,21.381h.191l.261.483h.168l-.26-.483a.264.264,0,0,0,.278-.286c0-.219-.168-.276-.354-.276h-.431l0,1.045h.148Zm0-.41h.256c.122,0,.23.01.228.14s-.19.119-.328.119h-.158Z" transform="translate(-3354 -13110)" fill="#515151" fill-rule="evenodd"/><path d="M197.694,22.264a.93.93,0,1,0-.914-.928.919.919,0,0,0,.914.928m0-1.708a.779.779,0,1,1-.768.78.772.772,0,0,1,.768-.78" transform="translate(-3354 -13110)" fill="#515151" fill-rule="evenodd"/><path d="M184.085,8.787h0Z" transform="translate(-3354 -13110)" fill="#515151" fill-rule="evenodd"/><path d="M184.19,14.479c.032-.029.06-.063.089-.093a3.107,3.107,0,0,0,.558-.765c.011-.022.019-.046.03-.068.041-.085.145-.171.179-.261a3.212,3.212,0,0,0,.263-1.1v-.936a3.319,3.319,0,0,0-.083-.341c-.005-.047-.045-.092-.052-.137-.01-.067-.036-.133-.05-.2-.011-.049-.032-.1-.045-.145s-.037-.121-.057-.181c-.015-.045-.033-.09-.05-.134-.025-.063-.052-.126-.081-.187-.016-.036-.033-.073-.051-.109-.039-.077-.083-.151-.128-.224-.01-.018-.02-.036-.031-.053a2.918,2.918,0,0,0-.639-.753l.042,0a2.908,2.908,0,0,0-1.907-.651l-8.481.007-.018,6.617-.014,6.928,8.457.007a3.083,3.083,0,0,0,3.054-3.114l0-1.331a3.12,3.12,0,0,0-1.2-2.47c-.019-.026-.037-.053-.057-.077l-.011.006.009-.007h0c.069-.052.134-.109.2-.167.023-.02.047-.037.069-.058m-5.756,1.857H180.4c.574,0,1.037.7,1.038,1.292a1.14,1.14,0,0,1-1.041,1.156h-3l.006-4.542,0-2.735,3-.027a1,1,0,1,1,0,2h-1.2l-1.447,2.856Z" transform="translate(-3354 -13110)" fill="#515151" fill-rule="evenodd"/><path d="M181.458,25.566,152.673,23.9c-13.6-.693-16.793,3.881-16.793,3.881,4-2.357,15.725-1.941,15.725-1.941l29.452,1.663c17.858,1.109,19.19-5.405,19.19-5.405-2.932,4.3-18.789,3.465-18.789,3.465" transform="translate(-3354 -13110)" fill="#515151" fill-rule="evenodd"/><path d="M151.606,5.146l8.669.49,15.293.863,5.49.31c17.857,1.109,19.19-5.4,19.19-5.4-2.932,4.3-18.79,3.465-18.79,3.465l-3.572-.206L158.137,3.521l-5.465-.315c-13.593-.693-16.791,3.88-16.791,3.88,4-2.356,15.725-1.94,15.725-1.94" transform="translate(-3354 -13110)" fill="#515151" fill-rule="evenodd"/></g></svg>