<svg xmlns="http://www.w3.org/2000/svg" width="71.044" height="22.16" viewBox="0 0 71.044 22.16"><g transform="translate(3083.638 13106.486)"><path d="M339.7,18.871l-.083.293h-.39l.079-.293Z" transform="translate(-3354 -13110)" fill="#515151" fill-rule="evenodd"/><path d="M339.155,17.982a.369.369,0,0,0-.083-.237.408.408,0,0,0-.21-.144,1.66,1.66,0,0,0-.368-.035h-.925l-.424,1.6h.424l.18-.661h.162a.4.4,0,0,1,.215.035.464.464,0,0,1,.188.215,3.861,3.861,0,0,1,.215.411h.46a4.22,4.22,0,0,0-.32-.53.681.681,0,0,0-.153-.144.894.894,0,0,0,.473-.167.425.425,0,0,0,.166-.341m-.495.153a.34.34,0,0,1-.166.1,2.1,2.1,0,0,1-.465.035h-.223l.118-.429h.465a.535.535,0,0,1,.245.026.135.135,0,0,1,.1.127.2.2,0,0,1-.07.145" transform="translate(-3354 -13110)" fill="#515151" fill-rule="evenodd"/><path d="M336.825,18.871l-.083.293h-.4l.083-.293Z" transform="translate(-3354 -13110)" fill="#515151" fill-rule="evenodd"/><path d="M336.338,17.566l-.429,1.6h-.39l.4-1.327-.819,1.327h-.4l-.07-1.336-.333,1.336h-.377l.425-1.6h.605l.07,1.126.7-1.126Z" transform="translate(-3354 -13110)" fill="#515151" fill-rule="evenodd"/><path d="M341.406,6.515l-8.979,12.308h-2.781l8.716-12.308Z" transform="translate(-3354 -13110)" fill="#515151" fill-rule="evenodd"/><path d="M330.89,15.021c.884-1.541,5.045-5.177-1.306-5.308-3.127-.062-4.656.179-7.358,3.4s-3.018,5.759.477,5.878l4.976.008,1.551-2.141H324.3c-1.7.056-1.59-.452-.7-1.836Zm-2.37-3.933c2.51,0,1.822.521,1.086,2.212h-4.5a3.866,3.866,0,0,1,3.412-2.212" transform="translate(-3354 -13110)" fill="#515151" fill-rule="evenodd"/><path d="M323.5,9.568l-1.353,1.993c-3.4-.07-5.1.285-6.619,2.273-1.033,1.362-2.479,3.071-.249,3.057l4-.035-1.292,1.954-4.928.013c-1.064,0-3.447-.749-1.979-3.009,2.2-3.114,3.639-5.247,6.456-6a25.121,25.121,0,0,1,5.961-.25" transform="translate(-3354 -13110)" fill="#515151" fill-rule="evenodd"/><path d="M316.742,6.515,308,18.788h-2.925l8.768-12.273Z" transform="translate(-3354 -13110)" fill="#515151" fill-rule="evenodd"/><path d="M306.742,14.828c.951-1.55,4.4-5.186-1.253-5.3-3.127-.074-4.655.166-7.358,3.4S295,18.678,298.6,18.8h4.967l1.634-2.129h-5.011c-1.577.07-1.577-.464-.688-1.84Zm-2.33-3.933c1.989,0,1.822.521,1.1,2.216H301a3.862,3.862,0,0,1,3.412-2.216" transform="translate(-3354 -13110)" fill="#515151" fill-rule="evenodd"/><path d="M300.689,9.025l-1.432,1.752h-2.239l-3.849,5.239c-.64,1.055.048.911,1.8.9L293.948,18.8l-3.412-.022c-1.572,0-1.016-1.717-.565-2.321l4.218-5.677h-1.437l1.236-1.752h1.432l1.918-2.51H300.4l-1.966,2.51Z" transform="translate(-3354 -13110)" fill="#515151" fill-rule="evenodd"/><path d="M284.413,18.24h-2.059l.035.048-.346.486-.521-.534-11.16.013.521-.806h9.859l-.131-.153h.994l.11.153h3.232Z" transform="translate(-3354 -13110)" fill="#515151" fill-rule="evenodd"/><path d="M285.574,16.475h-4.621l.263.333h-1.078l-.319-.333-8.292.013.53-.819h6.978l-.141-.153h1.3l.119.153h5.807Z" transform="translate(-3354 -13110)" fill="#515151" fill-rule="evenodd"/><path d="M286.783,14.675h-7.249l.272.355h-1.385l-.346-.355-5.343.013.534-.819h3.8l.118-.166h2.633l-.132.166h7.643Z" transform="translate(-3354 -13110)" fill="#515151" fill-rule="evenodd"/><path d="M288.491,12.1l-.534.806-7.525.013-.237.3h-2.676l.215-.3h-3.842l.535-.806h3.863l.153-.223h2.786l-.18.223Z" transform="translate(-3354 -13110)" fill="#515151" fill-rule="evenodd"/><path d="M289.674,10.317l-.534.806h-7.319l-.215.285h-2.83l.2-.285h-3.885l.53-.806h3.911l.154-.215h2.925l-.166.215Z" transform="translate(-3354 -13110)" fill="#515151" fill-rule="evenodd"/><path d="M290.834,8.6l-.543.806h-7.135l-.162.21H280.02l.153-.21H276.24l.534-.806h3.955l.14-.215h3.084l-.166.215Z" transform="translate(-3354 -13110)" fill="#515151" fill-rule="evenodd"/><path d="M293.156,5.1l-.534.793-6.737.013-.193.25h-3.28l.179-.25h-4.016L279.1,5.1h5.992l.674-1.069h-.118l.333-.521h.556l-.368.521h-.091L285.316,5.1Z" transform="translate(-3354 -13110)" fill="#515151" fill-rule="evenodd"/><path d="M292.043,6.786l-.543.806h-6.934l-.236.307H281.2l.215-.307h-3.968l.534-.806h3.99l.1-.145h3.237l-.118.145Z" transform="translate(-3354 -13110)" fill="#515151" fill-rule="evenodd"/><path d="M273.628,22.435a.839.839,0,0,1,.116.292.928.928,0,0,1-.01.365,1.288,1.288,0,0,1-.23.487.936.936,0,0,1-.484.338.479.479,0,0,1,.281.275,1.071,1.071,0,0,1-.015.543l-.05.233a2.054,2.054,0,0,0-.049.323.227.227,0,0,0,.09.2l-.017.087h-.8q-.009-.115-.009-.186a1.556,1.556,0,0,1,.033-.3l.063-.323c.044-.222.035-.369-.027-.443a.547.547,0,0,0-.413-.111h-.749l-.288,1.362h-.709L271.1,22.1h1.7a1.431,1.431,0,0,1,.542.089.657.657,0,0,1,.283.243m-1.949.271-.2.933h.822a1.029,1.029,0,0,0,.38-.056.508.508,0,0,0,.3-.392q.066-.315-.12-.424a.709.709,0,0,0-.341-.061Z" transform="translate(-3354 -13110)" fill="#515151"/><path d="M275.114,24.014a1.245,1.245,0,0,0,.281-.059.272.272,0,0,0,.184-.191.187.187,0,0,0-.064-.218.6.6,0,0,0-.309-.06.51.51,0,0,0-.363.118.647.647,0,0,0-.143.235h-.648a1.263,1.263,0,0,1,.306-.553,1.333,1.333,0,0,1,.987-.34,1.413,1.413,0,0,1,.714.168c.2.111.259.322.193.631L276,24.923c-.017.082-.036.181-.056.3a.35.35,0,0,0,0,.179.175.175,0,0,0,.081.078l-.019.1h-.73a.688.688,0,0,1-.012-.146c0-.046.006-.1.014-.156a1.881,1.881,0,0,1-.374.257,1.135,1.135,0,0,1-.519.125.69.69,0,0,1-.533-.2.6.6,0,0,1-.108-.564.956.956,0,0,1,.512-.686,1.9,1.9,0,0,1,.624-.165Zm.342.313a.886.886,0,0,1-.141.065,1.345,1.345,0,0,1-.189.046l-.155.028a1.179,1.179,0,0,0-.326.092.4.4,0,0,0-.214.285.257.257,0,0,0,.041.249.3.3,0,0,0,.216.076.809.809,0,0,0,.426-.127.7.7,0,0,0,.29-.464Z" transform="translate(-3354 -13110)" fill="#515151"/><path d="M278.592,23.333l.259-1.225h.681l-.735,3.468h-.652l.075-.355a1.31,1.31,0,0,1-.4.332,1.06,1.06,0,0,1-.48.1.754.754,0,0,1-.68-.364,1.232,1.232,0,0,1-.109-.935,2,2,0,0,1,.524-1.034,1.23,1.23,0,0,1,.889-.377.714.714,0,0,1,.393.1.606.606,0,0,1,.234.284m-.193,1a.732.732,0,0,0-.094-.674.419.419,0,0,0-.314-.122.594.594,0,0,0-.479.222,1.27,1.27,0,0,0-.256.553.939.939,0,0,0,.019.569.372.372,0,0,0,.379.213.628.628,0,0,0,.48-.212,1.132,1.132,0,0,0,.265-.549" transform="translate(-3354 -13110)" fill="#515151"/><path d="M279.961,23.008h.681l-.544,2.569h-.681Zm.747-.306h-.681l.132-.62h.681Z" transform="translate(-3354 -13110)" fill="#515151"/><path d="M281.882,25.666a.96.96,0,0,1-.9-.4,1.3,1.3,0,0,1-.119-.967,1.872,1.872,0,0,1,.53-.964,1.465,1.465,0,0,1,1.074-.407.952.952,0,0,1,.9.407,1.314,1.314,0,0,1,.121.964,1.873,1.873,0,0,1-.532.967,1.47,1.47,0,0,1-1.073.4m.9-1.369a.872.872,0,0,0-.032-.6.424.424,0,0,0-.409-.208.666.666,0,0,0-.5.208,1.19,1.19,0,0,0-.285.6.876.876,0,0,0,.032.6.424.424,0,0,0,.409.21.664.664,0,0,0,.5-.21,1.2,1.2,0,0,0,.285-.6" transform="translate(-3354 -13110)" fill="#515151"/><path d="M287.7,23.248a.627.627,0,0,1,.075.33,2.512,2.512,0,0,1-.056.379l-.349,1.619h-.688l.346-1.635a.521.521,0,0,0,.005-.241c-.034-.119-.132-.179-.292-.179a.5.5,0,0,0-.434.231.884.884,0,0,0-.117.3l-.323,1.529h-.676l.322-1.529a.819.819,0,0,0,.024-.332c-.03-.125-.127-.187-.292-.187a.5.5,0,0,0-.427.187.863.863,0,0,0-.12.315l-.327,1.546h-.681l.544-2.564h.653l-.081.375a1.457,1.457,0,0,1,.3-.285.944.944,0,0,1,.538-.151.684.684,0,0,1,.45.13.57.57,0,0,1,.155.308,1.17,1.17,0,0,1,.4-.332,1.134,1.134,0,0,1,.483-.106.791.791,0,0,1,.321.066.566.566,0,0,1,.252.231" transform="translate(-3354 -13110)" fill="#515151"/><path d="M289.12,25.666a.96.96,0,0,1-.9-.4,1.3,1.3,0,0,1-.119-.967,1.872,1.872,0,0,1,.53-.964,1.462,1.462,0,0,1,1.075-.408.953.953,0,0,1,.9.408,1.319,1.319,0,0,1,.12.964,1.86,1.86,0,0,1-.532.967,1.468,1.468,0,0,1-1.073.4m.9-1.369a.866.866,0,0,0-.032-.6.424.424,0,0,0-.408-.209.669.669,0,0,0-.5.209,1.19,1.19,0,0,0-.285.6.876.876,0,0,0,.032.6.425.425,0,0,0,.409.21.664.664,0,0,0,.5-.21,1.2,1.2,0,0,0,.285-.6m.693-2.34-.867.7h-.486l.6-.7Z" transform="translate(-3354 -13110)" fill="#515151"/><path d="M293.062,23.008h.721l-1.47,2.568h-.71l-.377-2.568h.754l.132,1.894Z" transform="translate(-3354 -13110)" fill="#515151"/><path d="M294.172,23.008h.681l-.544,2.569h-.681Zm.747-.306h-.681l.132-.62h.681Z" transform="translate(-3354 -13110)" fill="#515151"/><path d="M295.645,25.576h-.672l.738-3.473h.672Z" transform="translate(-3354 -13110)" fill="#515151"/><path d="M300.449,22.178a.849.849,0,0,1,.5.441,1.27,1.27,0,0,1,.129.561,2.878,2.878,0,0,1-.584,1.748,1.591,1.591,0,0,1-1.3.648h-1.5l.737-3.473h1.5a1.668,1.668,0,0,1,.521.075m-1.442.528-.481,2.267h.67a.936.936,0,0,0,.824-.507,2.065,2.065,0,0,0,.25-.662,1.521,1.521,0,0,0,.007-.814q-.107-.283-.6-.284Z" transform="translate(-3354 -13110)" fill="#515151"/><path d="M301.844,25.576h-.721l.738-3.473h.721Z" transform="translate(-3354 -13110)" fill="#515151"/><path d="M304.259,24.327h-.737l-.264,1.249h-.721l.737-3.473h1.513a1.017,1.017,0,0,1,.776.268.9.9,0,0,1,.136.832,1.355,1.355,0,0,1-.5.87,1.621,1.621,0,0,1-.943.254m.283-1.621h-.676l-.217,1.023h.676a.7.7,0,0,0,.427-.125.63.63,0,0,0,.226-.4.4.4,0,0,0-.06-.387.526.526,0,0,0-.376-.115" transform="translate(-3354 -13110)" fill="#515151"/><path d="M306.491,24.5a.623.623,0,0,0,.054.356.612.612,0,0,0,.561.214,1.417,1.417,0,0,0,.429-.056.531.531,0,0,0,.389-.4.239.239,0,0,0-.1-.267,1.3,1.3,0,0,0-.438-.162l-.351-.083a1.87,1.87,0,0,1-.693-.266.7.7,0,0,1-.191-.751,1.287,1.287,0,0,1,.505-.776A1.71,1.71,0,0,1,307.723,22a1.26,1.26,0,0,1,.874.291.854.854,0,0,1,.227.844h-.7a.394.394,0,0,0-.176-.445.806.806,0,0,0-.4-.087.923.923,0,0,0-.473.113.466.466,0,0,0-.234.316.238.238,0,0,0,.106.278,1.64,1.64,0,0,0,.422.143l.567.144a1.23,1.23,0,0,1,.54.252.711.711,0,0,1,.16.71,1.293,1.293,0,0,1-.532.79,1.812,1.812,0,0,1-1.1.315,1.4,1.4,0,0,1-1-.31.855.855,0,0,1-.208-.852Z" transform="translate(-3354 -13110)" fill="#515151"/><path d="M310.689,22.1h.82L312,25.576h-.787l-.073-.714h-1.28l-.391.714h-.759Zm-.5,2.161h.881l-.143-1.367Z" transform="translate(-3354 -13110)" fill="#515151"/><path d="M314.358,24.5a.623.623,0,0,0,.054.356.612.612,0,0,0,.561.214,1.418,1.418,0,0,0,.429-.056.53.53,0,0,0,.389-.4.239.239,0,0,0-.095-.267,1.3,1.3,0,0,0-.438-.162l-.351-.083a1.87,1.87,0,0,1-.693-.266.7.7,0,0,1-.191-.751,1.287,1.287,0,0,1,.505-.776A1.71,1.71,0,0,1,315.59,22a1.265,1.265,0,0,1,.875.291.856.856,0,0,1,.226.844h-.7a.394.394,0,0,0-.176-.445.806.806,0,0,0-.4-.087.923.923,0,0,0-.473.113.465.465,0,0,0-.234.316.238.238,0,0,0,.106.278,1.641,1.641,0,0,0,.422.143l.567.144a1.23,1.23,0,0,1,.54.252.711.711,0,0,1,.16.71,1.293,1.293,0,0,1-.532.79,1.812,1.812,0,0,1-1.1.315,1.4,1.4,0,0,1-1-.31.855.855,0,0,1-.208-.852Z" transform="translate(-3354 -13110)" fill="#515151"/><path d="M316.908,24.874h.714l-.148.7h-.714Z" transform="translate(-3354 -13110)" fill="#515151"/><path d="M319.9,22.1h.82l.493,3.473h-.787l-.073-.714h-1.28l-.391.714h-.759Zm-.5,2.161h.881l-.143-1.367Z" transform="translate(-3354 -13110)" fill="#515151"/><path d="M321.733,24.874h.714l-.149.7h-.713Z" transform="translate(-3354 -13110)" fill="#515151"/><path d="M326.41,23.333l.259-1.225h.681l-.735,3.468h-.652l.075-.355a1.31,1.31,0,0,1-.4.332,1.06,1.06,0,0,1-.48.1.754.754,0,0,1-.68-.364,1.232,1.232,0,0,1-.109-.935,2,2,0,0,1,.524-1.034,1.23,1.23,0,0,1,.889-.377.714.714,0,0,1,.393.1.606.606,0,0,1,.234.284m-.193,1a.732.732,0,0,0-.094-.674.419.419,0,0,0-.314-.122.594.594,0,0,0-.479.222,1.27,1.27,0,0,0-.256.553.939.939,0,0,0,.019.569.372.372,0,0,0,.379.213.628.628,0,0,0,.48-.212,1.132,1.132,0,0,0,.265-.549" transform="translate(-3354 -13110)" fill="#515151"/><path d="M329.692,23.439a1.073,1.073,0,0,1,.083.53,3.3,3.3,0,0,1-.085.509h-1.758a.53.53,0,0,0,.128.542.48.48,0,0,0,.313.1.589.589,0,0,0,.363-.118.832.832,0,0,0,.162-.177h.686a1.133,1.133,0,0,1-.337.464,1.433,1.433,0,0,1-1,.375,1.062,1.062,0,0,1-.8-.316,1.093,1.093,0,0,1-.157-1.027,1.784,1.784,0,0,1,.555-1.023,1.419,1.419,0,0,1,.953-.356,1.178,1.178,0,0,1,.553.121.732.732,0,0,1,.342.379m-1.649.6h1.044a.489.489,0,0,0-.077-.4.41.41,0,0,0-.331-.138.56.56,0,0,0-.392.146.938.938,0,0,0-.244.4" transform="translate(-3354 -13110)" fill="#515151"/><path d="M332.3,22.466a1.781,1.781,0,0,1,1.171-.429,1.162,1.162,0,0,1,1.159.575,1.06,1.06,0,0,1,.1.648h-.726a.788.788,0,0,0-.1-.377.594.594,0,0,0-.538-.226.916.916,0,0,0-.692.319,1.863,1.863,0,0,0-.42.9,1.212,1.212,0,0,0,.054.875.6.6,0,0,0,.552.291.871.871,0,0,0,.636-.25,1.4,1.4,0,0,0,.269-.4h.718a2.048,2.048,0,0,1-.677.924,1.708,1.708,0,0,1-1.069.356,1.209,1.209,0,0,1-1.077-.481,1.7,1.7,0,0,1-.146-1.324,2.407,2.407,0,0,1,.785-1.4" transform="translate(-3354 -13110)" fill="#515151"/><path d="M334.872,24.874h.714l-.148.7h-.714Z" transform="translate(-3354 -13110)" fill="#515151"/><path d="M338.9,22.1h.754l-1.923,3.473h-.685l-.436-3.473h.775l.193,2.637Z" transform="translate(-3354 -13110)" fill="#515151"/><path d="M338.988,24.874h.714l-.148.7h-.714Z" transform="translate(-3354 -13110)" fill="#515151"/></g></svg>