<svg xmlns="http://www.w3.org/2000/svg" width="84.966" height="25.746" viewBox="0 0 84.966 25.746"><g transform="translate(2952.779 13108.281)"><rect width="2.958" height="25.747" transform="translate(-2870.772 -13108.28)" fill="#515151"/><path d="M473.312,11.7v1.056h-2.2V17.4h-1.483V12.756h-2.2V11.7Z" transform="translate(-3354 -13110)" fill="#515151"/><path d="M468.064,16.344V17.4h-4.712V11.7h1.482v4.644Z" transform="translate(-3354 -13110)" fill="#515151"/><path d="M439.517,16.344V17.4h-4.951V11.7h4.858v1.056h-3.375v1.253h3.084v1.022h-3.084v1.313Z" transform="translate(-3354 -13110)" fill="#515151"/><path d="M431.91,15.283a1.984,1.984,0,0,0,1.027-1.733,1.672,1.672,0,0,0-.536-1.356,2.928,2.928,0,0,0-1.974-.494h-3.4l-.061.344s.061.1.131.225a.529.529,0,0,1,.1.357V17.4h1.484V15.575h1.842l.989,1.826h1.633Zm-.75-.925a.6.6,0,0,1-.46.165h-2.022V12.786h1.6a1.39,1.39,0,0,1,.9.193.757.757,0,0,1,.249.64.981.981,0,0,1-.265.739" transform="translate(-3354 -13110)" fill="#515151"/><path d="M445.726,11.7v3.782c-.346-.436-.709-.856-1.323-1.53-.5-.549-1.54-1.673-2.075-2.251H440.9l-.059.344s.061.1.131.226a.517.517,0,0,1,.1.273V17.4l1.332,0V13.62c.266.355.74.9,1.056,1.242.629.68,1.579,1.74,2.318,2.539h1.281V11.7Z" transform="translate(-3354 -13110)" fill="#515151"/><path d="M460.245,11.7v3.486a.988.988,0,0,1-.267.8,1.747,1.747,0,0,1-1.209.33,1.783,1.783,0,0,1-1.227-.33.993.993,0,0,1-.267-.8V11.7h-1.651l-.06.344s.062.1.131.226a.552.552,0,0,1,.1.265v2.7c0,1.491,1.01,2.249,2.957,2.249h.041c1.949,0,2.9-.737,2.9-2.249V11.7Z" transform="translate(-3354 -13110)" fill="#515151"/><path d="M452.492,11.7h-1.854c-.561,1.16-1.539,3.3-2.454,5.7h1.488c.119-.324.245-.656.371-.987h3.043c.129.331.254.663.372.987h1.489c-.916-2.4-1.894-4.541-2.455-5.7m-2.023,3.639c.39-.971.781-1.89,1.1-2.6.316.713.708,1.632,1.1,2.6Z" transform="translate(-3354 -13110)" fill="#515151"/><path d="M428.616,20.171c.9,0,1.275.335,1.275,1.119s-.378,1.113-1.275,1.113h-.995v1.4h-.433V20.512c0-.039-.016-.055-.054-.071l-.162-.07.038-.2Zm-.995,1.881h.962c.616,0,.87-.221.87-.762s-.254-.762-.87-.762h-.962Z" transform="translate(-3354 -13110)" fill="#515151"/><path d="M432.059,23.533a1.015,1.015,0,0,1-.886.335c-.686,0-1-.243-1-.773s.325-.767,1.059-.767a2.437,2.437,0,0,1,.768.113V22.08c0-.449-.227-.628-.784-.628a2.662,2.662,0,0,0-.811.13v-.346a2.96,2.96,0,0,1,.86-.124c.811,0,1.151.3,1.151,1v1.324c0,.043.006.06.044.076l.162.07-.044.221h-.448c-.033,0-.044,0-.049-.042ZM432,22.744a1.92,1.92,0,0,0-.7-.119c-.492,0-.7.13-.7.465,0,.319.2.465.654.465.519,0,.746-.178.746-.573Z" transform="translate(-3354 -13110)" fill="#515151"/><path d="M434.119,21.112a3.093,3.093,0,0,1,.849.119l-.071.335a2.386,2.386,0,0,0-.756-.119c-.444,0-.649.146-.649.417,0,.637,1.584.156,1.584,1.21,0,.524-.384.8-1.054.8a3.057,3.057,0,0,1-.92-.13v-.351a2.759,2.759,0,0,0,.887.146c.46,0,.67-.168.67-.454,0-.709-1.583-.174-1.583-1.211,0-.509.389-.757,1.043-.757" transform="translate(-3354 -13110)" fill="#515151"/><path d="M436.59,21.112a3.093,3.093,0,0,1,.849.119l-.071.335a2.382,2.382,0,0,0-.756-.119c-.444,0-.649.146-.649.417,0,.637,1.584.156,1.584,1.21,0,.524-.384.8-1.054.8a3.046,3.046,0,0,1-.919-.13v-.351a2.748,2.748,0,0,0,.886.146c.46,0,.67-.168.67-.454,0-.709-1.583-.174-1.583-1.211,0-.509.389-.757,1.043-.757" transform="translate(-3354 -13110)" fill="#515151"/><path d="M438.082,21.176h.546c.037,0,.048.011.048.055V23.8h-.433v-2.26c0-.043-.005-.059-.042-.076l-.163-.07Zm.367-1.075c.2,0,.281.081.281.276s-.086.27-.281.27-.281-.081-.281-.27.081-.276.281-.276" transform="translate(-3354 -13110)" fill="#515151"/><path d="M440.628,21.111c.908,0,1.292.411,1.292,1.379s-.384,1.378-1.292,1.378-1.3-.4-1.3-1.378.389-1.379,1.3-1.379m0,2.411c.6,0,.849-.3.849-1.032s-.249-1.032-.849-1.032-.854.3-.854,1.032.248,1.032.854,1.032" transform="translate(-3354 -13110)" fill="#515151"/><path d="M444.833,23.436c0,.044.006.06.043.076l.162.07-.043.221h-.546c-.038,0-.049-.01-.049-.053V22.166c0-.508-.189-.7-.659-.7a1.57,1.57,0,0,0-.778.195V23.8h-.433V21.544c0-.043-.005-.059-.043-.076l-.162-.07.043-.222h.546c.038,0,.049.011.049.055v.183a1.214,1.214,0,0,1,.854-.3c.724,0,1.016.3,1.016,1.043Z" transform="translate(-3354 -13110)" fill="#515151"/><path d="M447.509,21.176h.789v.342h-.789V23.8h-.432V21.582c0-.059,0-.064-.055-.08l-.307-.087.037-.239h.325v-.345c0-.632.275-.9.924-.9a1.482,1.482,0,0,1,.492.07l-.071.335a1.194,1.194,0,0,0-.373-.059c-.378,0-.54.156-.54.534Z" transform="translate(-3354 -13110)" fill="#515151"/><path d="M449.861,21.111c.908,0,1.292.411,1.292,1.379s-.384,1.378-1.292,1.378-1.3-.4-1.3-1.378.389-1.379,1.3-1.379m0,2.411c.6,0,.849-.3.849-1.032s-.249-1.032-.849-1.032-.854.3-.854,1.032.248,1.032.854,1.032" transform="translate(-3354 -13110)" fill="#515151"/><path d="M451.78,21.544c0-.044-.006-.059-.044-.076l-.161-.07.043-.221h.546c.038,0,.048.01.048.053V21.5a1.021,1.021,0,0,1,.855-.383,1.593,1.593,0,0,1,.254.021l-.076.378a1,1,0,0,0-.244-.032,1.137,1.137,0,0,0-.789.287V23.8h-.432Z" transform="translate(-3354 -13110)" fill="#515151"/><path d="M455.294,23.436c0,.044.006.06.043.076l.162.07-.043.221h-.546c-.038,0-.048-.01-.048-.053V20.366c0-.044-.006-.06-.044-.076l-.162-.07L454.7,20h.546c.038,0,.049.011.049.054Z" transform="translate(-3354 -13110)" fill="#515151"/><path d="M456.11,21.176h.546c.037,0,.048.011.048.055V23.8h-.432v-2.26c0-.043-.006-.059-.043-.076l-.163-.07Zm.367-1.075c.2,0,.281.081.281.276s-.086.27-.281.27-.281-.081-.281-.27.081-.276.281-.276" transform="translate(-3354 -13110)" fill="#515151"/><path d="M458.164,21.176h.789v.342h-.789V23.8h-.433V21.582c0-.059,0-.064-.054-.08l-.307-.087.037-.239h.324v-.345c0-.632.276-.9.925-.9a1.482,1.482,0,0,1,.492.07l-.071.335a1.194,1.194,0,0,0-.373-.059c-.378,0-.54.156-.54.534Z" transform="translate(-3354 -13110)" fill="#515151"/><path d="M460.461,21.112c.8,0,1.136.4,1.136,1.335a1.468,1.468,0,0,1-.006.167H459.64c.022.654.308.914,1.016.914a2.8,2.8,0,0,0,.838-.13v.346a2.789,2.789,0,0,1-.87.124c-.989,0-1.411-.405-1.411-1.378s.373-1.378,1.248-1.378m-.821,1.2h1.541c-.011-.638-.217-.892-.72-.892-.562,0-.8.265-.821.892" transform="translate(-3354 -13110)" fill="#515151"/><path d="M421.629,13.9c-.374-.78-1.537-3.07-2.523-4.857-1.351-2.45-3.765-6.484-4.039-6.852a.772.772,0,0,0-.673-.406l-.036,0c-.365-.04-1.912-.058-2.842-.058-.8,0-2.491.02-2.885.06a.807.807,0,0,0-.684.427c-.291.38-2.744,4.529-4.022,6.833-.925,1.666-2.388,4.546-2.524,4.857a1.765,1.765,0,0,0-.18.692,1.656,1.656,0,0,0,.181.693c.306.665,1.232,2.508,2.523,4.856,1.347,2.451,3.78,6.5,4.038,6.852a.79.79,0,0,0,.7.411c.374.033,1.99.058,2.855.058.933,0,2.621-.037,2.854-.058a.8.8,0,0,0,.7-.411c.246-.339,2.863-4.7,4.039-6.852,1.127-2.059,2.379-4.533,2.523-4.856a1.593,1.593,0,0,0,.181-.693,1.633,1.633,0,0,0-.181-.692m-6.6,1.446c-1.368,2.942-5.066,9.767-5.833,11.073-.05.083-.09.149-.12.2-.114.174-.212.274-.295.27a54.229,54.229,0,0,0,2.435-5.181c-1.2-2.215-2.234-4.264-3.227-6.372a1.9,1.9,0,0,1-.261-.746h0a1.991,1.991,0,0,1,.264-.745c1.436-3.089,4.951-9.712,5.97-11.289.118-.183.182-.252.266-.252h.009s-1.42,2.657-2.433,5.182c1.2,2.214,2.239,4.268,3.231,6.376a1.918,1.918,0,0,1,.262.737,2.02,2.02,0,0,1-.268.751" transform="translate(-3354 -13110)" fill="#515151"/></g></svg>