<svg xmlns="http://www.w3.org/2000/svg" width="55.841" height="31.564" viewBox="0 0 55.841 31.564"><g transform="translate(3351.676 13043.471)"><path d="M24.949,81.146H18.664v-1.97l.756.111c.024,0,.062,0,.112,0,.592,0,.592-.281.592-.506V74.1c-.038-.071-.194-.267-.786-.267h-.661V71.982h5.1v1.356a4.569,4.569,0,0,1,2.524-1.37c1.376,0,2.134.631,2.134,1.776a1.806,1.806,0,0,1-1.882,1.669,2.186,2.186,0,0,1-1.594-.789,3.546,3.546,0,0,0-1.169.88l0,3.368-.017.066a.342.342,0,0,0,.03.218c.042.052.194.114.484.114h.661ZM18.9,80.907H24.71v-1.4h-.422a.9.9,0,0,1-.67-.2.564.564,0,0,1-.077-.422l.015-.056V75.412l.03-.034a3.626,3.626,0,0,1,1.384-1.014l.093-.034.05.086a1.9,1.9,0,0,0,1.444.759A1.568,1.568,0,0,0,28.2,73.744c0-1.02-.638-1.537-1.9-1.537a4.565,4.565,0,0,0-2.562,1.49l-.2.189V72.22H18.916V73.6h.422c.766,0,.966.305,1.017.437l.008.02v4.733c0,.223,0,.744-.831.745-.079,0-.134-.007-.141-.007l-.488-.071Z" transform="translate(-3354 -13110)" fill="#515151"/><path d="M31.533,71.785c-1.319,0-2.353-.79-2.353-1.8s1.034-1.8,2.353-1.8,2.353.79,2.353,1.8-1.034,1.8-2.353,1.8m0-3.359c-1.185,0-2.114.685-2.114,1.56s.929,1.56,2.114,1.56,2.114-.685,2.114-1.56-.929-1.56-2.114-1.56" transform="translate(-3354 -13110)" fill="#515151"/><path d="M35.179,81.12h-6.6V79.146l.749.1h.035c.347,0,.411-.16.411-.473V73.913a1.406,1.406,0,0,0-.493-.065h-.662V71.982h5.356l0,6.895a.439.439,0,0,0,.087.278.655.655,0,0,0,.462.125h.661Zm-6.363-.239h6.125V79.519h-.423a.843.843,0,0,1-.636-.2.667.667,0,0,1-.152-.447l0-.04V72.221H28.855v1.388h.423a1.216,1.216,0,0,1,.68.133l.051.035v5a.6.6,0,0,1-.649.712l-.054,0-.49-.065Z" transform="translate(-3354 -13110)" fill="#515151"/><path d="M39.408,81.174a4.548,4.548,0,0,1-4.734-4.816c0-3.451,3.138-4.363,4.8-4.363,1.248,0,3.609.538,3.609,2.572a1.685,1.685,0,0,1-1.727,1.9,2.052,2.052,0,0,1-1.865-1,2,2,0,0,1,.138-1.682,1.606,1.606,0,0,0-.192-.011c-.558,0-1.011,1.168-1.011,2.6,0,.982.355,2.643,1.687,2.643a2.041,2.041,0,0,0,1.8-1.311.828.828,0,0,1,.753-.622.688.688,0,0,1,.495.209,1.12,1.12,0,0,1,.237.874v.024c-.063,1.03-.963,2.974-3.914,2.978h-.069m.064-8.94c-1.577,0-4.56.862-4.56,4.124a4.321,4.321,0,0,0,4.5,4.577h.065c2.777,0,3.621-1.8,3.68-2.751v-.019a.93.93,0,0,0-.168-.7.454.454,0,0,0-.325-.137c-.372,0-.513.416-.528.463a2.284,2.284,0,0,1-2.021,1.47c-1.52,0-1.926-1.811-1.926-2.882,0-1.378.438-2.842,1.25-2.842a1.173,1.173,0,0,1,.44.066l.152.063-.107.125a1.687,1.687,0,0,0-.206,1.6,1.861,1.861,0,0,0,1.64.844c.349,0,1.489-.12,1.489-1.664,0-1.845-2.2-2.333-3.371-2.333" transform="translate(-3354 -13110)" fill="#515151"/><path d="M43.2,93.99H43.19a4.586,4.586,0,0,1-3.565-1.368A4.954,4.954,0,0,1,38.511,89.1a4.623,4.623,0,0,1,9.228.053l.015.675H42.195A2.555,2.555,0,0,0,42.82,91.5a.889.889,0,0,0,.564.264l.015,0,.859-.092-.14.057a2.874,2.874,0,0,0,2.027-.846l.031-.044c.291-.378.543-.612.9-.612a.7.7,0,0,1,.549.263.873.873,0,0,1,.14.744l-.029.1c-.967,2.529-4.38,2.663-4.525,2.667Zm-.048-8.965a4.232,4.232,0,0,0-4.4,4.089A4.706,4.706,0,0,0,39.8,92.462a4.359,4.359,0,0,0,3.388,1.29l.008.119,0-.119H43.2c.137,0,3.4-.132,4.308-2.514l.018-.061a.638.638,0,0,0-.092-.543.465.465,0,0,0-.363-.174c-.258,0-.463.2-.709.518l-.022.031c-.006.009-.69.989-2.938.989h-.62l.225-.09a1.265,1.265,0,0,1-.355-.238,2.882,2.882,0,0,1-.709-1.957l-.01-.128H47.51l-.01-.431a4.22,4.22,0,0,0-4.35-4.129m-1.237,3.209.017-.135a1.847,1.847,0,0,1,.4-1,1.322,1.322,0,0,1,1.038-.391,1.459,1.459,0,0,1,1.152.426,1.729,1.729,0,0,1,.38.948l.015.133Zm1.453-1.283a1.1,1.1,0,0,0-.861.312,1.489,1.489,0,0,0-.318.731l2.454-.013a1.388,1.388,0,0,0-.3-.684,1.234,1.234,0,0,0-.974-.346" transform="translate(-3354 -13110)" fill="#515151"/><path d="M14.7,72.63A1.356,1.356,0,0,0,13.2,71.287H11.852v2.672H13.42A1.229,1.229,0,0,0,14.7,72.63m-2.606,1.09V71.526H13.2a1.129,1.129,0,0,1,1.254,1.1,1,1,0,0,1-1.038,1.09Z" transform="translate(-3354 -13110)" fill="#515151"/><path d="M49.793,74.32a1.459,1.459,0,0,0-1.152-.426,1.321,1.321,0,0,0-1.038.391,1.832,1.832,0,0,0-.4,1l-.017.135,3-.015-.016-.133a1.73,1.73,0,0,0-.379-.948m-2.331.856a1.484,1.484,0,0,1,.317-.73,1.1,1.1,0,0,1,.862-.313,1.232,1.232,0,0,1,.974.347,1.4,1.4,0,0,1,.3.683Z" transform="translate(-3354 -13110)" fill="#515151"/><path d="M54.064,86.668l-.015-.01a2.392,2.392,0,0,0-1.439-.389h0a2.382,2.382,0,0,0-1.135.258c-.33.17-.379.355-.383.518a.232.232,0,0,0,.109.188,2.066,2.066,0,0,0,.56.315,7.676,7.676,0,0,0,.882.237l.018,0c.17.043.274.069.379.094l.392.1a7.952,7.952,0,0,1,1.154.328l.263.1-.037-.328c-.108-.969-.308-1.107-.747-1.41m-.58,1.08-.388-.1-.379-.1-.023,0a7.388,7.388,0,0,1-.852-.228,1.82,1.82,0,0,1-.493-.277l-.019-.016c0-.071.022-.173.255-.292a2.146,2.146,0,0,1,1.024-.231,2.172,2.172,0,0,1,1.306.347l.013.009c.4.278.543.375.639,1.185a8.084,8.084,0,0,0-1.083-.3" transform="translate(-3354 -13110)" fill="#515151"/><path d="M56.593,89.5a2.821,2.821,0,0,0-.76-.812h.628v-.912a9.966,9.966,0,0,0,1.7-5.468c0-4.26-2.935-8.246-8.265-11.225-5.257-2.939-12.237-4.557-19.655-4.557a44.091,44.091,0,0,0-15.875,2.788l-8.563,0v1.893h.661c1.095,0,1.409.383,1.422.6v1.025c-3.611,2.712-5.566,6-5.566,9.477a10.937,10.937,0,0,0,3.495,7.677v3.821H8v-.352a7.184,7.184,0,0,1,1.189.2l.038.008c.32.056.64.108.98.158a8.793,8.793,0,0,0,1.047.071,41.6,41.6,0,0,0,18.988,4.2A41.656,41.656,0,0,0,49.187,93.92H50v-.187a6.079,6.079,0,0,1,.712.133l.04.008c.243.043.49.083.755.121a7.037,7.037,0,0,0,.922.058h0a5.693,5.693,0,0,0,3.04-.808,2.767,2.767,0,0,0,1.466-2.362v-.021a2.635,2.635,0,0,0-.337-1.344ZM6.467,70.968H6.045V69.553h9.088l.025,0a3.136,3.136,0,0,1,2.852,3.258v.016c-.038,1.082-1,3.128-4.391,3.128H11.84v2.825l.027.033c.1.124.487.411,1.858.411h.422v1.681h-8.1V79.165l.468.051s.16.016.379.016c.29,0,1.236-.034,1.236-.472V71.8c-.009-.139-.128-.834-1.661-.834M9.272,93.431l-.029-.006a6.714,6.714,0,0,0-1.36-.212H7.764v.357H6.056v-4.3H7.689l.047.37c.16,1.3.523,1.755,1.138,2.14a4.359,4.359,0,0,0,2.4.637A3.508,3.508,0,0,0,13.017,92a1.043,1.043,0,0,0,.6-.91.765.765,0,0,0-.191-.536,1.6,1.6,0,0,0-.683-.419l-.017-.007a8.129,8.129,0,0,0-1.139-.343c-.434-.1-.9-.2-1.4-.315a12.316,12.316,0,0,1-1.4-.418,6.856,6.856,0,0,1-1.3-.629,3,3,0,0,1-1-1.039,2.906,2.906,0,0,1-.4-1.546A2.938,2.938,0,0,1,7.841,83.2a7.322,7.322,0,0,1,3.446-.805,8.369,8.369,0,0,1,1.991.223,4.556,4.556,0,0,0,1.065.2h.037l.088,0,.02-.087c.008-.035.017-.08.021-.111.008-.048.017-.092.026-.13l.076-.326H16.23v4.608H14.674l-.034-.386a2.544,2.544,0,0,0-1.286-2.157,2.557,2.557,0,0,0-1.726-.491h0a3.284,3.284,0,0,0-1.55.355.874.874,0,0,0-.573.792.44.44,0,0,0,.195.361,2.823,2.823,0,0,0,.767.432,10.254,10.254,0,0,0,1.175.318l1.034.257a10.02,10.02,0,0,1,1.495.427c.111.039.222.082.332.128l.182.077v0l.22.114a5.414,5.414,0,0,1,.57.343,3.3,3.3,0,0,1,1,1.021l.007.013a3.039,3.039,0,0,1,.379,1.538v.016a3.217,3.217,0,0,1-1.709,2.737,7.011,7.011,0,0,1-3.757,1v.1h0l0-.1a8.6,8.6,0,0,1-1.146-.072c-.337-.049-.654-.1-.971-.156m5.14-6.92q-.079-.032-.162-.06a10.347,10.347,0,0,0-1.523-.435l-1.033-.257a9.8,9.8,0,0,1-1.145-.309,2.576,2.576,0,0,1-.7-.395c-.1-.075-.1-.127-.1-.171.005-.177.061-.385.445-.584a3.041,3.041,0,0,1,1.438-.327,2.319,2.319,0,0,1,1.594.449A2.292,2.292,0,0,1,14.4,86.4Zm-1.6,7.264a6.63,6.63,0,0,0,2.465-.911A3.447,3.447,0,0,0,17.1,89.93v-.02a3.257,3.257,0,0,0-.414-1.661l-.009-.016a3.512,3.512,0,0,0-1.068-1.1c-.064-.045-.131-.089-.2-.131H16.47V81.922H14.423l-.122.509c-.009.043-.018.093-.027.146h0a5.025,5.025,0,0,1-.933-.187,8.551,8.551,0,0,0-2.05-.232,7.555,7.555,0,0,0-3.559.832A3.192,3.192,0,0,0,6.288,87.5a3.247,3.247,0,0,0,1.075,1.117,7.079,7.079,0,0,0,1.345.652,12.4,12.4,0,0,0,1.433.426q.747.174,1.4.316a7.835,7.835,0,0,1,1.107.334l.023.008a1.352,1.352,0,0,1,.583.353.525.525,0,0,1,.132.374.822.822,0,0,1-.49.71,3.269,3.269,0,0,1-1.622.385A4.139,4.139,0,0,1,9,91.58c-.554-.347-.882-.764-1.03-1.968l-.071-.58H6.007a9.972,9.972,0,0,1-2.888-6.721c0-3.144,1.764-6.063,4.77-8.475V78.76c0,.081-.341.233-1,.233-.2,0-.352-.015-.352-.015L5.806,78.9v2.247h8.581V78.988h-.662a2.8,2.8,0,0,1-1.648-.3V76.2h1.542c3.57,0,4.589-2.2,4.628-3.361v-.02a3.309,3.309,0,0,0-2.165-3.277,44.406,44.406,0,0,1,14.161-2.213c8.081,0,15.348,1.964,20.321,5.072a5.032,5.032,0,0,0-2.14-.429,4.462,4.462,0,0,0-4.64,4.309A4.956,4.956,0,0,0,44.9,79.8a4.587,4.587,0,0,0,3.566,1.368h.019c.145,0,3.556-.134,4.526-2.667l.028-.1a.865.865,0,0,0-.14-.743.7.7,0,0,0-.549-.263c-.356,0-.607.234-.9.611l-.032.045A2.865,2.865,0,0,1,49.4,78.9l-.724.035-.016,0a.886.886,0,0,1-.563-.264,2.547,2.547,0,0,1-.625-1.672h5.558l-.015-.675a5.05,5.05,0,0,0-1.477-3.293c3.651,2.553,5.832,5.775,5.832,9.273a8.792,8.792,0,0,1-.907,3.832V84.788H54.619l-.079.333a4.931,4.931,0,0,1-.584-.129,6.727,6.727,0,0,0-1.6-.181,5.934,5.934,0,0,0-2.784.649A2.582,2.582,0,0,0,48.4,89.115a2.634,2.634,0,0,0,.872.9l.03.018H48.021v3.578A41.708,41.708,0,0,1,30.244,97.3a42.005,42.005,0,0,1-17.435-3.522m34.412-16.88a2.772,2.772,0,0,0,.71,1.957,1.657,1.657,0,0,0,.749.328c2.249,0,2.932-.98,2.938-.989l.022-.031c.247-.32.451-.518.709-.518a.462.462,0,0,1,.363.174.643.643,0,0,1,.093.543l-.018.061c-.913,2.385-4.172,2.509-4.31,2.513h-.012a4.359,4.359,0,0,1-3.389-1.29A4.7,4.7,0,0,1,44.023,76.3a4.385,4.385,0,0,1,8.752.04l.009.431H47.211ZM56.7,90.877a2.541,2.541,0,0,1-1.353,2.164,5.443,5.443,0,0,1-2.916.773v.119l0-.119a6.86,6.86,0,0,1-.888-.055c-.261-.038-.505-.078-.747-.12l-.025-.006a5.8,5.8,0,0,0-.878-.151l-.128-.01v.209h-1.5V90.275h1.275l.046.371a1.877,1.877,0,0,0,.98,1.553,3.257,3.257,0,0,0,1.777.469,2.623,2.623,0,0,0,1.281-.305.7.7,0,0,0,.412-.609.476.476,0,0,0-.12-.335,1.093,1.093,0,0,0-.479-.291l-.018-.007a5.9,5.9,0,0,0-.855-.257q-.495-.108-1.063-.24a9.538,9.538,0,0,1-1.084-.321,5.371,5.371,0,0,1-1.01-.487,2.39,2.39,0,0,1-.794-.824,2.309,2.309,0,0,1-.318-1.227,2.332,2.332,0,0,1,1.388-2.092,5.68,5.68,0,0,1,2.673-.623,6.489,6.489,0,0,1,1.543.173,3.964,3.964,0,0,0,.731.146l.1.006.083-.348h1.414v3.425H55l.374.222c.078.047.153.095.23.147a2.576,2.576,0,0,1,.789.807l.008.012a2.4,2.4,0,0,1,.3,1.22Zm-6.922-.582c.176.085.361.163.552.233a9.826,9.826,0,0,0,1.112.329c.38.088.736.168,1.065.24a5.719,5.719,0,0,1,.822.247l.023.009a.877.877,0,0,1,.381.226.23.23,0,0,1,.059.172c0,.075-.006.23-.3.409a2.4,2.4,0,0,1-1.154.269A3.01,3.01,0,0,1,50.69,92a1.631,1.631,0,0,1-.872-1.381Z" transform="translate(-3354 -13110)" fill="#515151"/><path d="M33.108,93.919H33.1a5.223,5.223,0,0,1-3.668-1.267A4.626,4.626,0,0,1,29.454,86a5.274,5.274,0,0,1,3.65-1.226,5.354,5.354,0,0,1,3.7,1.235,4.417,4.417,0,0,1,1.383,3.322v.018a4.4,4.4,0,0,1-1.384,3.31A5.254,5.254,0,0,1,33.108,93.919Zm0-8.909a5.042,5.042,0,0,0-3.491,1.165,4.388,4.388,0,0,0-.017,6.3,5,5,0,0,0,3.5,1.205l.007.119v-.119a5.033,5.033,0,0,0,3.533-1.2,4.172,4.172,0,0,0,1.308-3.138V89.33a4.185,4.185,0,0,0-1.306-3.148A5.123,5.123,0,0,0,33.1,85.01m.005,7.42c-.77,0-.979-.325-1.075-.608a11,11,0,0,1,0-4.871c.093-.269.3-.581,1.071-.581.792,0,1.015.331,1.114.58a8.578,8.578,0,0,1,.232,2.451,8.478,8.478,0,0,1-.23,2.426c-.1.263-.325.6-1.116.6m0-5.821c-.7,0-.8.274-.846.422a10.845,10.845,0,0,0,0,4.712c.074.218.206.448.85.448s.806-.224.891-.443a12.931,12.931,0,0,0,0-4.718c-.077-.191-.25-.421-.889-.421" transform="translate(-3354 -13110)" fill="#515151"/><path d="M15.119,69.936H6.467v.57c2.11,0,2.083,1.261,2.083,1.261V78.72c0,1.1-2.083.876-2.083.876v.849h7.258v-.836c-2.4,0-2.308-.876-2.308-.876V75.5h2.2c3.875,0,3.968-2.72,3.968-2.72a2.748,2.748,0,0,0-2.468-2.839m-1.7,4.405H11.43V70.825h1.778s1.911,0,1.911,1.764a1.66,1.66,0,0,1-1.7,1.752" transform="translate(-3354 -13110)" fill="#515151"/><path d="M24.288,80.438v-.547c-1.453,0-1.154-1.157-1.154-1.157V75.217c1.048-1.261,2.3-1.606,2.3-1.22s.757.715,1.128.715,1.221-.265,1.221-1.008-.4-1.115-1.473-1.115-2.919,2.031-2.919,2.031H23.12V72.6H19.338v.529c1.341,0,1.447.836,1.447.836v4.778c0,1.366-1.46,1.155-1.46,1.155v.543H24.3Z" transform="translate(-3354 -13110)" fill="#515151"/><path d="M31.533,71.084c.934,0,1.692-.509,1.692-1.138s-.758-1.138-1.692-1.138-1.692.51-1.692,1.138.758,1.138,1.692,1.138" transform="translate(-3354 -13110)" fill="#515151"/><path d="M34.519,79.9c-1.327,0-1.207-1.128-1.207-1.128V72.6H29.278v.544c1.26,0,1.154.65,1.154.65v4.936a1.034,1.034,0,0,1-1.194,1.128v.558h5.281Z" transform="translate(-3354 -13110)" fill="#515151"/><path d="M39.468,80.472c3.118,0,3.264-2.355,3.264-2.355.014-.719-.187-.278-.2-.233a2.736,2.736,0,0,1-2.421,1.759c-1.752,0-2.349-1.891-2.349-3.3s.458-3.265,1.672-3.265.975.816.975.816a1.119,1.119,0,0,0-.3,1.314c.179.5,2.309,1.234,2.309-.677s-2.946-1.911-2.946-1.911-4.14-.026-4.14,3.7a3.922,3.922,0,0,0,4.133,4.153" transform="translate(-3354 -13110)" fill="#515151"/><path d="M52.393,78.229s.119-.548-.418.149c0,0-.756,1.184-3.294,1.184,0,0-1.9.113-1.9-3.257h5.573a3.774,3.774,0,0,0-3.927-3.715,3.831,3.831,0,0,0-3.981,3.7,3.736,3.736,0,0,0,4.02,4.179s3.1-.092,3.928-2.242m-3.752-4.8c2.239,0,1.961,2.349,1.961,2.349l-3.832.02s-.239-2.369,1.871-2.369" transform="translate(-3354 -13110)" fill="#515151"/><path d="M46.7,91.2s-.756,1.184-3.294,1.184c0,0-1.9.113-1.9-3.257h5.573a3.776,3.776,0,0,0-3.928-3.716,3.831,3.831,0,0,0-3.98,3.7,3.737,3.737,0,0,0,4.02,4.18s3.1-.093,3.928-2.243c0,0,.119-.548-.418.149m-3.334-4.946c2.239,0,1.961,2.349,1.961,2.349l-3.832.02s-.239-2.369,1.871-2.369" transform="translate(-3354 -13110)" fill="#515151"/><path d="M15.237,87.647a5.09,5.09,0,0,0-1.219-.616,9.539,9.539,0,0,0-1.441-.41l-1.021-.255a10.388,10.388,0,0,1-1.239-.336,3.2,3.2,0,0,1-.875-.492.864.864,0,0,1-.361-.712,1.3,1.3,0,0,1,.8-1.15,3.7,3.7,0,0,1,1.754-.4,2.964,2.964,0,0,1,1.964.567,2.936,2.936,0,0,1,1.465,2.467h.747V82.543h-.863c-.051.218-.032.662-.6.66a4.959,4.959,0,0,1-1.171-.213,7.93,7.93,0,0,0-1.881-.21,6.875,6.875,0,0,0-3.258.761,2.53,2.53,0,0,0-1.174,3.586,2.562,2.562,0,0,0,.858.9,6.49,6.49,0,0,0,1.219.59,11.761,11.761,0,0,0,1.356.4q.741.172,1.394.315a8.389,8.389,0,0,1,1.2.362,1.969,1.969,0,0,1,.858.534,1.2,1.2,0,0,1,.3.836,1.474,1.474,0,0,1-.8,1.252,3.939,3.939,0,0,1-1.979.486,4.744,4.744,0,0,1-2.613-.7,2.873,2.873,0,0,1-1.335-2.447H6.478v3.454h.863a.277.277,0,0,1,.175-.268.805.805,0,0,1,.381-.088,7.1,7.1,0,0,1,1.446.223c.3.054.621.105.954.154a8.177,8.177,0,0,0,1.092.068,6.579,6.579,0,0,0,3.542-.938,2.8,2.8,0,0,0,1.5-2.389,2.594,2.594,0,0,0-.323-1.327,2.836,2.836,0,0,0-.875-.9" transform="translate(-3354 -13110)" fill="#515151"/><path d="M56.033,89.814a2.143,2.143,0,0,0-.669-.681,3.9,3.9,0,0,0-.928-.469,7.494,7.494,0,0,0-1.1-.312c-.362-.09-.432-.106-.779-.193a7.952,7.952,0,0,1-.945-.255,2.489,2.489,0,0,1-.667-.375.654.654,0,0,1-.276-.541.989.989,0,0,1,.609-.874,3.173,3.173,0,0,1,3.014.157c.483.335.808.549.939,1.72h.57V85.41h-.658c-.038.165-.024.346-.461.344a3.717,3.717,0,0,1-.893-.162,6.08,6.08,0,0,0-1.435-.159,5.262,5.262,0,0,0-2.485.578,1.918,1.918,0,0,0-.9,2.726,1.957,1.957,0,0,0,.654.682,4.967,4.967,0,0,0,.93.448,9.091,9.091,0,0,0,1.034.307q.565.13,1.064.239a6.584,6.584,0,0,1,.915.275,1.511,1.511,0,0,1,.653.407.9.9,0,0,1,.231.635,1.118,1.118,0,0,1-.61.952,3.014,3.014,0,0,1-1.51.369,3.618,3.618,0,0,1-1.993-.532,2.277,2.277,0,0,1-1.178-1.861h-.48V93.22h.659c0-.1.044-.1.133-.139a.618.618,0,0,1,.291-.067,5.484,5.484,0,0,1,1.1.17c.232.041.473.08.728.117a6.29,6.29,0,0,0,.834.052,5.037,5.037,0,0,0,2.7-.713,2.131,2.131,0,0,0,1.146-1.817,1.985,1.985,0,0,0-.245-1.009" transform="translate(-3354 -13110)" fill="#515151"/><path d="M33.109,85.393a4.633,4.633,0,0,0-3.219,1.062,3.966,3.966,0,0,0,0,5.676A4.574,4.574,0,0,0,33.1,93.219a4.614,4.614,0,0,0,3.25-1.088,4.028,4.028,0,0,0,0-5.676,4.68,4.68,0,0,0-3.247-1.062m1.514,6.537a1.43,1.43,0,0,1-1.514.883,1.362,1.362,0,0,1-1.471-.883,11.291,11.291,0,0,1,0-5.154,1.363,1.363,0,0,1,1.471-.867,1.432,1.432,0,0,1,1.514.867,13.2,13.2,0,0,1,0,5.154" transform="translate(-3354 -13110)" fill="#515151"/><path d="M26.929,91.9V87.491a2.277,2.277,0,0,0-2.481-2.07,5.666,5.666,0,0,0-3.132,1.447V82.555H17.282v.809c1.619,0,1.493.846,1.493.846v7.673c0,1.1-1.2.889-1.2.889v.451H22.54v-.464c-1.272,0-1.168-.856-1.168-.856V87.464a3.3,3.3,0,0,1,2.09-.895c1.194,0,1.131,1.3,1.131,1.3V91.89c0,.968-1.187.862-1.187.862V93.2h4.687v-.468c-1.214,0-1.164-.826-1.164-.826" transform="translate(-3354 -13110)" fill="#515151"/><path d="M55.8,82.295a1.758,1.758,0,1,1-1.751-1.71,1.718,1.718,0,0,1,1.751,1.71m-3.076,0a1.325,1.325,0,0,0,1.335,1.366,1.31,1.31,0,0,0,1.3-1.355,1.32,1.32,0,1,0-2.639-.011m1.053.9h-.4v-1.71a3.415,3.415,0,0,1,.657-.052,1.068,1.068,0,0,1,.6.125.476.476,0,0,1,.167.375.439.439,0,0,1-.355.4v.02a.507.507,0,0,1,.313.417,1.3,1.3,0,0,0,.125.428h-.428a1.474,1.474,0,0,1-.135-.417c-.032-.188-.136-.271-.355-.271h-.188Zm.011-.97h.188c.219,0,.4-.073.4-.25,0-.157-.115-.261-.365-.261a.976.976,0,0,0-.219.021Z" transform="translate(-3354 -13110)" fill="#515151"/><path d="M28.093,92.108c-.324,0-.5-.079-.5-.148V87.531A2.918,2.918,0,0,0,24.447,84.8a4.982,4.982,0,0,0-2.47.807V81.934H16.621v2.131h.661a1.433,1.433,0,0,1,.831.161v7.7c0,.168,0,.245-.309.245a.777.777,0,0,1-.117-.008l-.774-.139v1.9H28.754V92.108Zm-5.349.029h-.2c-.378,0-.482-.1-.492-.106A.055.055,0,0,1,22.033,92V87.81a2.478,2.478,0,0,1,1.429-.541.39.39,0,0,1,.314.1.839.839,0,0,1,.157.51v4.052c0,.067,0,.205-.425.205h-.044Zm5.771,1.548h-5.4v-1.31l.335,0h.059c.44,0,.664-.149.664-.444V87.886a1.067,1.067,0,0,0-.223-.685.612.612,0,0,0-.486-.17,2.75,2.75,0,0,0-1.622.627l-.046.036v4.28l0,.009,0,.03a.307.307,0,0,0,.083.184.9.9,0,0,0,.664.179h.295v1.309H17.151V92.307l.5.09a1.119,1.119,0,0,0,.15.01c.506,0,.548-.25.548-.484v-7.7l0-.023,0-.022c-.039-.16-.343-.348-1.068-.348h-.423V82.172h4.879v3.87l.184-.119a4.94,4.94,0,0,1,2.525-.885,2.685,2.685,0,0,1,2.9,2.493v4.437c.008.114.095.378.742.378h.422Z" transform="translate(-3354 -13110)" fill="#515151"/></g></svg>