<svg xmlns="http://www.w3.org/2000/svg" width="27.772" height="50.129" viewBox="0 0 27.772 50.129"><g transform="translate(3155 13050)"><rect width="27.772" height="34.114" transform="translate(-3155 -13044.946)" fill="#515151"/><rect width="25.707" height="32.7" transform="translate(-3154.04 -13044.294)" fill="#fff"/><rect width="24.258" height="31.667" transform="translate(-3153.315 -13043.786)" fill="#515151"/><path d="M7.772,8.406a18.423,18.423,0,0,0,2.12,1.757c3.079,1.884,6.721,1.468,7.355,1.812,3.714.743,5.707,4.475,5.707,4.475s1.757,3.079,1.322,5.108c-.417,3.37-4.891,6.287-4.891,6.486C19.2,28.352,22.338,30,22.338,30a4.368,4.368,0,0,0,1.63.344,1.911,1.911,0,0,0,1.323-.743,2.861,2.861,0,0,1-1.142,1.957,4.653,4.653,0,0,1-3.08.453c-1.087-.2-3.442-2.754-3.985-2.808s-3.08.688-4.04.634A11.279,11.279,0,0,1,8.026,28.57a2.789,2.789,0,0,0-1.269,2.119,3.19,3.19,0,0,0,1.758,2.247,9.556,9.556,0,0,0,4.293.688c3.859-.109,5.127-2.065,5.127-2.065a6.713,6.713,0,0,1-5,2.753c-3.388.236-4.764-.742-4.764-.742A3.809,3.809,0,0,1,6.3,30.707a4.411,4.411,0,0,1,1.032-2.355c-5.4-3.1-4.927-7.228-4.891-7.754.416-6.83,7.428-8.043,7.428-8.043S5.29,16,5.29,20.308a8.967,8.967,0,0,0,1.141,5.218s13.407-5.254,14-4.819a1.734,1.734,0,0,1,1.142.29,8.212,8.212,0,0,0-2.718-5.4,27.725,27.725,0,0,0-4.891-2.174,29.438,29.438,0,0,1-4.439-1.648,5.186,5.186,0,0,1-1.34-1.613,5.174,5.174,0,0,1-.417-1.757" transform="translate(-3155 -13050)" fill="#fff"/><path d="M9.2,27.809a10.262,10.262,0,0,1,3.587-.743,14.015,14.015,0,0,1,3.569,1.323,6.2,6.2,0,0,1-3.75.887A5.832,5.832,0,0,1,9.2,27.809" transform="translate(-3155 -13050)" fill="#fff"/><path d="M15.888,26.885s2.12,1.087,2.844.38c.037-.38-.036-3.985-.036-3.985a2.115,2.115,0,0,0-1.486-.526,2.3,2.3,0,0,0-1.413.834Z" transform="translate(-3155 -13050)" fill="#515151"/><path d="M11.359,26.776s2.591-.489,2.627-.236-.054-2.264-.054-2.264a1.817,1.817,0,0,0-1.486-.489c-.507.036-1.141.779-1.141.779Z" transform="translate(-3155 -13050)" fill="#515151"/><path d="M9.765,27.211,9.729,25.78a1.042,1.042,0,0,0-.942-.308.766.766,0,0,0-.689.543v1.178a2.316,2.316,0,0,1,.544.435,6.244,6.244,0,0,0,1.123-.417" transform="translate(-3155 -13050)" fill="#515151"/><path d="M12.609,22.229l.362-.036.29-6.25a22.493,22.493,0,0,0,2.446-.037c.163-.09.308-.434.507-.489a10.754,10.754,0,0,1,1.214-.054s-.471-.471-3.569-1.141c-.163.054-.417.543-.58.579-.163.018-.271-.308-.271-.308a.3.3,0,0,0,.181-.308c0-.108-.055-.326-.489-.308-.435,0-.49.29-.49.4.019.109.308.362.218.489-.163.326-.652-.489-.815-.489-.182,0-3.5,1.214-3.5,1.214a5.125,5.125,0,0,1,1.214.09c.163.091.181.4.308.453.109.055,2.554-.054,2.554-.054Z" transform="translate(-3155 -13050)" fill="#fff"/><path d="M12.047,16.413a4.1,4.1,0,0,1-.906.163,4.2,4.2,0,0,1-.888-.38c-.126-.037-1.394-.145-1.521.67a1.37,1.37,0,0,0,.833,1.63,8.033,8.033,0,0,1,1.812.8,1.127,1.127,0,0,1,.38,1.34c-.145.634-1.123.906-1.123.906a1.629,1.629,0,0,1-1.939-.96c-.271-.906.707-1.069.707-1.069s.707.018.8.525a.642.642,0,0,1-.2.689.839.839,0,0,0,.652-.779c-.217-.689-1.268-.616-1.268-.616s-1.323.2-1.178,1.413a1.541,1.541,0,0,0,.979.924,2.31,2.31,0,0,0,1.485.018,2,2,0,0,0,1.268-1.015,1.857,1.857,0,0,0-.127-1.739c-.181-.38-1.992-1-1.847-.96.145.054-1.069-.217-1.015-1,.109-.58.417-.562.525-.6.308-.091.979.416,1.287.453a4.093,4.093,0,0,0,1.286-.417" transform="translate(-3155 -13050)" fill="#fff"/><path d="M13.5,16.4a3.6,3.6,0,0,0,.924.145,4.47,4.47,0,0,0,.906-.381c.127-.036,1.431-.144,1.576.671a1.374,1.374,0,0,1-.852,1.63,8.673,8.673,0,0,0-1.866.8,1.145,1.145,0,0,0-.4,1.341c.163.634,1.159.906,1.159.906a1.679,1.679,0,0,0,1.993-.942c.272-.906-.725-1.069-.725-1.069s-.742,0-.815.525a.644.644,0,0,0,.2.689.822.822,0,0,1-.652-.779c.218-.689,1.3-.616,1.3-.616s1.358.2,1.213,1.413a1.524,1.524,0,0,1-1.014.924,2.443,2.443,0,0,1-1.522.018,2.075,2.075,0,0,1-1.3-1.015,1.857,1.857,0,0,1,.127-1.739c.181-.38,2.065-1.014,1.9-.96s1.1-.217,1.032-1c-.108-.58-.416-.562-.543-.6-.308-.091-1,.416-1.323.471A4.648,4.648,0,0,1,13.5,16.4" transform="translate(-3155 -13050)" fill="#fff"/><rect width="11.613" height="0.326" transform="translate(-3154.783 -13004.8)" fill="#515151"/><rect width="11.703" height="0.326" transform="translate(-3139.076 -13004.8)" fill="#515151"/><path d="M13.443,44.331l.453-.163v.054a.083.083,0,0,0-.055.09V45.78c0,.072.037.109.091.109.036,0,.054-.019.109-.037v.073l-.327.127H13.66v-.417a1.75,1.75,0,0,1-.326.362.525.525,0,0,1-.2.073.32.32,0,0,1-.272-.163.618.618,0,0,1-.109-.363.778.778,0,0,1,.2-.507.564.564,0,0,1,.452-.235.354.354,0,0,1,.127.018,1.338,1.338,0,0,0,.145.054V44.53c0-.073-.036-.109-.09-.109a.23.23,0,0,0-.109.018v-.108Zm.2.688a.486.486,0,0,0-.181-.109.538.538,0,0,0-.163-.036.318.318,0,0,0-.272.163.737.737,0,0,0-.109.4.522.522,0,0,0,.091.308.236.236,0,0,0,.217.126c.127,0,.218-.072.308-.235a.918.918,0,0,0,.127-.471.356.356,0,0,0-.018-.145" transform="translate(-3155 -13050)" fill="#515151"/><path d="M15.182,45.671a.808.808,0,0,1-.562.362.473.473,0,0,1-.344-.163.628.628,0,0,1-.145-.4.713.713,0,0,1,.181-.489.509.509,0,0,1,.417-.218.389.389,0,0,1,.308.145.668.668,0,0,1,.127.326H14.33v.073a.534.534,0,0,0,.127.38.378.378,0,0,0,.308.163.618.618,0,0,0,.453-.271v.09Zm-.254-.489a.4.4,0,0,0-.091-.236.289.289,0,0,0-.2-.09.377.377,0,0,0-.217.09.471.471,0,0,0-.109.236Z" transform="translate(-3155 -13050)" fill="#515151"/><path d="M1.467,43.479a.618.618,0,0,1-.217.217,1.429,1.429,0,0,1-.29.145.907.907,0,0,1-.308.055.4.4,0,0,1-.145-.018.5.5,0,0,1-.145-.055.481.481,0,0,1-.109-.09.2.2,0,0,1-.036-.145.23.23,0,0,1,.018-.109c0-.036.018-.054.018-.091a.108.108,0,0,1,.018-.072.066.066,0,0,1,.018-.054.019.019,0,0,1,.019-.019H.344l.018.019v.054a.271.271,0,0,0,.036.163.319.319,0,0,0,.091.127.36.36,0,0,0,.145.072A.5.5,0,0,0,.8,43.7a.507.507,0,0,0,.163-.018.373.373,0,0,0,.145-.072.794.794,0,0,0,.108-.127.24.24,0,0,0,.037-.163.534.534,0,0,0-.037-.163.428.428,0,0,0-.108-.163,1.25,1.25,0,0,0-.145-.163L.8,42.664c-.073-.055-.127-.127-.2-.181a.583.583,0,0,1-.163-.2,1.177,1.177,0,0,1-.126-.2.382.382,0,0,1-.037-.2.447.447,0,0,1,.091-.272.727.727,0,0,1,.217-.181.789.789,0,0,1,.29-.109,1.894,1.894,0,0,1,.272-.036,1.636,1.636,0,0,1,.326.036c.018,0,.018.018.018.036v.308a.252.252,0,0,1-.054.163.065.065,0,0,1-.055.019c-.018,0-.018-.019-.018-.037a.348.348,0,0,0-.036-.145.259.259,0,0,0-.091-.108.282.282,0,0,0-.126-.073.4.4,0,0,0-.145-.018.353.353,0,0,0-.145.018.28.28,0,0,0-.127.073.825.825,0,0,0-.091.126.435.435,0,0,0-.036.145.525.525,0,0,0,.036.163.4.4,0,0,0,.091.145,1.044,1.044,0,0,0,.145.145A1.249,1.249,0,0,1,1,42.428c.072.055.127.109.2.163a.781.781,0,0,1,.163.181.733.733,0,0,1,.127.2.461.461,0,0,1,.036.217.33.33,0,0,1-.054.29" transform="translate(-3155 -13050)" fill="#515151"/><path d="M5.217,43.86H4.656c-.018,0-.037,0-.037-.019a.054.054,0,0,1,.019-.036l.126-.054c-.054-.145-.108-.29-.163-.417-.054-.145-.108-.29-.163-.416h-.67c-.018.036-.036.09-.073.181-.036.072-.054.163-.09.235-.018.091-.054.163-.073.236s-.036.127-.036.145c0,.036.018.054.055.072a.228.228,0,0,0,.108.018.039.039,0,0,1,.036.036c0,.019-.018.019-.036.019H2.953c-.018,0-.018-.019-.018-.019v-.018s.018-.018.018,0h.018a.162.162,0,0,0,.09-.018.139.139,0,0,0,.073-.072.4.4,0,0,0,.072-.091c.018-.036.037-.054.055-.09.054-.145.108-.308.163-.453.054-.163.108-.308.163-.453.072-.218.163-.435.235-.652s.163-.435.254-.653a.018.018,0,0,1,.018-.018H4.13a.8.8,0,0,1,.109.181c.036.073.054.163.091.218,0,.018.018.018.018.036s0,.018.018.036a1.117,1.117,0,0,0,.09.218c.037.072.055.145.091.235.036.109.091.218.127.344.036.109.09.236.127.345.054.126.09.235.144.344s.091.217.145.326a.345.345,0,0,0,.127.145c.055.018.127.036.181.054v.055H5.217M4.094,41.9c-.036.145-.091.272-.127.4a3.418,3.418,0,0,1-.145.4h.544Z" transform="translate(-3155 -13050)" fill="#515151"/><path d="M9.584,41.468l-.018.018c-.036.018-.073.018-.109.036s-.054.037-.054.073v1.123c0,.38-.018.743-.036,1.123,0,.018-.019.018-.019.018H9.312c-.145-.126-.29-.253-.416-.38l-.417-.417c-.127-.145-.272-.29-.4-.435s-.253-.289-.4-.434c-.036-.037-.073-.091-.091-.109a.311.311,0,0,0-.109-.109c0,.073-.018.127-.018.181v.327a1.986,1.986,0,0,0,.018.326,2.1,2.1,0,0,0,.019.344v.326a.271.271,0,0,0,.018.127.094.094,0,0,0,.036.072c.018.018.036.036.054.036s.037.019.055.019.054.018.072.018a.143.143,0,0,1,.073.036c.018.018.018.018.018.036s-.018.018-.037.018l-.434-.018H7.011c-.018,0-.036-.018-.018-.036,0-.018.018-.018.037-.036l.054-.018a.306.306,0,0,0,.127-.073.178.178,0,0,0,.054-.145V41.4c0-.019,0-.037.018-.037,0-.018.018-.018.036-.036a.035.035,0,0,1,.055,0c.616.634,1.232,1.286,1.811,1.92v-.108c0-.254,0-.489-.018-.743,0-.236-.018-.489-.018-.743a.273.273,0,0,0-.018-.127c-.018-.036-.018-.054-.036-.072s-.036-.018-.054-.036a.067.067,0,0,1-.055-.018.1.1,0,0,1-.072-.019c-.018,0-.037-.018-.055-.018s-.018-.018-.018-.036.018-.018.036-.018h.707v.054c.018.109,0,.109,0,.109" transform="translate(-3155 -13050)" fill="#515151"/><path d="M13.334,41.631a.646.646,0,0,1-.036.181c0,.018-.018.018-.036.018s-.037,0-.037-.018a.273.273,0,0,0-.127-.2.5.5,0,0,0-.235-.054h-.4v1.974a.106.106,0,0,0,.019.073.108.108,0,0,0,.018.072c0,.018,0,.036.018.036a.091.091,0,0,0,.072.037.141.141,0,0,1,.073.018c.036,0,.054,0,.072.018.018,0,.036.018.055.036v.036a.067.067,0,0,1-.037.018h-.833a.063.063,0,0,1-.036-.018c0-.018,0-.018.036-.036a.155.155,0,0,0,.109-.036c.018-.018.054-.018.054-.036a.111.111,0,0,0,.018-.073V41.6H11.6a.176.176,0,0,0-.163.072.326.326,0,0,0-.109.163c0,.018-.018.018-.036.018a.063.063,0,0,1-.036-.018v-.054a.311.311,0,0,1,.018-.127.423.423,0,0,0,.036-.145c0-.018.018-.036.018-.054a.069.069,0,0,1,.018-.055.018.018,0,0,1,.018-.018H11.4c.018,0,.036.018.054.018s.054.019.072.019c.037,0,.055.018.073.018h1.54c.018,0,.036-.018.054-.018H13.3a.018.018,0,0,1,.018.018V41.5c.018,0,.018.055.018.127" transform="translate(-3155 -13050)" fill="#515151"/><path d="M15.779,43.824c0,.018-.018.018-.036.018h-.924l-.018-.018v-.036l.018-.018h.072a.08.08,0,0,0,.055-.018c.018,0,.036-.019.054-.037a.136.136,0,0,0,.036-.072.166.166,0,0,0,.018-.091v-1.92a.147.147,0,0,0-.072-.145,1.264,1.264,0,0,0-.145-.054.037.037,0,0,1,0-.073h.779a.039.039,0,0,1,.036.036c0,.019,0,.037-.036.037a1.264,1.264,0,0,0-.145.054c-.036.018-.054.072-.054.145v1.9a.761.761,0,0,1,.018.091c0,.036.018.054.018.09,0,.018.018.037.018.055.018,0,.018,0,.036.018h.109a.136.136,0,0,1,.072.036c.109-.018.109,0,.091,0" transform="translate(-3155 -13050)" fill="#515151"/><path d="M19.674,43.86h-.561c-.018,0-.036,0-.036-.019a.056.056,0,0,1,.018-.036l.108-.054c-.054-.145-.108-.29-.163-.417-.054-.145-.108-.29-.163-.416h-.67c-.018.036-.036.09-.073.181-.036.072-.054.163-.09.235-.018.091-.054.163-.073.236s-.036.127-.036.145c0,.036.018.054.055.072a.228.228,0,0,0,.108.018.039.039,0,0,1,.036.036c0,.019-.018.019-.036.019h-.706l-.018-.019v-.018s.018-.018.018,0h.018a.162.162,0,0,0,.09-.018.139.139,0,0,0,.073-.072.4.4,0,0,0,.072-.091c.018-.036.037-.054.055-.09.054-.145.108-.308.163-.453.054-.163.108-.308.163-.453.072-.218.163-.435.235-.652s.163-.435.254-.653a.018.018,0,0,1,.018-.018h.036a.8.8,0,0,1,.109.181c.036.073.054.163.091.218,0,.018.018.018.018.036s0,.018.018.036a1.117,1.117,0,0,0,.09.218.878.878,0,0,1,.091.235c.036.109.091.218.127.344.036.109.09.236.127.345.054.126.09.235.144.344s.091.217.145.326a.345.345,0,0,0,.127.145c.055.018.127.036.181.054v.055h-.163M18.533,41.9c-.036.145-.091.272-.127.4a3.418,3.418,0,0,1-.145.4h.544Z" transform="translate(-3155 -13050)" fill="#515151"/><path d="M23.334,42.682c-.018,0-.036.018-.072.036-.019.018-.037.036-.037.055a.108.108,0,0,0-.018.072v.833c0,.019,0,.019-.018.019a.568.568,0,0,1-.181.09c-.073.018-.127.036-.2.054a.847.847,0,0,1-.218.019h-.2a1.4,1.4,0,0,1-.29-.019,1.033,1.033,0,0,1-.471-.144,1,1,0,0,1-.362-.308,1.194,1.194,0,0,1-.236-.417,1.472,1.472,0,0,1-.09-.489,1.19,1.19,0,0,1,.108-.526,1.012,1.012,0,0,1,.29-.38,1.275,1.275,0,0,1,.435-.236,1.683,1.683,0,0,1,.525-.072,1.764,1.764,0,0,1,.308.018c.109.018.2.018.29.036.036,0,.091.018.127.018s.091.019.127.019c.018,0,.018,0,.018.018l.018.018v.181a.5.5,0,0,1-.018.163.344.344,0,0,1-.036.145l-.037.072h-.036a.018.018,0,0,1-.018-.018.712.712,0,0,0-.09-.235.357.357,0,0,0-.163-.163,1.057,1.057,0,0,0-.888-.055,1.37,1.37,0,0,0-.344.218,1.024,1.024,0,0,0-.218.326,1.069,1.069,0,0,0-.072.416,1.6,1.6,0,0,0,.036.308,1.339,1.339,0,0,0,.127.29,1.228,1.228,0,0,0,.181.254,1.251,1.251,0,0,0,.235.2c.037.018.091.055.127.073l.163.054c.055.018.109.018.163.036.055,0,.109.018.145.018a.753.753,0,0,0,.2-.018.579.579,0,0,0,.181-.09v-.743a.14.14,0,0,0-.036-.091c-.037-.018-.055-.036-.091-.036-.018,0-.036-.018-.073-.018-.018,0-.036-.018-.054-.018s-.018-.018-.018-.036.018-.018.036-.018h.4a2.939,2.939,0,0,1,.4.018v.054c0-.018-.018,0-.054,0" transform="translate(-3155 -13050)" fill="#515151"/><path d="M27.537,43.135a.941.941,0,0,1-.254.344,1.816,1.816,0,0,1-.362.254,2.116,2.116,0,0,1-.435.145h-.235a.91.91,0,0,1-.29-.055,1.064,1.064,0,0,1-.29-.145,1.378,1.378,0,0,1-.254-.2,1.362,1.362,0,0,1-.362-.543.83.83,0,0,1-.054-.29,1.546,1.546,0,0,1,.072-.526,1.03,1.03,0,0,1,.2-.4,1.117,1.117,0,0,1,.363-.272,2.73,2.73,0,0,1,.543-.181.805.805,0,0,0,.091-.018h.09a1,1,0,0,1,.544.127,1.4,1.4,0,0,1,.4.326,1.323,1.323,0,0,1,.236.453,1.534,1.534,0,0,1,.072.489.823.823,0,0,1-.072.489m-.308-.906a1.228,1.228,0,0,0-.181-.38,1.1,1.1,0,0,0-.308-.272.838.838,0,0,0-.417-.109.908.908,0,0,0-.4.091.867.867,0,0,0-.29.217.939.939,0,0,0-.181.326,1.389,1.389,0,0,0-.055.4,1.205,1.205,0,0,0,.073.435,1.24,1.24,0,0,0,.507.688.848.848,0,0,0,.417.109.926.926,0,0,0,.4-.091.724.724,0,0,0,.29-.235,1.031,1.031,0,0,0,.181-.345,1.51,1.51,0,0,0,.055-.4c-.037-.145-.055-.29-.091-.435" transform="translate(-3155 -13050)" fill="#515151"/><path d="M4.566,50.056a1.982,1.982,0,0,1-.471.072,2.987,2.987,0,0,1-.4-.036c-.145-.036-.272-.072-.4-.109a3.6,3.6,0,0,1-.4-.144c-.127-.055-.254-.109-.362-.164-.019-.018-.055-.018-.091-.036a.427.427,0,0,1-.091-.054,1.142,1.142,0,0,0-.145-.073,1.069,1.069,0,0,1-.144-.072H2.047a.2.2,0,0,0-.09.018c-.036.018-.073.018-.109.036s-.09.018-.145.037a.4.4,0,0,1-.145.018,1.715,1.715,0,0,1-.543-.091A1.107,1.107,0,0,1,.6,49.186a1.376,1.376,0,0,1-.272-.416,1.7,1.7,0,0,1-.09-.526,1.305,1.305,0,0,1,.108-.525,1.354,1.354,0,0,1,.29-.417,1.048,1.048,0,0,1,.417-.272,1.241,1.241,0,0,1,.525-.09,1.581,1.581,0,0,1,.508.09,1.224,1.224,0,0,1,.416.254.874.874,0,0,1,.272.4,1.15,1.15,0,0,1,.109.507,1.472,1.472,0,0,1-.145.616,1.329,1.329,0,0,1-.4.489,3.673,3.673,0,0,0,.453.254c.163.09.308.163.471.235a2.529,2.529,0,0,0,.489.163A2.438,2.438,0,0,0,4.258,50a2.482,2.482,0,0,0,.362-.037,1.267,1.267,0,0,0,.344-.108L5,49.911a4.091,4.091,0,0,0-.434.145m-2.12-2.319a1.245,1.245,0,0,0-.181-.344.929.929,0,0,0-.29-.236.93.93,0,0,0-.4-.09.844.844,0,0,0-.38.072.823.823,0,0,0-.308.2.9.9,0,0,0-.2.308.915.915,0,0,0-.073.4,1.347,1.347,0,0,0,.091.471,1.115,1.115,0,0,0,.235.4,1.058,1.058,0,0,0,.345.289,1.3,1.3,0,0,0,.452.145.944.944,0,0,0,.327-.181A1.093,1.093,0,0,0,2.3,48.9a1.128,1.128,0,0,0,.145-.344,1.384,1.384,0,0,0,.054-.38,1.6,1.6,0,0,0-.054-.435" transform="translate(-3155 -13050)" fill="#515151"/><path d="M6.214,47.139a.141.141,0,0,0-.054.127v1.268a.967.967,0,0,1-.073.4.768.768,0,0,1-.2.326.952.952,0,0,1-.308.217.983.983,0,0,1-.4.072,1.036,1.036,0,0,1-.326-.054.937.937,0,0,1-.271-.145.621.621,0,0,1-.218-.217,1.509,1.509,0,0,1-.163-.29.139.139,0,0,0-.018-.054.11.11,0,0,0-.018-.073.108.108,0,0,0-.018-.072v-1.4a.23.23,0,0,0-.018-.109c0-.036-.037-.054-.055-.072H4.022c-.036,0-.073,0-.091-.019a.048.048,0,0,1-.054-.054.018.018,0,0,1,.018-.018H4.71a.036.036,0,1,1,0,.072.348.348,0,0,0-.145.037.14.14,0,0,0-.054.126v1.45a.613.613,0,0,0,.054.272.8.8,0,0,0,.145.217.44.44,0,0,0,.218.127.662.662,0,0,0,.271.054.728.728,0,0,0,.272-.054.467.467,0,0,0,.218-.145.674.674,0,0,0,.145-.218.727.727,0,0,0,.054-.271v-1.4a.23.23,0,0,0-.018-.109c0-.036-.036-.054-.055-.072H5.761a.133.133,0,0,1-.091-.019.048.048,0,0,1-.054-.054.018.018,0,0,1,.018-.018h.761v.054a.723.723,0,0,1-.181.109" transform="translate(-3155 -13050)" fill="#515151"/><path d="M8.9,49.222c0,.054-.018.109-.018.163l-.018.073c0,.018-.018.018-.036.018l-.055.018H7.736a1.121,1.121,0,0,1-.254-.018.037.037,0,0,1,0-.073c.036,0,.072-.018.109-.018a.248.248,0,0,0,.054-.072.139.139,0,0,0,.018-.091V47.247c0-.036,0-.054-.018-.072a.039.039,0,0,0-.036-.036c-.018-.019-.018-.019-.036-.019s-.037,0-.037-.018c-.018,0-.054-.018-.072-.018-.018-.018-.036-.018-.073-.036-.018,0-.018-.018-.018-.036s.018-.018.036-.018H8.7a.066.066,0,0,0,.054-.018h.036a.018.018,0,0,1,.018.018.653.653,0,0,1-.036.181c-.018.054-.018.127-.036.181v.036c0,.018-.018.018-.036.018s-.037,0-.037-.018a.192.192,0,0,0-.108-.2.416.416,0,0,0-.236-.054H7.989v.9h.489a.068.068,0,0,0,.055-.018c.018,0,.036-.018.072-.036.018-.018.054-.018.073-.036.018,0,.036-.018.054-.018h.036a.018.018,0,0,1,.018.018.234.234,0,0,1-.018.109c0,.036-.018.072-.018.108-.018.091-.018.163-.036.254,0,.018,0,.018-.018.018s-.037,0-.037-.018c-.018-.018-.018-.036-.036-.054,0-.019-.018-.037-.018-.055s-.018-.036-.018-.054a.063.063,0,0,0-.018-.036c-.018-.019-.036-.019-.091-.037-.036,0-.09-.018-.145-.018H8.007v.906a.289.289,0,0,0,.181.145.543.543,0,0,0,.236.036.419.419,0,0,0,.254-.072.361.361,0,0,0,.145-.236.018.018,0,0,1,.018-.018h.018a.018.018,0,0,1,.018.018s.018.018,0,.018a.693.693,0,0,1,.018.254" transform="translate(-3155 -13050)" fill="#515151"/><path d="M12.3,49.567a.507.507,0,0,1-.163.018.581.581,0,0,1-.254-.054.519.519,0,0,1-.2-.145.932.932,0,0,1-.181-.2l-.164-.217a1.509,1.509,0,0,1-.144-.217,1.66,1.66,0,0,0-.164-.182.362.362,0,0,0-.144-.072c-.055,0-.109-.018-.164-.018h-.108v.688a.2.2,0,0,0,.018.091c0,.036.018.054.018.09a.063.063,0,0,0,.018.037c.018,0,.018,0,.036.018h.055a.108.108,0,0,1,.072.018.139.139,0,0,1,.073.036c.018.018.018.018.018.036s-.018.018-.036.018h-.417a3.232,3.232,0,0,1-.417-.018.036.036,0,1,1,0-.072c.055-.018.091-.018.109-.036s.054-.018.054-.055a.135.135,0,0,0,.018-.09V47.248a.138.138,0,0,0-.018-.091c0-.018-.018-.036-.036-.054a.056.056,0,0,0-.036-.018H10.09c-.036,0-.054,0-.072-.018a.039.039,0,0,1-.036-.036v-.037a.063.063,0,0,1,.036-.018H10.8a1.383,1.383,0,0,1,.272.018,1.04,1.04,0,0,1,.253.073.561.561,0,0,1,.2.163.941.941,0,0,1,.126.272v.09a.648.648,0,0,1-.036.2.979.979,0,0,1-.09.2.676.676,0,0,1-.127.181c-.055.054-.091.109-.145.163a1.031,1.031,0,0,1,.109.145,1,1,0,0,0,.126.163c.073.09.145.181.218.272a1.567,1.567,0,0,0,.235.253,1.957,1.957,0,0,0,.236.181.41.41,0,0,0,.253.037l.019.054a.2.2,0,0,1-.145.127m-1.033-1.993a1.056,1.056,0,0,0-.091-.217.415.415,0,0,0-.163-.145.472.472,0,0,0-.217-.055.51.51,0,0,0-.181.037v1.1a1.377,1.377,0,0,0,.272.018h.126a.261.261,0,0,0,.127-.036.188.188,0,0,0,.073-.091l.054-.109c.018-.036.018-.09.036-.127v-.126c-.018-.091-.018-.163-.036-.254" transform="translate(-3155 -13050)" fill="#515151"/><path d="M14.656,49.167v.073a.456.456,0,0,1-.018.145c0,.054-.018.09-.018.145H13.551a1.383,1.383,0,0,1-.272-.018.037.037,0,0,1,0-.073.138.138,0,0,0,.091-.018.249.249,0,0,0,.054-.072.139.139,0,0,0,.018-.091V47.3a.152.152,0,0,0-.036-.108c-.018-.018-.054-.018-.072-.036-.019,0-.055-.019-.073-.019s-.036-.018-.072-.036c-.018-.018-.018-.018-.018-.036s.018-.018.054-.018h1.087a.519.519,0,0,0,.217-.036h.055c.018,0,.018.018.018.036v.072a.164.164,0,0,1-.018.091c0,.036,0,.072-.019.09,0,.037-.018.055-.018.091-.018.018-.018.054-.036.054a.066.066,0,0,1-.054.018c-.018,0-.018-.018-.018-.036a.182.182,0,0,0-.091-.181.393.393,0,0,0-.217-.036h-.29v.851h.471c.018,0,.018,0,.036-.018.018,0,.036-.018.054-.036.019,0,.037-.018.055-.018a.108.108,0,0,1,.072-.018c.018,0,.018,0,.036.018l.019.018a.223.223,0,0,1-.019.109c0,.036-.018.072-.018.108s-.018.073-.018.109-.018.073-.018.109c0,.018-.018.018-.036.036a.066.066,0,0,1-.054-.018c-.019-.018-.037-.036-.037-.054s-.018-.037-.018-.055-.018-.036-.018-.054a.063.063,0,0,0-.018-.036c-.018-.019-.036-.019-.073-.037-.036,0-.09-.018-.126-.018h-.326v.906c.018.036.054.054.072.073.036.018.054.036.091.054a.256.256,0,0,0,.108.036c.037,0,.073.018.109.018a.367.367,0,0,0,.236-.072A.338.338,0,0,0,14.547,49l.091.018a.59.59,0,0,1,.018.145m-.217-2.409c-.018,0-.018.018-.037.018h-.2a.435.435,0,0,0-.145.036c-.054.018-.09.037-.145.055s-.09.036-.145.054a.066.066,0,0,1-.054-.018c-.018-.018,0-.036.018-.036.018-.018.054-.037.073-.055s.054-.036.09-.072a.376.376,0,0,0,.091-.073c.036-.018.072-.054.108-.072a.382.382,0,0,0,.091-.054.13.13,0,0,1,.072-.019c.037,0,.055,0,.073.019l.054.054a.108.108,0,0,1,.018.072c0,.019.019.055.019.073.036,0,.018,0,.018.018m.054,1.25h0Z" transform="translate(-3155 -13050)" fill="#515151"/><path d="M17.772,47.284a.646.646,0,0,1-.036.181c0,.018-.018.018-.036.018s-.037,0-.037-.018a.231.231,0,0,0-.127-.2.5.5,0,0,0-.235-.054h-.4v1.956a7.771,7.771,0,0,1,.037.145c0,.018,0,.036.018.036a.094.094,0,0,0,.072.037.141.141,0,0,1,.073.018c.036,0,.054,0,.072.018.018,0,.036.018.054.036v.036a.063.063,0,0,1-.036.018h-.833a.063.063,0,0,1-.036-.018c0-.018,0-.018.036-.036a.157.157,0,0,0,.109-.036c.018-.018.054-.018.054-.036a.112.112,0,0,0,.018-.073V47.23h-.525a.176.176,0,0,0-.163.072.322.322,0,0,0-.109.163c0,.018-.018.018-.036.018a.067.067,0,0,1-.037-.018v-.054a.3.3,0,0,1,.019-.127.429.429,0,0,0,.036-.145c0-.018.018-.036.018-.054a.068.068,0,0,1,.018-.055.018.018,0,0,1,.018-.018h.036a.069.069,0,0,0,.055.018c.018,0,.054.018.072.018.036,0,.055.019.073.019h1.54c.018,0,.036-.019.054-.019h.109c.018,0,.018.019.018.019v.072c.054.036.036.091.036.145" transform="translate(-3155 -13050)" fill="#515151"/><path d="M20.779,49.512h-.561c-.018,0-.037,0-.037-.018a.054.054,0,0,1,.019-.036l.108-.054c-.054-.145-.108-.29-.163-.417-.054-.145-.108-.29-.163-.417h-.67c-.018.037-.036.091-.073.182-.036.072-.054.163-.09.235-.018.091-.054.163-.073.236a1.46,1.46,0,0,0-.036.145c0,.036.018.054.055.072a.228.228,0,0,0,.108.018.039.039,0,0,1,.036.036c0,.018-.018.018-.036.018H18.5l-.018-.018v-.018s.018-.018.018,0h.018a.162.162,0,0,0,.09-.018.139.139,0,0,0,.073-.072.4.4,0,0,0,.072-.091c.018-.036.037-.054.037-.091.054-.144.108-.308.163-.452.054-.163.108-.308.163-.453.072-.218.163-.435.235-.653s.163-.434.254-.652l.018-.018h.036a.8.8,0,0,1,.109.181c.036.073.054.163.09.218,0,.018.019.018.019.036s0,.018.018.036a1.117,1.117,0,0,0,.09.218c.036.072.055.145.091.235.036.109.09.218.127.344a2.668,2.668,0,0,0,.145.345c.054.126.09.235.144.344s.091.217.145.326a.345.345,0,0,0,.127.145c.055.018.127.036.181.054v.054h-.163m-1.141-1.938c-.036.145-.091.272-.127.4a3.418,3.418,0,0,1-.145.4h.544Z" transform="translate(-3155 -13050)" fill="#515151"/><path d="M24.349,49.567a.507.507,0,0,1-.163.018.581.581,0,0,1-.254-.054.519.519,0,0,1-.2-.145.932.932,0,0,1-.181-.2l-.164-.217a1.509,1.509,0,0,1-.144-.217,1.66,1.66,0,0,0-.164-.182.362.362,0,0,0-.144-.072c-.055,0-.109-.018-.163-.018h-.109v.688a.2.2,0,0,0,.018.091c0,.036.018.054.018.09a.063.063,0,0,0,.018.037c.018,0,.018,0,.055.018h.036a.108.108,0,0,1,.072.018.139.139,0,0,1,.073.036c.018.018.018.018.018.036s-.018.018-.036.018h-.417a3.232,3.232,0,0,1-.417-.018.036.036,0,1,1,0-.072c.055-.018.091-.018.109-.036.036-.018.054-.018.054-.055a.135.135,0,0,0,.018-.09V47.248a.138.138,0,0,0-.018-.091c0-.018-.018-.036-.036-.054a.056.056,0,0,0-.036-.018h-.055c-.036,0-.054,0-.072-.018a.039.039,0,0,1-.036-.036v-.037a.063.063,0,0,1,.036-.018h.779a1.383,1.383,0,0,1,.272.018,1.04,1.04,0,0,1,.253.073.561.561,0,0,1,.2.163.941.941,0,0,1,.126.272v.09a.648.648,0,0,1-.036.2.979.979,0,0,1-.09.2.676.676,0,0,1-.127.181c-.055.054-.091.109-.145.163a1.031,1.031,0,0,1,.109.145,1,1,0,0,0,.126.163c.073.09.145.181.218.272a1.567,1.567,0,0,0,.235.253,1.957,1.957,0,0,0,.236.181.41.41,0,0,0,.253.037l.019.054a.2.2,0,0,1-.145.127m-1.033-1.993a1.056,1.056,0,0,0-.091-.217.415.415,0,0,0-.163-.145.472.472,0,0,0-.217-.055.515.515,0,0,0-.181.037v1.1a1.377,1.377,0,0,0,.272.018h.126a.261.261,0,0,0,.127-.036.188.188,0,0,0,.073-.091l.054-.109c.018-.036.018-.09.036-.127v-.126a1.234,1.234,0,0,0-.036-.254" transform="translate(-3155 -13050)" fill="#515151"/><path d="M27.519,48.806a.941.941,0,0,1-.254.344,1.816,1.816,0,0,1-.362.254,2.116,2.116,0,0,1-.435.145h-.235a.91.91,0,0,1-.29-.055,1.063,1.063,0,0,1-.29-.145,1.378,1.378,0,0,1-.254-.2,1.362,1.362,0,0,1-.362-.543.83.83,0,0,1-.054-.29,1.546,1.546,0,0,1,.072-.526,1.03,1.03,0,0,1,.2-.4,1.117,1.117,0,0,1,.363-.272,2.73,2.73,0,0,1,.543-.181.805.805,0,0,0,.091-.018h.09a1,1,0,0,1,.544.127,1.4,1.4,0,0,1,.4.326,1.323,1.323,0,0,1,.236.453,1.534,1.534,0,0,1,.072.489,1.028,1.028,0,0,1-.072.489m-.308-.906a1.228,1.228,0,0,0-.181-.38,1.1,1.1,0,0,0-.308-.272.838.838,0,0,0-.417-.109.908.908,0,0,0-.4.091.867.867,0,0,0-.29.217.939.939,0,0,0-.181.326,1.389,1.389,0,0,0-.055.4,1.205,1.205,0,0,0,.073.435,1.24,1.24,0,0,0,.507.688.848.848,0,0,0,.417.109.922.922,0,0,0,.4-.091.724.724,0,0,0,.29-.235,1.031,1.031,0,0,0,.181-.345,1.51,1.51,0,0,0,.055-.4c-.037-.145-.055-.29-.091-.435" transform="translate(-3155 -13050)" fill="#515151"/><rect width="27.265" height="0.362" transform="translate(-3154.746 -13010.126)" fill="#515151"/><path d="M2.9,3.877c0,.018-.018.018-.036.018H2.229a.136.136,0,0,1-.091-.018c-.036,0-.054-.018-.072-.018s-.018-.018-.018-.036c.018-.018.018-.018.036-.018s.036.018.054.018.036-.018.054-.037a.132.132,0,0,0,.037-.072.164.164,0,0,0,.018-.091V2.645H.924v.906A.4.4,0,0,0,.942,3.7a.138.138,0,0,0,.037.09c.018,0,.036.019.072.019a.271.271,0,0,0,.127.018c.018,0,.036,0,.036.018s0,.036-.036.036c-.127,0-.272.018-.4.018a3.217,3.217,0,0,1-.416-.018.04.04,0,0,1-.037-.036c0-.018,0-.018.037-.036a.152.152,0,0,0,.108-.037c.055.018.073,0,.073-.018a.108.108,0,0,0,.018-.072V1.7a.139.139,0,0,0-.018-.091c0-.018-.018-.036-.036-.054C.526,1.54.508,1.54.49,1.54H.435c-.036,0-.054,0-.072-.018a.04.04,0,0,1-.037-.036V1.449a.067.067,0,0,1,.037-.018h.38c.127,0,.254.018.381.018a.04.04,0,0,1,.036.037.039.039,0,0,1-.036.036A.164.164,0,0,0,1,1.576a.1.1,0,0,0-.073.109v.761H2.247V1.7a.234.234,0,0,0-.018-.109c-.018-.036-.037-.054-.073-.054H2.12a.139.139,0,0,1-.091-.018.048.048,0,0,1-.054-.054s0-.019.018-.019a.063.063,0,0,1,.036-.018h.4a2.679,2.679,0,0,1,.38.018.04.04,0,0,1,.037.037c0,.018,0,.018-.037.036-.054.018-.108.018-.145.054a.142.142,0,0,0-.054.127V3.587c0,.036.018.054.018.091s.018.054.018.072a.063.063,0,0,0,.018.036h.073a.1.1,0,0,1,.072.019.136.136,0,0,1,.073.036.056.056,0,0,1,.018.036" transform="translate(-3155 -13050)" fill="#515151"/><path d="M7.065,3.207a1.149,1.149,0,0,1-.236.344,1.245,1.245,0,0,1-.362.236,2.054,2.054,0,0,1-.435.144H5.8a.906.906,0,0,1-.29-.054,1.922,1.922,0,0,1-.29-.127,1.412,1.412,0,0,1-.254-.2A3.211,3.211,0,0,1,4.746,3.3,1.986,1.986,0,0,1,4.6,3.026a.83.83,0,0,1-.054-.29A2.363,2.363,0,0,1,4.6,2.21a1.182,1.182,0,0,1,.2-.4,1.131,1.131,0,0,1,.363-.272,2.965,2.965,0,0,1,.525-.181.805.805,0,0,0,.091-.018h.09a1.09,1.09,0,0,1,.544.127,1.117,1.117,0,0,1,.38.326,1.36,1.36,0,0,1,.236.453,1.534,1.534,0,0,1,.072.489.687.687,0,0,1-.036.471M6.757,2.3a1.228,1.228,0,0,0-.181-.38,1.1,1.1,0,0,0-.308-.272.791.791,0,0,0-.417-.109.959.959,0,0,0-.4.073.854.854,0,0,0-.29.217.939.939,0,0,0-.181.326,1.389,1.389,0,0,0-.055.4A1.2,1.2,0,0,0,5,2.989a.954.954,0,0,0,.2.381.887.887,0,0,0,.308.272.8.8,0,0,0,.417.108.99.99,0,0,0,.4-.09.884.884,0,0,0,.29-.236A1.344,1.344,0,0,0,6.793,3.1a1.423,1.423,0,0,0,.055-.4c-.037-.109-.055-.254-.091-.4" transform="translate(-3155 -13050)" fill="#515151"/><path d="M10.163,3.533a.618.618,0,0,1-.217.217,1.429,1.429,0,0,1-.29.145.888.888,0,0,1-.29.055.4.4,0,0,1-.145-.018.454.454,0,0,1-.254-.145.2.2,0,0,1-.036-.145.136.136,0,0,1,.018-.091c0-.036.018-.054.018-.09a.11.11,0,0,1,.018-.073A.064.064,0,0,1,9,3.334a.018.018,0,0,1,.018-.018h.036l.018.018v.054a.271.271,0,0,0,.036.163.329.329,0,0,0,.091.127.36.36,0,0,0,.145.072.476.476,0,0,0,.163.019.482.482,0,0,0,.163-.019.366.366,0,0,0,.145-.072.794.794,0,0,0,.108-.127.238.238,0,0,0,.037-.163.506.506,0,0,0-.037-.163.428.428,0,0,0-.108-.163A1.18,1.18,0,0,0,9.674,2.9l-.163-.163c-.073-.054-.127-.127-.2-.181a1.57,1.57,0,0,1-.164-.181,1.225,1.225,0,0,1-.126-.2.382.382,0,0,1-.037-.2.4.4,0,0,1,.091-.254.742.742,0,0,1,.217-.181.9.9,0,0,1,.272-.109,1.619,1.619,0,0,1,.272-.036,1.806,1.806,0,0,1,.326.036c.018,0,.018.019.018.037v.308a.3.3,0,0,1-.054.163c-.018.018-.018.018-.036.018s-.019-.018-.019-.036a.34.34,0,0,0-.036-.145.541.541,0,0,0-.072-.109A.3.3,0,0,0,9.837,1.6a.563.563,0,0,0-.29,0,.456.456,0,0,0-.127.072.367.367,0,0,0-.072.109.34.34,0,0,0-.036.145.538.538,0,0,0,.036.163.4.4,0,0,0,.09.145,1.238,1.238,0,0,0,.145.145,1.115,1.115,0,0,1,.163.144,1.558,1.558,0,0,1,.181.164,1.558,1.558,0,0,1,.164.181.733.733,0,0,1,.126.2.45.45,0,0,1,.037.217.545.545,0,0,1-.091.254" transform="translate(-3155 -13050)" fill="#515151"/><path d="M13.587,2.319a1.165,1.165,0,0,1-.145.254,1.2,1.2,0,0,1-.235.181.769.769,0,0,1-.29.072.753.753,0,0,1-.2-.018c-.018,0-.018,0-.018-.018V2.754c0-.018,0-.018.018-.036l.019-.019h.072a.5.5,0,0,0,.525-.525.912.912,0,0,0-.036-.217.677.677,0,0,0-.09-.2,1.039,1.039,0,0,0-.163-.126.362.362,0,0,0-.2-.055.228.228,0,0,0-.108.018.134.134,0,0,0-.091.037V3.587c0,.018.018.054.018.073,0,.036.018.054.018.072a.063.063,0,0,0,.018.036.068.068,0,0,0,.055.018h.126c.019,0,.037.019.055.037v.036a.063.063,0,0,1-.036.018h-.8a.039.039,0,0,1-.036-.036c0-.018.018-.018.036-.036a.153.153,0,0,0,.109-.037c.018-.018.055-.018.055-.054a.11.11,0,0,0,.018-.073V1.7c0-.036,0-.054-.018-.072a.04.04,0,0,0-.037-.037c-.018-.018-.018-.018-.036-.018h-.054c-.018,0-.055-.018-.073-.018s-.036-.018-.054-.036V1.486a.063.063,0,0,1,.036-.018h.761a1.769,1.769,0,0,1,.308.018,1.52,1.52,0,0,1,.272.072.355.355,0,0,1,.181.181.548.548,0,0,1,.072.326.8.8,0,0,1-.054.254" transform="translate(-3155 -13050)" fill="#515151"/><path d="M16.287,3.877c0,.018-.018.018-.036.018h-.924l-.018-.018V3.859l.018-.018H15.4a.08.08,0,0,0,.055-.018c.018,0,.036-.018.054-.037a.136.136,0,0,0,.036-.072.164.164,0,0,0,.018-.091V1.739a.181.181,0,0,0-.054-.145,1.263,1.263,0,0,0-.145-.054.039.039,0,0,1-.036-.036c.072-.036.09-.055.109-.055h.76a.04.04,0,0,1,.037.037c0,.018,0,.018-.037.036a1.338,1.338,0,0,0-.145.054c-.036.018-.054.073-.054.145V3.605c0,.018.018.055.018.073,0,.036.018.054.018.072s.018.036.018.055c.019,0,.019,0,.037.018H16.2a.136.136,0,0,1,.073.036c.018,0,.036.018.018.018" transform="translate(-3155 -13050)" fill="#515151"/><path d="M20.127,1.7a.646.646,0,0,1-.036.181c0,.018-.018.018-.036.018s-.037,0-.037-.018a.231.231,0,0,0-.127-.2.5.5,0,0,0-.235-.054h-.38V3.569a.108.108,0,0,0,.018.072.11.11,0,0,0,.018.073c0,.018,0,.036.018.036a.094.094,0,0,0,.072.036.066.066,0,0,1,.055.019c.036,0,.054,0,.072.018.018,0,.036.018.055.036v.036a.067.067,0,0,1-.037.018h-.8a.063.063,0,0,1-.036-.018c0-.018,0-.018.036-.036a.153.153,0,0,0,.109-.036c.018-.018.054-.018.054-.037a.108.108,0,0,0,.018-.072V1.631h-.507a.177.177,0,0,0-.163.072.328.328,0,0,0-.109.163c0,.018-.018.018-.036.018a.063.063,0,0,1-.036-.018V1.812a.309.309,0,0,1,.018-.127.429.429,0,0,0,.036-.145c0-.018.018-.036.018-.054a.067.067,0,0,1,.018-.055c0-.018.019-.018.019-.018h.036c.018,0,.036.018.054.018s.054.018.073.018c.036,0,.054.018.072.018h1.522c.018,0,.036-.018.054-.018h.109a.018.018,0,0,1,.018.018V1.7Z" transform="translate(-3155 -13050)" fill="#515151"/><path d="M23.841,3.895H23.28c-.019,0-.037,0-.037-.018a.056.056,0,0,1,.018-.036l.109-.036c-.054-.145-.109-.272-.163-.417s-.109-.272-.163-.417h-.652c-.018.037-.036.091-.073.181a1.182,1.182,0,0,0-.072.236c-.018.072-.054.163-.072.235a1.422,1.422,0,0,0-.037.145c0,.037.018.055.055.073a.228.228,0,0,0,.108.018.04.04,0,0,1,.037.036c0,.018-.019.018-.037.018h-.688l-.018-.018V3.877s.018-.018.018,0h.018a.167.167,0,0,0,.091-.018.249.249,0,0,0,.072-.054.431.431,0,0,0,.073-.091c.018-.036.036-.054.036-.091.054-.144.108-.289.163-.452.054-.145.109-.308.163-.453.072-.218.163-.435.235-.634.073-.218.163-.417.236-.634l.018-.019h.036a.8.8,0,0,1,.109.182c.036.072.054.144.091.217,0,.018.018.018.018.036s0,.018.018.036a1.117,1.117,0,0,0,.09.218c.037.072.055.145.091.217a2.261,2.261,0,0,0,.127.326c.036.109.09.236.127.345.054.108.09.235.144.344s.091.217.145.308a.351.351,0,0,0,.127.145c.055.018.109.036.181.054v.054c-.054-.018-.126,0-.181-.018m-1.123-1.9c-.036.145-.091.272-.127.4s-.09.253-.127.4h.526Z" transform="translate(-3155 -13050)" fill="#515151"/><path d="M27.392,3.46V3.5c0,.091-.018.163-.018.218a.564.564,0,0,1-.018.181c-.073,0-.127-.018-.2-.018h-.923a.568.568,0,0,0-.182.018H25.87a.037.037,0,0,1,0-.073.14.14,0,0,0,.091-.036.248.248,0,0,0,.054-.072c.018-.018.018-.055.036-.091v-1.9a.138.138,0,0,0-.018-.091c0-.018-.018-.036-.036-.054a.056.056,0,0,0-.036-.018h-.055c-.036,0-.054,0-.072-.018-.018,0-.036-.018-.054-.037V1.467a.063.063,0,0,1,.036-.018h.634a.619.619,0,0,1,.181.018c.018,0,.018.018.018.036s-.018.037-.036.019h-.054a.153.153,0,0,0-.127.036.165.165,0,0,0-.055.127V3.369a.343.343,0,0,0,.109.272.355.355,0,0,0,.272.091.543.543,0,0,0,.29-.091.6.6,0,0,0,.217-.253l.018-.019H27.3a.019.019,0,0,1,.019.019v.018c.072.036.072.054.072.054" transform="translate(-3155 -13050)" fill="#515151"/><rect width="27.772" height="0.362" transform="translate(-3155 -13050)" fill="#515151"/></g></svg>