<svg xmlns="http://www.w3.org/2000/svg" width="45.876" height="45.875" viewBox="0 0 45.876 45.875"><g transform="translate(-790.799 -5306.852)"><path d="M328.675,82.311a22.938,22.938,0,1,1-22.938-22.937,22.938,22.938,0,0,1,22.938,22.937" transform="translate(508 5247.479)" fill="#515151"/><g transform="translate(3862 18357.48)"><path d="M310.767,73.915c.6-.283,2.3-.992,5.279.106a6.084,6.084,0,0,1,3.72,3.118,3.776,3.776,0,0,0-3.579-.815c5.173,1.7,4.429,6.094,4.429,6.094a4.075,4.075,0,0,0-3.578-1.949,5.7,5.7,0,0,1,2.94,4.854c0,3.365-2.657,6.341-2.657,6.341,1.318-3.755-2.409-5.6-2.409-5.6a6.662,6.662,0,0,1,1.24,4.676,5.8,5.8,0,0,1-2.728,4.322c1.1-4.322-4.464-7.4-5.42-8.077a15.286,15.286,0,0,1-1.524-1.205,3.851,3.851,0,0,0,1.762.261c1.326,0,1.891.516,2.038,1.376,0,0,1.744.171,2.456-.885l.319.32a3.414,3.414,0,0,0,.663-2.137c0-1.375-.835-1.522-1.031-1.522a8.156,8.156,0,0,0-2.579.884c-1.314.616-1.735.15-1.939-.507a.173.173,0,0,1,.253-.192,3.347,3.347,0,0,0,1.49.355c1.252,0,1.989-1.056,2.848-1.056,0,0,.221-.958-.147-1.326-.328-.328-1.2-.442-1.389-1.192-.036-.143.124-.242.264-.192a6.114,6.114,0,0,0,1.886.377,3.163,3.163,0,0,0,1.179-.369,1.116,1.116,0,0,1-.565.909,2.446,2.446,0,0,0-1.056,1.793s.762.074.909,1.67c0,0,.908-.393.908-2.5a3.972,3.972,0,0,0-.171-1.2A1.356,1.356,0,0,0,314.8,80a12.315,12.315,0,0,0-1.523-1.989,1.265,1.265,0,0,0-.319-1.228s-.049.393-.369.467l-.712-.713a1.973,1.973,0,0,1,1.425.017c.131.062.293-.036.246-.172a4.239,4.239,0,0,0-2.78-2.47" transform="translate(-3354 -13110)" fill="#fff"/><path d="M309.911,74.649s1.007-2.8,3.561-2.8a2.572,2.572,0,0,1,2.505,1.6,4.059,4.059,0,0,0,.1-1.94,12.022,12.022,0,0,0-2.308-1.842s-2.26.1-3.61,3.561a4.709,4.709,0,0,1,2.234-4.323,13.7,13.7,0,0,0-6.139-1.547,7.648,7.648,0,0,1,3.536,6.312,9.872,9.872,0,0,0-6.631-6.115,15.541,15.541,0,0,0-5.6,2.284,12.552,12.552,0,0,1,12.353,4.813" transform="translate(-3354 -13110)" fill="#fff"/><path d="M308.364,73.888s-4.912-4.912-13.433-1.842a13.955,13.955,0,0,0-3.807,7.122,15.231,15.231,0,0,1,13.532-5.992,16.131,16.131,0,0,0-13.777,10.265,15.071,15.071,0,0,0,2.9,7.736s-.933-6.041,4.74-12.377,9.848-4.912,9.848-4.912" transform="translate(-3354 -13110)" fill="#fff"/><path d="M303.363,76.82s-3.188,2.515-3.188,9.6,4.605,10.486,5.632,10.805a15.677,15.677,0,0,0,.567-4.039c0-2.161-.885-4.251-2.409-6.873s-2.054-5.172-.6-9.494" transform="translate(-3354 -13110)" fill="#fff"/><path d="M310.427,89.949c-2.873-2.849-7.1-4.224-6.557-9.43a2.1,2.1,0,0,0,.909,1.228,1.952,1.952,0,0,1,.859,1.3A3.45,3.45,0,0,0,304.7,80.2a3.7,3.7,0,0,1-.958-2.947,13.032,13.032,0,0,0-.466,3.438,11.759,11.759,0,0,0,1.178,4.911c1.032,2.53,4.838,5.8,3.144,11.469a11.819,11.819,0,0,0,4.027-1.1,5.207,5.207,0,0,0-1.2-6.017" transform="translate(-3354 -13110)" fill="#fff"/><path d="M299.081,85.283s.3-6.287,4.666-9.725c0,0-10.9,6.041-7.859,17.927a14.408,14.408,0,0,0,6.778,3.389s-4.076-4.076-3.585-11.591" transform="translate(-3354 -13110)" fill="#fff"/><path d="M306.449,76.589l1.493-.17a5.064,5.064,0,0,1,1.206,1.127s-.131.178-.491-.1a.836.836,0,0,0-.447-.154l-.017-.331h-.1s.025.467-.564.467a.721.721,0,0,1-.713-.54.565.565,0,0,0-.448.166c-.049.05-.121.045-.12-.025a.479.479,0,0,1,.2-.436" transform="translate(-3354 -13110)" fill="#fff"/><path d="M286.3,86.425a.356.356,0,0,1,.425.267.342.342,0,0,1-.045.268.338.338,0,0,1-.221.158.355.355,0,1,1-.159-.693" transform="translate(-3354 -13110)" fill="#fff"/><path d="M286.1,89.449l1.9-.778.268.656a1.706,1.706,0,0,1,.112.35.694.694,0,0,1-.023.335.827.827,0,0,1-.233.358,1.387,1.387,0,0,1-.422.26,1.44,1.44,0,0,1-.4.106,1.027,1.027,0,0,1-.33-.016.764.764,0,0,1-.244-.1.779.779,0,0,1-.188-.188,1.4,1.4,0,0,1-.158-.293Zm.328.16.166.407a1.054,1.054,0,0,0,.156.281.456.456,0,0,0,.169.13.648.648,0,0,0,.3.041,1.27,1.27,0,0,0,.388-.1.946.946,0,0,0,.419-.286.531.531,0,0,0,.117-.326,1.054,1.054,0,0,0-.094-.342l-.164-.4Z" transform="translate(-3354 -13110)" fill="#fff"/><rect width="2.057" height="0.273" transform="translate(-3066.829 -13018.142) rotate(-27.637)" fill="#fff"/><path d="M288.281,92.539l.158.2a.562.562,0,0,0-.167.208.472.472,0,0,0-.023.261.8.8,0,0,0,.12.3.755.755,0,0,0,.188.206.386.386,0,0,0,.2.081.3.3,0,0,0,.179-.046.275.275,0,0,0,.112-.139.421.421,0,0,0,0-.222c-.012-.058-.05-.178-.114-.362a1.866,1.866,0,0,1-.107-.4.554.554,0,0,1,.042-.288.471.471,0,0,1,.176-.2.522.522,0,0,1,.293-.083.545.545,0,0,1,.312.106.982.982,0,0,1,.264.279,1.045,1.045,0,0,1,.156.379.573.573,0,0,1-.037.343.616.616,0,0,1-.218.261l-.157-.209a.422.422,0,0,0,.17-.279.553.553,0,0,0-.11-.356.57.57,0,0,0-.271-.253.269.269,0,0,0-.244.023.234.234,0,0,0-.111.166,1.11,1.11,0,0,0,.1.424,2.681,2.681,0,0,1,.136.454.622.622,0,0,1-.032.337.514.514,0,0,1-.2.23.556.556,0,0,1-.311.088.621.621,0,0,1-.336-.1.943.943,0,0,1-.282-.29,1.175,1.175,0,0,1-.185-.437.651.651,0,0,1,.045-.382.7.7,0,0,1,.25-.295" transform="translate(-3354 -13110)" fill="#fff"/><path d="M289.473,95.394l1.406-1.147-.429-.525.188-.153,1.031,1.263-.188.153-.43-.527-1.406,1.147Z" transform="translate(-3354 -13110)" fill="#fff"/><path d="M290.617,96.723l1.433-1.476.654.635a1.219,1.219,0,0,1,.262.331.458.458,0,0,1,.027.3.578.578,0,0,1-.154.282.516.516,0,0,1-.359.166.243.243,0,1,0-.4.02,1.443,1.443,0,0,1-.029.354l-.133.651-.246-.239.1-.5c.029-.144.048-.257.057-.34a.635.635,0,0,0,0-.2.4.4,0,0,0-.051-.125.71.71,0,0,0-.1-.113l-.226-.22-.636.655Zm1-.635.42.408a.878.878,0,0,0,.236.175.315.315,0,0,0,.2.023.343.343,0,0,0,.168-.094.31.31,0,0,0,.091-.246.5.5,0,0,0-.175-.3l-.467-.453Z" transform="translate(-3354 -13110)" fill="#fff"/><path d="M292.561,98.5l1.289-1.6.212.171-1.289,1.6Z" transform="translate(-3354 -13110)" fill="#fff"/><path d="M293.552,99.276l1.141-1.711.642.428a.942.942,0,0,1,.28.262.484.484,0,0,1,.079.283.509.509,0,0,1-.083.271.468.468,0,0,1-.2.167.508.508,0,0,1-.284.036.534.534,0,0,1,.135.315.5.5,0,0,1-.089.315.591.591,0,0,1-.2.189.508.508,0,0,1-.231.076.632.632,0,0,1-.244-.04,1.354,1.354,0,0,1-.3-.156Zm.361-.051.426.284a1.143,1.143,0,0,0,.16.095.437.437,0,0,0,.162.04.3.3,0,0,0,.149-.037.351.351,0,0,0,.13-.122.334.334,0,0,0,.062-.2.306.306,0,0,0-.07-.19,1.006,1.006,0,0,0-.231-.195l-.4-.264Zm.527-.79.37.247a1,1,0,0,0,.229.124.285.285,0,0,0,.187,0,.293.293,0,0,0,.144-.12.342.342,0,0,0,.059-.177.252.252,0,0,0-.058-.167,1.193,1.193,0,0,0-.244-.2l-.342-.228Z" transform="translate(-3354 -13110)" fill="#fff"/><path d="M297.747,99.36l.243.123-.535,1.06a1.4,1.4,0,0,1-.285.408.6.6,0,0,1-.36.151.9.9,0,0,1-.48-.114.99.99,0,0,1-.377-.3.567.567,0,0,1-.105-.376,1.382,1.382,0,0,1,.162-.5l.536-1.06.243.122-.535,1.06a1.146,1.146,0,0,0-.133.375.38.38,0,0,0,.064.252.606.606,0,0,0,.234.195.566.566,0,0,0,.443.071.778.778,0,0,0,.35-.41Z" transform="translate(-3354 -13110)" fill="#fff"/><rect width="2.057" height="0.272" transform="matrix(0.365, -0.931, 0.931, 0.365, -3055.994, -13008.295)" fill="#fff"/><path d="M299.192,102.153l.566-1.977.681.195a1.637,1.637,0,0,1,.344.13.686.686,0,0,1,.249.224.845.845,0,0,1,.138.4,1.378,1.378,0,0,1-.058.492,1.44,1.44,0,0,1-.166.385,1.026,1.026,0,0,1-.218.249.752.752,0,0,1-.231.128.764.764,0,0,1-.265.031,1.415,1.415,0,0,1-.327-.057Zm.328-.158.422.121a1.045,1.045,0,0,0,.317.051.449.449,0,0,0,.207-.051.649.649,0,0,0,.217-.209,1.3,1.3,0,0,0,.161-.366.961.961,0,0,0,.035-.506.534.534,0,0,0-.184-.294,1.045,1.045,0,0,0-.327-.137l-.415-.12Z" transform="translate(-3354 -13110)" fill="#fff"/><path d="M301.768,101.81a1.119,1.119,0,0,1,.392-.752.938.938,0,0,1,.745-.18.987.987,0,0,1,.488.212.89.89,0,0,1,.288.427,1.255,1.255,0,0,1,.036.564,1.218,1.218,0,0,1-.209.534.851.851,0,0,1-.41.316,1.015,1.015,0,0,1-.513.051.977.977,0,0,1-.492-.216.9.9,0,0,1-.285-.431,1.152,1.152,0,0,1-.04-.525m.277.046a.826.826,0,0,0,.11.609.7.7,0,0,0,1,.149.87.87,0,0,0,.288-.577,1.058,1.058,0,0,0-.018-.446.651.651,0,0,0-.2-.324.671.671,0,0,0-.347-.157.7.7,0,0,0-.522.122.885.885,0,0,0-.3.624" transform="translate(-3354 -13110)" fill="#fff"/><path d="M304.434,103.159l.048-2.057.912.021a1.231,1.231,0,0,1,.416.065.455.455,0,0,1,.224.2.59.59,0,0,1,.079.312.524.524,0,0,1-.15.366.72.72,0,0,1-.442.181.667.667,0,0,1,.161.106,1.4,1.4,0,0,1,.22.278l.345.568-.343-.008-.262-.434c-.077-.125-.14-.221-.19-.288a.626.626,0,0,0-.135-.14.429.429,0,0,0-.123-.058.877.877,0,0,0-.151-.013l-.315-.007-.021.913Zm.3-1.143.585.014a.908.908,0,0,0,.293-.032.307.307,0,0,0,.162-.12.329.329,0,0,0,.059-.183.307.307,0,0,0-.1-.242.489.489,0,0,0-.332-.1l-.651-.015Z" transform="translate(-3354 -13110)" fill="#fff"/><path d="M307.953,103.089l.472-2.152.29-.044,1.141,1.907-.306.046-.331-.58-.85.13-.13.65Zm.46-.924.689-.105-.3-.531q-.136-.242-.208-.4a2.581,2.581,0,0,1-.051.405Z" transform="translate(-3354 -13110)" fill="#fff"/><path d="M311.321,100.292l.262-.073.319,1.144a1.388,1.388,0,0,1,.065.494.6.6,0,0,1-.164.354.9.9,0,0,1-.432.239.984.984,0,0,1-.482.031.567.567,0,0,1-.33-.207,1.369,1.369,0,0,1-.215-.476l-.319-1.144.262-.074.319,1.144a1.179,1.179,0,0,0,.154.367.381.381,0,0,0,.218.142.591.591,0,0,0,.3-.013.57.57,0,0,0,.376-.246.792.792,0,0,0-.018-.539Z" transform="translate(-3354 -13110)" fill="#fff"/><path d="M313.536,101.677,312.847,100l-.627.257-.092-.224,1.508-.619.092.224-.629.259.689,1.678Z" transform="translate(-3354 -13110)" fill="#fff"/><path d="M314.531,100.161a1.119,1.119,0,0,1-.15-.834.935.935,0,0,1,.479-.6.991.991,0,0,1,.515-.131.882.882,0,0,1,.489.162,1.315,1.315,0,0,1,.536.975.863.863,0,0,1-.131.5,1.012,1.012,0,0,1-.375.354.96.96,0,0,1-.521.13.9.9,0,0,1-.49-.166,1.159,1.159,0,0,1-.352-.391m.247-.133a.825.825,0,0,0,.46.415.7.7,0,0,0,.879-.492.877.877,0,0,0-.125-.633,1.055,1.055,0,0,0-.287-.341.652.652,0,0,0-.359-.133.671.671,0,0,0-.37.088.694.694,0,0,0-.338.416.883.883,0,0,0,.14.68" transform="translate(-3354 -13110)" fill="#fff"/><path d="M317.465,99.6l-1.221-1.655.734-.541a1.2,1.2,0,0,1,.369-.2.452.452,0,0,1,.3.022.576.576,0,0,1,.253.2.515.515,0,0,1,.105.381.712.712,0,0,1-.239.414.7.7,0,0,1,.193-.015,1.392,1.392,0,0,1,.345.086l.62.238-.276.2-.473-.183c-.137-.052-.246-.089-.326-.111a.628.628,0,0,0-.193-.029.425.425,0,0,0-.132.03.827.827,0,0,0-.128.082l-.254.188.542.735ZM317,98.511l.471-.347a.886.886,0,0,0,.212-.205.312.312,0,0,0,.055-.194.337.337,0,0,0-.065-.181.307.307,0,0,0-.228-.13.489.489,0,0,0-.325.123l-.524.387Z" transform="translate(-3354 -13110)" fill="#fff"/><rect width="0.272" height="2.057" transform="translate(-3035.833 -13013.563) rotate(-41.768)" fill="#fff"/><path d="M320.357,97.229l-.184-.173-.235-1.671c-.016-.118-.027-.226-.031-.322l-.788.834-.176-.166,1.011-1.072.176.167.246,1.819.019.19.9-.955.177.166Z" transform="translate(-3354 -13110)" fill="#fff"/><path d="M321.858,95.6l-1.17-1.867.176-.234,2.15.562-.186.247-.642-.182-.517.688.362.555Zm-.319-.982.419-.558-.585-.17c-.177-.051-.32-.1-.428-.14a2.645,2.645,0,0,1,.247.325Z" transform="translate(-3354 -13110)" fill="#fff"/><path d="M323.413,93.444l-1.781-1.029.355-.613a1.754,1.754,0,0,1,.208-.3.7.7,0,0,1,.279-.187.834.834,0,0,1,.426-.035,1.386,1.386,0,0,1,.464.175,1.431,1.431,0,0,1,.332.255,1.013,1.013,0,0,1,.189.271.758.758,0,0,1,.068.256.767.767,0,0,1-.034.264,1.336,1.336,0,0,1-.135.3Zm-.074-.357.22-.38a1.081,1.081,0,0,0,.127-.295.482.482,0,0,0,0-.214.652.652,0,0,0-.15-.26,1.268,1.268,0,0,0-.316-.245.963.963,0,0,0-.483-.157.538.538,0,0,0-.33.107,1.062,1.062,0,0,0-.212.284l-.216.374Z" transform="translate(-3354 -13110)" fill="#fff"/><path d="M323.7,90.863a1.118,1.118,0,0,1-.634-.562.933.933,0,0,1,.006-.767.976.976,0,0,1,.324-.421.881.881,0,0,1,.484-.176,1.241,1.241,0,0,1,.556.1,1.217,1.217,0,0,1,.468.332.867.867,0,0,1,.207.474,1.028,1.028,0,0,1-.075.51.971.971,0,0,1-.33.425.9.9,0,0,1-.487.172,1.158,1.158,0,0,1-.519-.089m.112-.257a.828.828,0,0,0,.618.041.7.7,0,0,0,.386-.93.872.872,0,0,0-.49-.42,1.06,1.06,0,0,0-.437-.09.654.654,0,0,0-.364.117.675.675,0,0,0-.236.3.7.7,0,0,0-.009.535.885.885,0,0,0,.532.448" transform="translate(-3354 -13110)" fill="#fff"/><path d="M325,87.175a.355.355,0,0,1-.265-.426.355.355,0,0,1,.426-.267.357.357,0,0,1,.267.428.358.358,0,0,1-.428.265" transform="translate(-3354 -13110)" fill="#fff"/><path d="M326.049,79.087a.938.938,0,0,1,.454.118.854.854,0,0,1,.342.34.927.927,0,0,1,.124.463.917.917,0,0,1-.122.458.855.855,0,0,1-.34.34.916.916,0,0,1-.917,0,.856.856,0,0,1-.34-.34.917.917,0,0,1-.122-.458.927.927,0,0,1,.124-.463.854.854,0,0,1,.342-.34.939.939,0,0,1,.455-.118m0,.18a.759.759,0,0,0-.365.1.685.685,0,0,0-.274.273.741.741,0,0,0,0,.742.708.708,0,0,0,.274.274.74.74,0,0,0,.736,0,.707.707,0,0,0,.274-.274.745.745,0,0,0,0-.742.688.688,0,0,0-.275-.273.762.762,0,0,0-.365-.1m-.417,1.233v-.977h.2c.186,0,.29,0,.313,0a.4.4,0,0,1,.153.039.249.249,0,0,1,.091.094.269.269,0,0,1,.037.14.257.257,0,0,1-.069.181.315.315,0,0,1-.194.093.28.28,0,0,1,.068.037.469.469,0,0,1,.066.075c.008.01.031.05.072.119l.116.2h-.245l-.082-.158a.662.662,0,0,0-.137-.2.223.223,0,0,0-.137-.041h-.052v.4Zm.2-.555h.08a.98.98,0,0,0,.214-.013.124.124,0,0,0,.065-.046.13.13,0,0,0,.024-.076.115.115,0,0,0-.023-.072.125.125,0,0,0-.067-.046.955.955,0,0,0-.213-.014h-.08Z" transform="translate(-3354 -13110)" fill="#fff"/><path d="M288.416,76.328l-.127.486-1.147.308-.283,1.08,1,.261-.111.424-2.718-.71.46-1.757a.719.719,0,0,1,.378-.491.957.957,0,0,1,.681-.041q.676.177.685.757Zm-1.7.48a.345.345,0,0,0-.27-.482.367.367,0,0,0-.5.307l-.325,1.244.764.2Z" transform="translate(-3354 -13110)" fill="#fff"/><path d="M289.1,71.7a1.461,1.461,0,0,1,.766.947,1.557,1.557,0,0,1-.954,1.774A1.447,1.447,0,0,1,287.7,74.3a1.478,1.478,0,1,1,1.4-2.6m-.219.4a.963.963,0,0,0-.766-.088,1.1,1.1,0,0,0-.7,1.3,1.054,1.054,0,0,0,1.265.687,1.02,1.02,0,0,0,.6-.527,1,1,0,0,0,.107-.783.977.977,0,0,0-.506-.591" transform="translate(-3354 -13110)" fill="#fff"/><path d="M290.749,67.42,291.2,69.5l.837.722-.287.332-.837-.722-2.12-.15.349-.4,1.6.109-.342-1.565Z" transform="translate(-3354 -13110)" fill="#fff"/><path d="M295.651,67.006l-.38.3-.575-.315-1.188.932.168.634-.38.3-.77-2.966.429-.336Zm-1.432-.27-1.188-.65.345,1.311Z" transform="translate(-3354 -13110)" fill="#fff"/><path d="M298.819,65.356l-1.953.956-1.235-2.522.393-.193,1.019,2.08,1.559-.764Z" transform="translate(-3354 -13110)" fill="#fff"/><path d="M303.669,61.326a.722.722,0,0,1,.6.166.956.956,0,0,1,.293.616.906.906,0,0,1-.135.679.836.836,0,0,1-.6.31l-1.294.168.133,1.024-.435.056-.361-2.786Zm.1,1.281a.346.346,0,0,0,.346-.432.367.367,0,0,0-.473-.348l-1.276.165.1.784Z" transform="translate(-3354 -13110)" fill="#fff"/><path d="M308.9,64.263l-.5-.048-.487-1.084-1.111-.106-.1,1.027-.436-.042.269-2.8,1.808.174a.72.72,0,0,1,.544.295.951.951,0,0,1,.149.666.774.774,0,0,1-.639.8Zm-.745-1.6a.346.346,0,0,0,.433-.344.367.367,0,0,0-.383-.445l-1.28-.123-.076.786Z" transform="translate(-3354 -13110)" fill="#fff"/><path d="M312.768,65.4l-2.3-.766.89-2.665,2.215.74-.156.468-1.8-.6-.192.576,1.251.418-.156.468-1.252-.418-.228.685,1.878.627Z" transform="translate(-3354 -13110)" fill="#fff"/><path d="M316.927,65.249a1.72,1.72,0,0,0-.673-.734q-.646-.382-.815-.1c-.068.113-.03.234.112.364.206.154.41.309.614.466a1.672,1.672,0,0,1,.55.613.7.7,0,0,1-.082.647.828.828,0,0,1-.634.436,1.527,1.527,0,0,1-.933-.266,1.922,1.922,0,0,1-.938-1.131l.4-.213a1.671,1.671,0,0,0,.772.932,1.2,1.2,0,0,0,.568.2.365.365,0,0,0,.344-.171.325.325,0,0,0-.059-.4,1.74,1.74,0,0,0-.345-.285q-.389-.263-.473-.328a1.138,1.138,0,0,1-.414-.506.646.646,0,0,1,.09-.537.753.753,0,0,1,.6-.386,1.455,1.455,0,0,1,.882.25,1.8,1.8,0,0,1,.849.982Z" transform="translate(-3354 -13110)" fill="#fff"/><path d="M320.476,67.889l-.8-.719-1.551,1.719L317.8,68.6l1.551-1.72-.8-.72.33-.366,1.921,1.733Z" transform="translate(-3354 -13110)" fill="#fff"/><rect width="2.809" height="0.438" transform="matrix(0.779, -0.627, 0.627, 0.779, -3034.154, -13039.292)" fill="#fff"/><path d="M323.864,74.2l-.076.041a1.547,1.547,0,0,1-1.164.175,1.4,1.4,0,0,1-.879-.736,1.511,1.511,0,0,1,1.816-2.124,1.464,1.464,0,0,1,.823.726,1.484,1.484,0,0,1,.013,1.4l-.421-.242a1.065,1.065,0,0,0-.038-.945,1.01,1.01,0,0,0-.6-.512.96.96,0,0,0-.766.085.976.976,0,0,0-.5.592,1.009,1.009,0,0,0,.108.787.889.889,0,0,0,.991.508l-.481-.89.434-.235Z" transform="translate(-3354 -13110)" fill="#fff"/><path d="M323.712,78.793l-.632-2.335,2.712-.734.61,2.254-.477.129-.495-1.831-.586.159.344,1.273-.476.129-.345-1.273-.7.188.517,1.912Z" transform="translate(-3354 -13110)" fill="#fff"/></g></g></svg>