<svg xmlns="http://www.w3.org/2000/svg" width="52.632" height="38.721" viewBox="0 0 52.632 38.721"><g transform="translate(2936.612 13047.049)"><path d="M467.6,72.994v-.747c0-.038,0-.2,0-.316h0l-.356,1.063h-.17l-.356-1.061h0c0,.116,0,.276,0,.314v.747h-.165V71.728h.244l.362,1.071h0l.361-1.071h.243v1.266Z" transform="translate(-3354 -13110)" fill="#515151" fill-rule="evenodd"/><path d="M468.223,72.994h-.17V71.728h.584c.209,0,.417.072.417.34a.311.311,0,0,1-.176.3c.072.03.144.062.151.239l.011.229c0,.07.01.1.063.126v.029h-.21a1.6,1.6,0,0,1-.029-.318c0-.1-.021-.226-.227-.226h-.414Zm0-.69h.4c.124,0,.257-.031.257-.219s-.143-.211-.228-.211h-.427Z" transform="translate(-3354 -13110)" fill="#515151" fill-rule="evenodd"/><path d="M433.766,76.371c-1.948-.177-10.081-1.026-13.554-3.71l-1.478,4.646a1.8,1.8,0,0,0-1.346,1.786v9.149a1.9,1.9,0,0,0,1.185,1.64l2.153.837a1.963,1.963,0,0,0,1.817-.205,1.735,1.735,0,0,0,.615-.782,16.694,16.694,0,0,0,1.937.157v.338a2.315,2.315,0,0,0,.223.9,1.653,1.653,0,0,0,1.523.983l4.579.2A1.872,1.872,0,0,0,433.2,91.14l.692-1.759,1.144-.031c.194.45.539,1.256.539,1.256a1.856,1.856,0,0,0,2.118,1.079l4.011-.952a1.87,1.87,0,0,0,1.412-1.813v-.277l3.339,3.5a1.876,1.876,0,0,0,1.535.571l2.639-.232a1.894,1.894,0,0,0,1.059-.438,1.824,1.824,0,0,0,.546-.83,1.776,1.776,0,0,0-.355-1.8s-.553-.555-1.128-1.13a8.148,8.148,0,0,0,1.039-.062,4.929,4.929,0,0,0,2.911-1.143,5.82,5.82,0,0,0,6.024-.386,6.489,6.489,0,0,0,6.18,1.1,4.02,4.02,0,0,0,1.965-6.556c2.32-1.708.4-3.309.4-3.309l-.214-4.321a35.3,35.3,0,0,1-3.678-.073l-.012-4.8c.422-.185.369-.925.369-.925v-.543l-.445-.14V66.092l.447-.138V64.767l-.454.034c-.245.013.2-.517.2-.517a.819.819,0,0,0-.589-.684.721.721,0,0,0-.642-.311.743.743,0,0,0-.589.38c-.643.338-.551.786-.551.786s.43.472.154.5l-2.78.209a1.445,1.445,0,0,1,.213-.848,1.044,1.044,0,0,0-.447-.743v-.618L459.6,63l-.838.063v.562a1.1,1.1,0,0,0-.45.884.947.947,0,0,1,.187.8l-2.815.211c-.33.029.211-.532.211-.532a27.267,27.267,0,0,1-.677-.787.724.724,0,0,0-.553-.2h0a.751.751,0,0,0-.585.379.872.872,0,0,0-.557.788s.453.474.138.508l-.407.03v1.007l.461.138v1.036l-.436.139v.231a2.128,2.128,0,0,0-1.4-.21h0l-1.517.312a1.7,1.7,0,0,0-1.082.635A1.828,1.828,0,0,0,448,68.813l-1.759.382a1.8,1.8,0,0,1-2.835.611l-1.623.293a1.862,1.862,0,0,0-1.381,1.093,6.5,6.5,0,0,0-3.309-.6,4.44,4.44,0,0,0-2.527.87,4.035,4.035,0,0,0-1.39,1.932,3,3,0,0,0,.569,2.951Zm23.639-.125c-.1,0-.2,0-.3.008V71l.021-.016a4.618,4.618,0,0,1,2.433-.934,4.087,4.087,0,0,1,2.351.524v6.687a5.615,5.615,0,0,0-.574.456,5.713,5.713,0,0,0-3.933-1.476" transform="translate(-3354 -13110)" fill="#515151" fill-rule="evenodd"/><path d="M464.892,65.743v-.135l.232-.017v-.158l-.232.018v-.115h0c-.618-.378-.017-1-.017-1,0-.068-.188-.188-.435-.208.005-.135-.06-.222-.135-.216s-.143.112-.134.235c-.249.058-.434.206-.434.269,0,0,.622.613-.025,1v.128l-3.621.271a1.33,1.33,0,0,1-.005-1.444.442.442,0,0,0-.443-.38v-.368l-.266.02v.368a.535.535,0,0,0-.443.447,1.332,1.332,0,0,1-.011,1.444l-3.63.273v-.127c-.618-.379-.017-1.006-.017-1.006,0-.067-.189-.186-.436-.207.006-.135-.059-.222-.134-.216s-.144.112-.135.235c-.249.057-.434.206-.434.269,0,0,.622.613-.025,1v.139l-.246.019v.157l.246-.018v.111l.215.134v1.406l-.215.166v.142l-.222.016v.158l11.232-.841v-.159l-.23.018V67.45l-.214-.136V65.907Zm-9.6,2.543v-.129l-.215-.138v-1.4l.215-.163v-.124l8.419-.63v.122l.214.136v1.4l-.214.165v.13Z" transform="translate(-3354 -13110)" fill="#fff" fill-rule="evenodd"/><path d="M464.753,76.368V68.419a.609.609,0,0,0,.37-.561l-.992.075a.835.835,0,0,1-.358.729l0,7.805a4.939,4.939,0,0,1,.983-.1" transform="translate(-3354 -13110)" fill="#fff" fill-rule="evenodd"/><path d="M463.505,76.529V68.512a.594.594,0,0,0,.364-.56l-1.338.1v8.837a7.861,7.861,0,0,1,.974-.359" transform="translate(-3354 -13110)" fill="#fff" fill-rule="evenodd"/><path d="M454.272,77.123V69.2a.586.586,0,0,1-.374-.508l.988-.08a.845.845,0,0,0,.363.649v7.362s-.553.248-.977.5" transform="translate(-3354 -13110)" fill="#fff" fill-rule="evenodd"/><path d="M456.49,76.318V68.5l-1.341.1a.584.584,0,0,0,.364.51v7.43a4.136,4.136,0,0,1,.977-.223" transform="translate(-3354 -13110)" fill="#fff" fill-rule="evenodd"/><path d="M456.751,69.549A5.2,5.2,0,0,1,459.5,68.54a4.62,4.62,0,0,1,2.764.582v-1.08l-5.517.425Z" transform="translate(-3354 -13110)" fill="#fff" fill-rule="evenodd"/><path d="M456.751,69.755V70.5a5.248,5.248,0,0,1,2.764-1.061,4.662,4.662,0,0,1,2.753.632v-.744a4.663,4.663,0,0,0-2.753-.584,5.223,5.223,0,0,0-2.764,1.011" transform="translate(-3354 -13110)" fill="#fff" fill-rule="evenodd"/><path d="M456.213,66.388l-.466.035v1.724l.466-.035Z" transform="translate(-3354 -13110)" fill="#fff" fill-rule="evenodd"/><path d="M456.982,66.329l-.467.035v1.724l.467-.035Z" transform="translate(-3354 -13110)" fill="#fff" fill-rule="evenodd"/><path d="M457.75,66.271l-.466.035V68.03l.466-.035Z" transform="translate(-3354 -13110)" fill="#fff" fill-rule="evenodd"/><path d="M458.519,66.215l-.466.035v1.725l.466-.036Z" transform="translate(-3354 -13110)" fill="#fff" fill-rule="evenodd"/><path d="M460.994,66.034l-.466.035v1.725l.466-.035Z" transform="translate(-3354 -13110)" fill="#fff" fill-rule="evenodd"/><path d="M461.749,65.974l-.467.035v1.724l.467-.035Z" transform="translate(-3354 -13110)" fill="#fff" fill-rule="evenodd"/><path d="M462.5,65.916l-.466.035v1.724l.466-.035Z" transform="translate(-3354 -13110)" fill="#fff" fill-rule="evenodd"/><path d="M463.259,65.858l-.467.035v1.724l.467-.034Z" transform="translate(-3354 -13110)" fill="#fff" fill-rule="evenodd"/><path d="M458.994,66.179l.2.175v1.327l-.25.226,1.14-.086-.208-.193V66.3l.2-.2Z" transform="translate(-3354 -13110)" fill="#fff" fill-rule="evenodd"/><path d="M450.566,91.869l-2.644.232a1.271,1.271,0,0,1-1.016-.383L442.5,87.1V88.92a1.267,1.267,0,0,1-.937,1.212l-4.021.954a1.259,1.259,0,0,1-1.4-.733l-.7-1.633-1.973.056-.836,2.128a1.265,1.265,0,0,1-1.166.793l-4.612-.207c-1.09-.023-1.141-1.249-1.141-1.249V88.926a1.254,1.254,0,0,1-1,.358L423.4,89.15a1.394,1.394,0,0,1-.719-.338,1.248,1.248,0,0,1-1.706,1.341l-2.17-.844a1.27,1.27,0,0,1-.8-1.167V79.093a1.254,1.254,0,0,1,1.38-1.246l2.578.264a1.345,1.345,0,0,1,1.018.738l1.319,2.916,1.176-2.453a1.252,1.252,0,0,1,1.261-.712l2.631.269a1.275,1.275,0,0,1,1.125,1.246l0,3.213,1.323-3.8c.292-.771.5-.854,2.183-.848-.736-.864-.255-1.647.686-2.3-2.205-1.648-.672-5.058,2.435-5.169,3.033-.107,3.583,1.063,3.583,1.063l.223-.707a1.247,1.247,0,0,1,.972-.857l1.624-.293a1.248,1.248,0,0,1,1.37.73l.5,1.144V71.023a1.259,1.259,0,0,1,.986-1.224l1.752-.38a1.253,1.253,0,0,1,1.348.593,1.275,1.275,0,0,1,.984-1.046L452,68.649a1.242,1.242,0,0,1,1.505,1.226v7.806a1.232,1.232,0,0,1,.471.418,5.293,5.293,0,0,1,3.427-1.234,5.236,5.236,0,0,1,3.964,1.762,4.469,4.469,0,0,1,4.087-1.593A6.586,6.586,0,0,1,469,78.514a1.263,1.263,0,0,1-.051,1.84l-1.02.89a3.033,3.033,0,0,1,1.34,2.871c-.3,3.729-5.9,4.517-8.481,1.781a5.279,5.279,0,0,1-6.287.354c-.234.981-3.1,1.829-5.457,1.2l2.424,2.427a1.254,1.254,0,0,1-.9,2" transform="translate(-3354 -13110)" fill="#fff" fill-rule="evenodd"/><path d="M438.921,73.777a1.777,1.777,0,0,0-1.322-.369c-.531.05-1.013.381-.976.767.094,1,3.432.267,3.619,2.262.112,1.192-.87,2.135-2.61,2.3a3.332,3.332,0,0,1-2.729-.914l1-.834a1.746,1.746,0,0,0,1.618.724c.677-.064,1.058-.506,1.015-.964-.058-.614-.888-.711-1.571-.83-1.125-.213-1.964-.523-2.05-1.447-.093-.985.882-1.881,2.317-2.016a4.413,4.413,0,0,1,2.389.445Z" transform="translate(-3354 -13110)" fill="#515151" fill-rule="evenodd"/><path d="M435.524,85.553l-2.26.063.963-3.083h.025Zm.734,1.892,1.035,2.414,2.053-.455-3.817-9.48L433,79.942l-3.659,10.5h2.129l1.141-2.9Z" transform="translate(-3354 -13110)" fill="#515151" fill-rule="evenodd"/><path d="M443.9,75.455l-1.474.087.567-2.033h.017Zm.517,1.222.659,1.372,1.426-.084-2.758-6.318-1.623.293-2.082,6.618,1.409-.083.588-1.659Z" transform="translate(-3354 -13110)" fill="#515151" fill-rule="evenodd"/><path d="M452.938,80.836a2.8,2.8,0,0,0-1.908-.584,2.229,2.229,0,1,0,.234,4.419,2.963,2.963,0,0,0,1.843-.792l.107-.141.117,2.092a6.476,6.476,0,0,1-2.213.574c-2.774.154-4.931-1.559-5.047-3.636-.119-2.137,1.752-4.135,4.645-4.3a5.759,5.759,0,0,1,2.223.317l.12,2.15Z" transform="translate(-3354 -13110)" fill="#515151" fill-rule="evenodd"/><path d="M457.4,79.687a2.248,2.248,0,0,1,2.2,2.23,2.2,2.2,0,1,1-4.4,0,2.248,2.248,0,0,1,2.2-2.23m0,6.157a3.865,3.865,0,1,0-3.969-3.873,3.852,3.852,0,0,0,3.969,3.873" transform="translate(-3354 -13110)" fill="#515151" fill-rule="evenodd"/><path d="M450.711,70.193l1.542-.317v7.493l-1.652.148-2.4-4.12-.023,0v4.352l-1.542.152V71.023l1.753-.381,2.3,3.974.021,0Z" transform="translate(-3354 -13110)" fill="#515151" fill-rule="evenodd"/><path d="M426.611,79.846s-1.82,3.867-2.344,4.723c-.539-.958-2.429-5.212-2.429-5.212l-2.579-.264v9.049l2.17.844V83.218c.8,1.449,2.1,4.685,2.1,4.685l1.318.135a47.092,47.092,0,0,1,2.121-4.264v6.467l2.266.2.009-10.33Z" transform="translate(-3354 -13110)" fill="#515151" fill-rule="evenodd"/><path d="M447.812,90.855l2.645-.233-6.981-6.957a2.576,2.576,0,0,0,2.287-2.352c0-1.657-1.53-2.2-3.742-2.007l-2.956.259-.028,9.909,2.211-.486V84.321l.314-.022Zm-6.564-10.246.3-.027c1.158-.1,2.034.007,2.034.964s-.847,1.269-2.05,1.374l-.282.024Z" transform="translate(-3354 -13110)" fill="#515151" fill-rule="evenodd"/><path d="M467.06,80.34a2.159,2.159,0,0,0-1.517-.78c-.657-.065-1.321.234-1.37.727-.127,1.277,4.1,1.159,3.851,3.7-.151,1.518-1.571,2.463-3.722,2.25a4.065,4.065,0,0,1-3.1-1.8l1.419-.8a2.156,2.156,0,0,0,1.792,1.3,1.213,1.213,0,0,0,1.464-.963c.077-.784-.907-1.1-1.708-1.418-1.315-.537-2.259-1.129-2.142-2.305.125-1.257,1.525-2.143,3.3-1.967a5.337,5.337,0,0,1,2.8,1.131Z" transform="translate(-3354 -13110)" fill="#515151" fill-rule="evenodd"/><path d="M420.55,73.631c3.6,2.408,12.031,3.281,12.031,3.281l-.326,1.536c-8.944-.584-12.2-1.539-12.688-1.722Z" transform="translate(-3354 -13110)" fill="#fff" fill-rule="evenodd"/><path d="M468.473,74.331c-.636.007-1.87-.014-3.122-.08l.022,2.071c1.093.113,2.542.35,3.22.5Z" transform="translate(-3354 -13110)" fill="#fff" fill-rule="evenodd"/><path d="M425.179,93.844a5.457,5.457,0,0,0-3.25.922,3.814,3.814,0,0,0,0,5.983,5.455,5.455,0,0,0,3.25.922h36.986a5.451,5.451,0,0,0,3.249-.922,3.814,3.814,0,0,0,0-5.983,5.451,5.451,0,0,0-3.249-.922Z" transform="translate(-3354 -13110)" fill="#fff" fill-rule="evenodd"/><path d="M425.179,101.048c-2.25,0-4.074-1.04-4.074-3.29s1.824-3.29,4.074-3.29h36.986c2.249,0,4.074,1.04,4.074,3.29s-1.825,3.29-4.074,3.29Z" transform="translate(-3354 -13110)" fill="#515151" fill-rule="evenodd"/><path d="M423.677,97.507a7.073,7.073,0,0,1,.706-.951,5.271,5.271,0,0,1,.411,1.3l-.013.01a1.61,1.61,0,0,0-1.033-.356Zm-.113.524a1.225,1.225,0,0,1,1.338,1.108c.005.282.044.434.317.434.191,0,.352-.145.4-.418a5.714,5.714,0,0,0-.444-2.395c-.212-.565-.351-.831-.667-.831-.381,0-.6.266-1.011.831a6.9,6.9,0,0,0-1.224,2.395c-.044.251-.014.418.281.418a.386.386,0,0,0,.386-.308,6.15,6.15,0,0,1,.482-1.234Z" transform="translate(-3354 -13110)" fill="#fff" fill-rule="evenodd"/><path d="M426.582,96.31a.429.429,0,0,1,.391-.366.25.25,0,0,1,.273.3c-.12.69-.406,1.369-.527,2.06a.555.555,0,0,0,.6.684.836.836,0,0,0,.845-.684c.12-.691.069-1.37.19-2.06a.376.376,0,0,1,.38-.3c.223,0,.278.189.263.366l-.125,1.62c-.013.136-.04.293-.065.44a1.555,1.555,0,0,1-1.592,1.218c-.779,0-1.293-.491-1.166-1.218.025-.147.054-.3.088-.44Z" transform="translate(-3354 -13110)" fill="#fff" fill-rule="evenodd"/><path d="M430.552,99.217a.4.4,0,0,1-.406.356c-.234,0-.315-.158-.281-.356l.459-2.63h-.632c-.2,0-.337-.1-.3-.314a.382.382,0,0,1,.409-.313h1.951c.2,0,.337.1.3.313a.383.383,0,0,1-.409.314h-.633Z" transform="translate(-3354 -13110)" fill="#fff" fill-rule="evenodd"/><path d="M433.017,97h1.308c.185,0,.317.1.281.3a.361.361,0,0,1-.385.3h-1.308l-.237,1.36h1.362c.186,0,.317.093.281.3a.36.36,0,0,1-.385.3h-1.608c-.359,0-.443-.177-.395-.45l.487-2.791a.394.394,0,0,1,.362-.356h1.782c.185,0,.316.093.281.3a.359.359,0,0,1-.385.3H433.1Z" transform="translate(-3354 -13110)" fill="#fff" fill-rule="evenodd"/><path d="M437.407,99.212a.4.4,0,0,1-.406.361c-.234,0-.316-.157-.281-.361l.29-1.658a1.687,1.687,0,0,1-1.134-.747l-.42,2.4a.4.4,0,0,1-.406.361c-.234,0-.316-.157-.28-.361l.507-2.907a.464.464,0,0,1,.5-.361c.534,0,.46.768,1.333,1.015l.114-.654a.4.4,0,0,1,.406-.361c.234,0,.316.157.281.361Z" transform="translate(-3354 -13110)" fill="#fff" fill-rule="evenodd"/><path d="M439.355,99.217a.4.4,0,0,1-.4.356c-.234,0-.316-.158-.281-.356l.458-2.63h-.632c-.2,0-.337-.1-.3-.314a.382.382,0,0,1,.409-.313h1.952c.2,0,.336.1.3.313a.384.384,0,0,1-.409.314h-.633Z" transform="translate(-3354 -13110)" fill="#fff" fill-rule="evenodd"/><path d="M441.475,99.217a.4.4,0,0,1-.4.356c-.234,0-.316-.158-.282-.356L441.3,96.3a.4.4,0,0,1,.4-.356c.235,0,.317.157.282.356Z" transform="translate(-3354 -13110)" fill="#fff" fill-rule="evenodd"/><path d="M443.97,96.587c-.588,0-.853.362-.947.9-.116.668.353,1.444,1.5,1.444.31,0,.417.136.386.313-.043.25-.262.346-.638.346a1.842,1.842,0,0,1-2.018-2.144,1.688,1.688,0,0,1,1.627-1.485h1.21c.2,0,.336.1.3.313a.384.384,0,0,1-.41.314Z" transform="translate(-3354 -13110)" fill="#fff" fill-rule="evenodd"/><path d="M446.494,97.507a6.988,6.988,0,0,1,.706-.951,5.272,5.272,0,0,1,.411,1.3l-.013.01a1.613,1.613,0,0,0-1.034-.356Zm-.112.524a1.226,1.226,0,0,1,1.337,1.108c.005.282.044.434.316.434.191,0,.353-.145.4-.418a5.715,5.715,0,0,0-.444-2.395c-.212-.565-.351-.831-.667-.831-.381,0-.6.266-1.012.831a6.922,6.922,0,0,0-1.224,2.395c-.044.251-.014.418.281.418a.386.386,0,0,0,.387-.308,6.089,6.089,0,0,1,.482-1.234Z" transform="translate(-3354 -13110)" fill="#fff" fill-rule="evenodd"/><path d="M451.048,96.3a.4.4,0,0,1,.4-.355c.229,0,.316.156.281.355l-.458,2.63h1.052c.2,0,.337.1.3.314a.383.383,0,0,1-.41.313h-1.264c-.361,0-.444-.177-.4-.449Z" transform="translate(-3354 -13110)" fill="#fff" fill-rule="evenodd"/><path d="M453.994,97H455.3c.185,0,.316.1.281.3a.361.361,0,0,1-.385.3H453.89l-.238,1.36h1.364c.185,0,.315.093.279.3a.358.358,0,0,1-.383.3H453.3c-.359,0-.442-.177-.4-.45l.487-2.791a.393.393,0,0,1,.362-.356h1.781c.187,0,.317.093.281.3a.357.357,0,0,1-.384.3h-1.363Z" transform="translate(-3354 -13110)" fill="#fff" fill-rule="evenodd"/><path d="M457.647,96.587c-.589,0-.854.362-.948.9-.117.668.354,1.444,1.5,1.444.31,0,.417.136.387.313-.045.25-.263.346-.639.346a1.842,1.842,0,0,1-2.018-2.144,1.689,1.689,0,0,1,1.627-1.485h1.21c.2,0,.337.1.3.313a.382.382,0,0,1-.409.314Z" transform="translate(-3354 -13110)" fill="#fff" fill-rule="evenodd"/><path d="M461.341,97.057l.13-.758a.4.4,0,0,1,.407-.355c.234,0,.315.156.281.355l-.509,2.918a.4.4,0,0,1-.4.355c-.235,0-.315-.157-.283-.355l.279-1.6h-1.263l-.28,1.6a.4.4,0,0,1-.4.355c-.234,0-.316-.157-.281-.355l.509-2.918a.4.4,0,0,1,.406-.355c.234,0,.315.156.28.355l-.133.758Z" transform="translate(-3354 -13110)" fill="#fff" fill-rule="evenodd"/><path d="M463.261,97h1.309c.184,0,.315.1.279.3a.359.359,0,0,1-.384.3h-1.308l-.237,1.36h1.362c.185,0,.316.093.281.3a.361.361,0,0,1-.385.3h-1.607c-.361,0-.443-.177-.4-.45l.486-2.791a.394.394,0,0,1,.363-.356h1.782c.185,0,.316.093.28.3a.358.358,0,0,1-.383.3h-1.364Z" transform="translate(-3354 -13110)" fill="#fff" fill-rule="evenodd"/></g></svg>