<svg xmlns="http://www.w3.org/2000/svg" width="55.841" height="25.352" viewBox="0 0 55.841 25.352"><g transform="translate(3351.676 12968.988)"><path d="M27,141.012l5.366,4.9c.092.084.189.162.284.243l-.048.135a33.582,33.582,0,0,0-3.647.031,2.852,2.852,0,0,1-2.457-.942c-.628-.6-1.329-1.133-1.964-1.73-.317-.3-.509-.264-.826.013q-3.151,2.747-6.341,5.449c-.243.207-.322.325-.037.582q2.919,2.627,5.807,5.291c.278.256.4.092.578-.1,1.356-1.455,2.722-2.9,4.071-4.361a1.1,1.1,0,0,1,.919-.394c1.338.033,2.678.025,4.018.04a.943.943,0,0,1,.57.073l-2.486,2.889c-1.087,1.262-2.183,2.517-3.257,3.791a1.315,1.315,0,0,1-1.135.534c-1.8-.036-3.608-.02-5.413-.009a1.151,1.151,0,0,1-.844-.325q-4.175-3.765-8.376-7.5c-.274-.243-.243-.354.016-.578q4.444-3.848,8.87-7.716a4.2,4.2,0,0,0,.3-.323Z" transform="translate(-3354 -13110)" fill="#515151"/><path d="M37.839,141.012a2.729,2.729,0,0,0,.657.815q3.38,3.516,6.771,7.02c.294.3.346.477.011.8-2.657,2.543-5.295,5.1-7.94,7.662a.586.586,0,0,1-.423.229c-1.351-.005-2.7,0-4.064,0-.006-.3.2-.4.332-.533q3.546-3.736,7.112-7.454c.248-.258.272-.4.008-.66q-2-2.021-3.956-4.083a.89.89,0,0,0-.73-.31c-1.134.036-2.268.055-3.4.082a.714.714,0,0,1-.609-.193c-.987-1.061-1.984-2.111-2.974-3.169-.043-.046-.043-.132-.064-.2Z" transform="translate(-3354 -13110)" fill="#515151"/><path d="M28.167,157.412l6.576-7.9H17.986c.937-.969,1.78-1.844,2.627-2.714.132-.135.316-.087.479-.087q7.929,0,15.859-.009a.685.685,0,0,1,.576.256c.631.732,1.271,1.457,1.926,2.168.2.219.17.354-.024.55q-3.687,3.726-7.363,7.464a.7.7,0,0,1-.523.273c-1.077-.006-2.155,0-3.376,0" transform="translate(-3354 -13110)" fill="#515151"/><path d="M20.193,166.364c.013-.553.041-1.107.034-1.66,0-.265.036-.377.346-.4.545-.043.939.044,1.023.672a2.162,2.162,0,0,0,.17.442c.382-.313.234-.886.655-1.113.211.358.839-.151.921.42a8.547,8.547,0,0,1,.013,1.166.5.5,0,0,0,0,.055c.022.237-.085.328-.323.33-.263,0-.283-.146-.3-.353-.031-.313.121-.642-.079-.94-.334.407-.289,1-.67,1.383h-.447a9.242,9.242,0,0,0-.6-1.451c-.119.53.109,1.021-.18,1.451Z" transform="translate(-3354 -13110)" fill="#515151"/><path d="M46.215,166.364c0-.5-.015-1.005.007-1.507.007-.179-.139-.472.121-.522a.786.786,0,0,1,.831.159c.25.289.526.555.792.832.2-.186.138-.362.134-.517-.009-.3-.022-.509.415-.513.488,0,.378.289.363.539a4.625,4.625,0,0,1-.094,1.529H48c-.15-.509-.616-.731-.975-1.154-.1.438.044.82-.142,1.154Z" transform="translate(-3354 -13110)" fill="#515151"/><path d="M27.4,166.309a7.052,7.052,0,0,1-.083-1.765c-.009-.123.028-.235.176-.22.242.023.505-.11.715.157.244.31.532.586.8.874.257-.205.184-.406.182-.576,0-.283-.019-.486.389-.479.377.007.429.151.4.465a8.911,8.911,0,0,1-.074,1.6h-.782a3.181,3.181,0,0,0-.979-1.1.2.2,0,0,0-.067.016c-.012.008-.016.033-.017.051-.025.458.18,1.07-.66.977" transform="translate(-3354 -13110)" fill="#515151"/><path d="M43.535,166.364c.009-.148-.117-.172-.21-.218a.893.893,0,0,1-.523-1,.951.951,0,0,1,.771-.779,2.43,2.43,0,0,1,1.21-.027c.443.1.807.291.873.8a.894.894,0,0,1-.606,1.055c-.082.032-.184.05-.175.175Zm.676-.455a.6.6,0,0,0,.654-.688c-.006-.412-.333-.508-.643-.512a.552.552,0,0,0-.608.621c0,.45.28.546.6.579" transform="translate(-3354 -13110)" fill="#515151"/><path d="M17.512,166.364c.037-.247-.208-.223-.32-.318a.92.92,0,0,1,.1-1.538,2,2,0,0,1,1.818-.069.9.9,0,0,1,.608.9.937.937,0,0,1-.72.879c-.093.031-.236-.02-.257.143Zm.751-1.671c-.4.046-.627.246-.607.653s.287.576.668.557a.538.538,0,0,0,.563-.609c0-.429-.268-.568-.624-.6" transform="translate(-3354 -13110)" fill="#515151"/><path d="M24.66,166.364c-.824-.38-.643-1.124-.662-1.8-.009-.32.213-.252.378-.242s.447-.125.444.236c0,.279,0,.558,0,.838,0,.352.181.509.519.505a.444.444,0,0,0,.495-.527c-.006-.185.011-.372,0-.558-.013-.294-.034-.517.411-.516s.4.217.419.511a1.647,1.647,0,0,1-.555,1.555Z" transform="translate(-3354 -13110)" fill="#515151"/><path d="M35.047,166.364a5.365,5.365,0,0,1,.956-2c.171-.235,1.077-.017,1.16.262a6.384,6.384,0,0,0,.71,1.4c.1.167-.054.227-.034.34h-.782c.019-.169.035-.38-.181-.391-.427-.021-.931-.2-1.159.391Zm1.036-.783c.256-.023.545.093.628-.065.108-.207-.087-.433-.251-.672l-.377.737" transform="translate(-3354 -13110)" fill="#515151"/><path d="M52.692,166.364c0-.3-.478-.3-.4-.688.3.02.631-.18.893.182.051.07.2.087.308.093.163.009.38.028.421-.173.047-.226-.183-.252-.334-.282a3.984,3.984,0,0,1-.913-.237.436.436,0,0,1,0-.835,2.5,2.5,0,0,1,1.477-.073c.175.034.315.194.276.295a.355.355,0,0,1-.41.21c-.1-.029-.178-.124-.275-.171a.5.5,0,0,0-.529-.012.155.155,0,0,0-.059.135c.079.19.277.146.427.188.213.06.435.087.65.144.261.07.507.188.524.5s-.246.427-.463.564c-.085.053-.238,0-.252.162Z" transform="translate(-3354 -13110)" fill="#515151"/><path d="M38.732,166.364c.054-.119-.036-.162-.111-.213-.757-.514-.744-1.239.03-1.677a1.731,1.731,0,0,1,2.128.379c-.334.07-.609.17-.926-.08a.6.6,0,0,0-.843.181.653.653,0,0,0,.142.888.533.533,0,0,0,.809-.057c.11-.1.166-.3.4-.218.153.057.354.02.448.185.123.219-.15.2-.208.311-.047.091-.151.176-.078.3Z" transform="translate(-3354 -13110)" fill="#515151"/><path d="M14.385,166.364c.005-.31-.327-.3-.464-.49-.408-.565-.408-.711.12-1.217a1.631,1.631,0,0,1,2.32.2.963.963,0,0,1-.921-.079.525.525,0,0,0-.776.183.611.611,0,0,0,.051.775.617.617,0,0,0,.816.062c.076-.044.113-.16.19-.195a.561.561,0,0,1,.613.085c.168.188-.116.291-.224.419s-.338.052-.385.26Z" transform="translate(-3354 -13110)" fill="#515151"/><path d="M32.7,166.364c.053-.223-.165-.213-.265-.3a.944.944,0,0,1,.188-1.636,1.681,1.681,0,0,1,2.046.419.967.967,0,0,1-.921-.074.512.512,0,0,0-.771.179.6.6,0,0,0,.9.805c.1-.071.129-.271.286-.21.18.071.476-.036.525.2.036.174-.194.284-.342.4-.128.1-.346.005-.413.209Z" transform="translate(-3354 -13110)" fill="#515151"/><path d="M2.323,164.242a16.164,16.164,0,0,0,2.254.078c.15.012.4-.131.423.192.028.363-.246.271-.417.252-.4-.045-.529.124-.482.5.023.183,0,.372.007.557.018.287,0,.482-.4.472-.371-.01-.444-.161-.407-.469a1.328,1.328,0,0,0,0-.167c0-.938,0-.938-.983-.859Z" transform="translate(-3354 -13110)" fill="#515151"/><path d="M41.412,166.364c-.006-.57.008-1.142-.023-1.71-.021-.4.238-.322.467-.343.248-.023.387.041.355.326-.066.574.132,1.167-.129,1.727Z" transform="translate(-3354 -13110)" fill="#515151"/><path d="M11.866,165.855c.33,0,.662.021.988-.013.416-.044.565.132.526.522H10.923c.045-.666-.055-1.336.053-2,.009.387.018.774.025,1.161.012.747.011.747.788.746h1.576c-.133-.171-.153-.22-.175-.221-.293-.015-.588-.007-.878-.04-.152-.017-.385.141-.446-.154" transform="translate(-3354 -13110)" fill="#515151"/><path d="M22.65,164.981c.2.3.048.627.079.94.02.207.039.355.3.353.238,0,.344-.093.323-.33a.5.5,0,0,1,0-.055,8.547,8.547,0,0,0-.014-1.166c-.081-.571-.709-.062-.92-.42,1-.022,1-.022,1,.955,0,.369,0,.737.006,1.106H22.65a5.663,5.663,0,0,0,0-1.383" transform="translate(-3354 -13110)" fill="#515151"/><path d="M30.579,166.364c0-.576.015-1.152.015-1.729,0-.283.06-.457.383-.269-.19.1-.361.19-.314.467a3.636,3.636,0,0,1,.007.609c0,.792,0,.792.753.859a.214.214,0,0,1,.049.063Z" transform="translate(-3354 -13110)" fill="#515151"/><path d="M28.148,165.265c-.009.366-.017.732-.026,1.1H27.34a.079.079,0,0,1,.064-.055c.84.093.635-.519.66-.977,0-.018.005-.043.017-.051a.2.2,0,0,1,.067-.016" transform="translate(-3354 -13110)" fill="#515151"/><path d="M6.651,166.279c-1.186,0-1.186,0-1.185-1.172,0-.8,0-.795.779-.793H7.527c.145,0,.252.031.241.217s-.133.15-.236.152c-.334.007-.669,0-1,.008-.123,0-.225.04-.228.182s.1.181.224.181c.279,0,.557,0,.836,0,.144,0,.312-.029.3.211-.012.205-.162.163-.283.167-.241.007-.483,0-.724.009-.156.005-.361-.048-.35.222s.215.208.371.214c.26.008.52-.005.78,0,.13.005.315-.065.325.18.012.285-.2.208-.347.212-.26.009-.52,0-.78,0" transform="translate(-3354 -13110)" fill="#515151"/><path d="M50.68,164.327c.278,0,.556,0,.834,0,.12,0,.276-.036.285.166.011.249-.176.187-.31.19-.3.006-.593,0-.89,0-.142,0-.264.034-.252.213.01.155.134.154.243.156.3.006.594.007.89.007.129,0,.211.046.214.189s-.084.187-.21.187c-.241,0-.483-.009-.723.006-.162.011-.407-.1-.421.207s.228.229.4.235c.278.01.556,0,.834.006.127,0,.27-.01.271.189s-.131.194-.264.194c-.593,0-1.187,0-1.78,0-.184,0-.278-.067-.276-.257,0-.167-.008-.334-.008-.5,0-1.192,0-1.192,1.166-1.194" transform="translate(-3354 -13110)" fill="#515151"/><path d="M11.866,165.855c.061.295.294.137.446.154.29.033.585.025.878.04.022,0,.042.05.175.221H11.789c-.777,0-.776,0-.788-.746-.007-.387-.016-.774-.025-1.161l.312-.059a9.535,9.535,0,0,0,1.723,0c.126.028.263.045.246.228-.018.2-.18.148-.294.152-.278.011-.556,0-.834.008-.144,0-.322-.023-.309.206.011.192.17.158.293.161.259.005.519,0,.778,0,.132,0,.265-.011.271.183s-.119.2-.257.2c-.259,0-.519.006-.778,0-.335-.01-.382.148-.261.417" transform="translate(-3354 -13110)" fill="#515151"/><path d="M9.433,166.28c-1.089,0-1.089,0-1.094-1.1a3.3,3.3,0,0,0,0-.445c-.052-.36.118-.419.441-.429.349-.01.413.136.378.423a1.325,1.325,0,0,0,0,.167c0,.913,0,.909.927.946.159.007.41-.1.424.2s-.236.221-.4.232c-.222.014-.445,0-.668,0" transform="translate(-3354 -13110)" fill="#515151"/><path d="M31.424,166.3c-.753-.067-.754-.067-.754-.859a3.759,3.759,0,0,0-.007-.61c-.047-.276.124-.37.314-.466l.366-.056.018.025.027-.029a6.183,6.183,0,0,1,.036,1.995" transform="translate(-3354 -13110)" fill="#515151"/><path d="M13.011,164.3a9.535,9.535,0,0,1-1.723,0l1.723,0" transform="translate(-3354 -13110)" fill="#515151"/><path d="M31.388,164.306l-.026.03-.019-.026.027-.028Z" transform="translate(-3354 -13110)" fill="#515151"/><path d="M2.323,161.226c1.184-1.592,4.7-1.829,5.439-.341-.414.045-.819.085-1.222.136a.511.511,0,0,1-.509-.129.528.528,0,0,0-.189-.114A1.587,1.587,0,0,0,4.266,161a.951.951,0,0,0-.149,1.1c.268.579.818.561,1.345.562a.505.505,0,0,0,.165-.02c.267-.092.76-.009.743-.321-.022-.409-.479-.148-.735-.176s-.365-.069-.355-.347c.009-.242.036-.373.332-.364.651.023,1.3.019,1.953,0,.283-.009.329.107.338.358.041,1.11,0,1.182-1.085,1.439a7.574,7.574,0,0,1-2.664.1,2.4,2.4,0,0,1-1.831-1.2Z" transform="translate(-3354 -13110)" fill="#515151"/><path d="M58.164,160c-.369.357-.693.78-1.293.757a1.273,1.273,0,0,1-.632-2.377,1.342,1.342,0,0,1,1.629.266c.1.113.109.309.3.349Zm-1.267.5a1.023,1.023,0,1,0-1.046-.992,1,1,0,0,0,1.046.992" transform="translate(-3354 -13110)" fill="#515151"/><path d="M14.268,163.339c-.642,0-1.156-.012-1.669.006-.226.008-.332-.129-.456-.265-.287-.314-.567-.636-.868-.937a.533.533,0,0,0-.571-.126c-.2.079-.1.293-.1.443-.019.879-.014.879-.919.879-.776,0-.776,0-.776-.8,0-.724.012-1.448-.006-2.172-.006-.281.061-.391.366-.384,1.04.022,2.079.006,3.118.028a2.881,2.881,0,0,1,.814.155.785.785,0,0,1,.621.7.81.81,0,0,1-.583.8,5.546,5.546,0,0,1-.532.182,4.514,4.514,0,0,1,1.559,1.488m-3.046-2.687c-.168.161-.566-.245-.624.275-.068.611.38.407.656.406.314,0,.831.083.838-.311.007-.486-.532-.285-.87-.37" transform="translate(-3354 -13110)" fill="#515151"/><path d="M37.266,159.995a7.821,7.821,0,0,1,1.845.117,1.546,1.546,0,0,1,1.327,1.61,1.517,1.517,0,0,1-1.38,1.5,21,21,0,0,1-3.393.119c-.259.009-.243-.162-.243-.335,0-.892.009-1.784-.005-2.676-.006-.276.1-.35.357-.34.464.017.929,0,1.492,0m-.19,1.675c.226.283-.363.93.488.908.89-.022,1.175-.211,1.181-.875.006-.7-.3-.928-1.187-.945-.842-.016-.251.633-.482.912" transform="translate(-3354 -13110)" fill="#515151"/><path d="M29.117,163.386a4.182,4.182,0,0,1-1.9-.355,1.462,1.462,0,0,1-.9-1.418,1.384,1.384,0,0,1,.949-1.323,5.087,5.087,0,0,1,3.744-.011,1.388,1.388,0,0,1,.945,1.381,1.469,1.469,0,0,1-.932,1.395,4.287,4.287,0,0,1-1.907.331m.02-.779c.784.006,1.129-.289,1.126-.961,0-.61-.382-.921-1.122-.924s-1.123.314-1.137.919c-.015.644.356.962,1.133.966" transform="translate(-3354 -13110)" fill="#515151"/><path d="M19.912,161.151c.2,1.9-.846,2.164-2.154,2.226a5.856,5.856,0,0,1-1.938-.142,1.354,1.354,0,0,1-1.128-1.5c0-.186-.012-.373,0-.558.029-.382-.181-.959.087-1.1a3.362,3.362,0,0,1,1.36-.081c.262-.009.235.174.235.341,0,.521-.008,1.042,0,1.562s.257.7.909.707.914-.18.928-.682.027-1.005,0-1.505c-.021-.355.108-.477.444-.423a.683.683,0,0,0,.111,0c1.146-.005,1.146-.005,1.145,1.157" transform="translate(-3354 -13110)" fill="#515151"/><path d="M52.512,163.34c-.651,0-1.3-.012-1.952.006-.269.007-.352-.079-.347-.347.014-.892.016-1.785,0-2.677-.006-.284.106-.335.357-.333,1.264.01,2.528.013,3.793,0,.3,0,.362.1.371.381.012.338-.157.343-.406.339-.688-.01-1.376,0-2.064,0-.195,0-.363-.014-.365.275,0,.306.191.256.369.257.577,0,1.153-.008,1.73.005.224.005.523-.138.534.325s-.262.349-.5.351c-.539,0-1.079,0-1.618,0-.237,0-.524-.11-.517.345.007.428.28.3.491.308.688.01,1.376.019,2.063,0,.3-.009.383.092.373.379-.009.258-.029.412-.356.4-.65-.025-1.3-.008-1.952-.008" transform="translate(-3354 -13110)" fill="#515151"/><path d="M49.333,160.967c-.323.053-.56.1-.8.127a1.137,1.137,0,0,1-.969-.188,1.142,1.142,0,0,0-1.763.546.864.864,0,0,0,.335.991,1.159,1.159,0,0,0,1.409-.034c.454-.535.9-.332,1.377-.262.143.022.283.07.454.115a1.766,1.766,0,0,1-1.485,1.056,6.055,6.055,0,0,1-2.11-.012c-1.05-.187-1.681-.817-1.685-1.634-.005-.845.583-1.459,1.665-1.637a5.426,5.426,0,0,1,2.476.073,1.777,1.777,0,0,1,1.1.859" transform="translate(-3354 -13110)" fill="#515151"/><path d="M22.9,159.994a8.811,8.811,0,0,1,1.842.1c.486.125.885.356.9.914s-.385.816-.858.955a4.953,4.953,0,0,1-1.659.139c-.3-.015-.453.061-.41.392.021.164-.007.334.006.5.022.26-.071.343-.344.355-1.367.064-1.366.073-1.366-1.28,0-.576.012-1.152,0-1.728-.007-.266.076-.361.348-.35.482.019.966.005,1.549.005m.366,1.414c.2-.051.7.065.69-.363-.015-.453-.519-.331-.849-.374s-.4.092-.405.4c0,.372.2.375.564.336" transform="translate(-3354 -13110)" fill="#515151"/><path d="M41.4,161.644c0-.445.011-.891,0-1.335-.008-.238.065-.351.313-.316a.336.336,0,0,0,.055,0c1.323-.055,1.323-.055,1.323,1.249,0,.594-.01,1.187,0,1.78.006.24-.068.351-.314.316a.348.348,0,0,0-.056,0c-1.321.056-1.321.056-1.321-1.25v-.445" transform="translate(-3354 -13110)" fill="#515151"/><path d="M57.4,160.076c-.458.094-.386-.354-.664-.458-.012.126-.021.241-.034.356a.127.127,0,0,1-.151.121.136.136,0,0,1-.132-.148,2.85,2.85,0,0,1,.024-.939c.1-.3.452-.14.685-.112.249.031.375.307.233.454-.268.277-.094.476.039.726" transform="translate(-3354 -13110)" fill="#515151"/></g></svg>